<svg class="main-svg" xmlns="http://www.w3.org/2000/svg" xmlns:xlink="http://www.w3.org/1999/xlink" width="700" height="450" style="" viewBox="0 0 700 450"><rect x="0" y="0" width="700" height="450" style="fill: rgb(255, 255, 255); fill-opacity: 1;"/><defs id="defs-070b41"><g class="clips"><clipPath id="clip070b41xyplot" class="plotclip"><rect width="489" height="330"/></clipPath><clipPath class="axesclip" id="clip070b41x"><rect x="60" y="0" width="489" height="450"/></clipPath><clipPath class="axesclip" id="clip070b41y"><rect x="0" y="60" width="700" height="330"/></clipPath><clipPath class="axesclip" id="clip070b41xy"><rect x="60" y="60" width="489" height="330"/></clipPath></g><g class="gradients"/></defs><g class="bglayer"><rect class="bg" x="60" y="60" width="489" height="330" style="fill: rgb(255, 255, 255); fill-opacity: 1; stroke-width: 0;"/></g><g class="layer-below"><g class="imagelayer"/><g class="shapelayer"/></g><g class="cartesianlayer"><g class="subplot xy"><g class="layer-subplot"><g class="shapelayer"/><g class="imagelayer"/></g><g class="gridlayer"><g class="x"><path class="xgrid crisp" d="M0,60v330" transform="translate(179.62,0)" style="stroke: rgb(238, 238, 238); stroke-opacity: 1; stroke-width: 1px;"/><path class="xgrid crisp" d="M0,60v330" transform="translate(301.93,0)" style="stroke: rgb(238, 238, 238); stroke-opacity: 1; stroke-width: 1px;"/><path class="xgrid crisp" d="M0,60v330" transform="translate(424.24,0)" style="stroke: rgb(238, 238, 238); stroke-opacity: 1; stroke-width: 1px;"/><path class="xgrid crisp" d="M0,60v330" transform="translate(546.55,0)" style="stroke: rgb(238, 238, 238); stroke-opacity: 1; stroke-width: 1px;"/></g><g class="y"><path class="ygrid crisp" d="M60,0h489" transform="translate(0,373.06)" style="stroke: rgb(238, 238, 238); stroke-opacity: 1; stroke-width: 1px;"/><path class="ygrid crisp" d="M60,0h489" transform="translate(0,324.28)" style="stroke: rgb(238, 238, 238); stroke-opacity: 1; stroke-width: 1px;"/><path class="ygrid crisp" d="M60,0h489" transform="translate(0,275.5)" style="stroke: rgb(238, 238, 238); stroke-opacity: 1; stroke-width: 1px;"/><path class="ygrid crisp" d="M60,0h489" transform="translate(0,226.72)" style="stroke: rgb(238, 238, 238); stroke-opacity: 1; stroke-width: 1px;"/><path class="ygrid crisp" d="M60,0h489" transform="translate(0,177.94)" style="stroke: rgb(238, 238, 238); stroke-opacity: 1; stroke-width: 1px;"/><path class="ygrid crisp" d="M60,0h489" transform="translate(0,129.16)" style="stroke: rgb(238, 238, 238); stroke-opacity: 1; stroke-width: 1px;"/><path class="ygrid crisp" d="M60,0h489" transform="translate(0,80.38)" style="stroke: rgb(238, 238, 238); stroke-opacity: 1; stroke-width: 1px;"/></g></g><g class="zerolinelayer"/><path class="xlines-below"/><path class="ylines-below"/><g class="overlines-below"/><g class="xaxislayer-below"/><g class="yaxislayer-below"/><g class="overaxes-below"/><g class="plot" transform="translate(60, 60)" clip-path="url(#clip070b41xyplot)"><g class="scatterlayer mlayer"><g class="trace scatter trace1f98e8" style="stroke-miterlimit: 2; opacity: 1;"><g class="fills"/><g class="errorbars"/><g class="lines"><path class="js-line" style="vector-effect: non-scaling-stroke; fill: none; stroke: rgb(44, 160, 44); stroke-opacity: 1; stroke-width: 2px; opacity: 1;" d="M0,163.5L0.24,171.07L0.49,144.53L0.73,167.53L0.98,112.42L1.22,166.04L1.71,156.55L1.96,115.23L2.94,163.18L3.18,120.91L4.16,165.77L4.4,134.81L5.14,125.7L5.38,110.37L6.12,179.49L6.36,127.28L6.6,160.03L7.09,158.69L7.34,139.74L7.83,120.29L8.07,141.2L8.32,104.62L8.56,161.94L8.81,175.28L9.05,162.55L9.3,75.07L10.03,141.58L10.27,107.16L10.52,160.01L11.25,157.52L11.5,45.4L12.23,147.42L12.48,139.8L12.72,124.69L12.96,112.45L13.21,120.38L13.45,143.94L13.94,76.27L14.19,153.19L14.68,94.53L14.92,110.93L15.17,104.05L15.41,114.62L15.66,187.11L15.9,127.5L16.39,131.95L16.63,158.87L16.88,126.01L17.12,126.27L17.37,160.7L18.35,98.15L18.59,132.65L18.84,151.33L19.08,102.36L20.06,229.61L20.3,92.75L21.28,115.12L21.53,124.38L21.77,124.67L22.02,127.62L22.26,176.75L22.75,154.52L22.99,167.56L23.48,93.98L23.97,112.63L24.22,237.5L25.2,92.21L25.44,143.3L26.17,98.63L26.42,99.08L26.66,125.7L27.15,165.71L27.4,85.8L27.64,168.45L28.13,153.83L28.38,143.22L28.62,144.33L28.87,125.83L29.11,137.05L29.35,110.76L30.33,155.65L30.58,139.11L31.07,146.11L31.31,107.21L31.56,140.01L32.05,120.89L32.29,136.04L32.53,136.89L32.78,136.31L33.02,86.82L33.27,91.09L33.51,88.36L33.76,127.81L34.25,154.89L34.49,39.41L35.23,160.75L35.47,123.15L35.71,83L35.96,63.94L36.2,113.1L36.45,146.04L36.69,99.6L36.94,144.23L37.18,122.91L37.67,141.35L37.92,128.28L38.16,94.38L38.65,110.91L38.89,161.31L39.14,158.7L39.38,133.3L39.63,131.65L39.87,117.91L40.36,126.16L40.61,75.31L40.85,128.14L41.1,98L41.34,133.81L41.59,134.14L41.83,98.24L42.08,128.22L42.32,161.35L43.05,82.81L43.3,120.32L43.79,89.55L44.28,102.07L44.52,220.37L45.01,82.9L45.26,142.07L45.5,151.39L45.74,123.64L46.23,141.65L46.48,129.3L46.72,162.26L46.97,110.9L47.21,139.77L47.46,94.39L47.7,101.47L47.95,146.75L48.68,63.97L48.92,106.92L49.17,76.36L49.41,162.21L49.9,109.91L50.15,188.78L50.64,75.52L51.13,102.64L51.37,112.96L52.1,68.81L52.35,115.82L52.59,98.19L52.84,142.83L53.82,87.67L54.06,111.07L54.31,55.43L54.55,133.16L54.8,133.18L55.04,175.53L55.28,110.97L55.53,115.44L55.77,130.31L56.02,114.46L56.26,114.59L56.51,207.04L57.24,106.75L57.49,172.74L57.73,108.61L58.22,155.2L58.46,149.03L59.69,57.92L59.93,125.1L60.18,74.77L60.67,122.2L60.91,93.42L61.16,131.94L61.4,92.37L61.64,125.45L61.89,122.01L62.13,89.43L62.38,126.96L62.62,126.6L63.36,93.54L63.6,163.31L63.85,239.71L64.09,201.48L64.34,152.85L64.82,155.61L65.07,76.38L65.31,113.34L65.8,130.75L66.05,102.49L66.29,101.57L66.54,104.19L66.78,95.22L67.03,97.05L67.27,113.82L67.76,155.84L68.01,138.29L68.25,60.92L68.98,130.08L69.23,97.4L69.47,41.72L69.72,108.9L69.96,109.98L70.21,139.1L70.45,89.51L70.7,95.46L71.19,149.88L71.43,109.44L71.67,77.9L72.65,138.58L72.9,144.72L73.39,144.95L73.63,83.55L73.88,137.93L74.85,86.1L75.1,156.77L76.32,67.28L76.57,102.46L76.81,187.28L77.06,100.15L77.3,85.75L77.55,152.51L78.03,142.46L78.28,117.07L78.52,87.84L78.77,105.31L79.01,147.45L79.26,106L79.5,126.67L79.75,203.98L80.24,71.82L80.73,121.11L80.97,108.28L81.21,112.36L81.46,130.15L81.95,76.39L82.19,84.49L82.44,169.81L82.93,98.19L83.17,110.26L83.42,125.8L83.91,136.26L84.15,103.82L84.39,106.36L84.64,133.59L84.88,120.39L85.13,201.31L86.11,104L86.35,100.67L86.6,138.33L86.84,96.5L87.09,111.66L87.33,129.29L87.82,111.6L88.06,145.12L88.31,148.83L88.55,41.4L89.53,176.31L89.78,119.01L90.27,140.79L90.51,138.92L90.75,119.08L91,168.93L91.24,86.09L91.49,49.47L92.47,185.27L92.71,122.15L92.96,132.45L93.45,127.76L93.69,120.44L93.93,57.28L94.42,115.09L94.67,96.46L94.91,147.22L95.16,72.46L95.4,72.97L95.65,75.92L95.89,145.1L96.14,223.68L96.38,143.35L96.63,113.2L96.87,137.83L97.12,82.71L98.09,174.72L98.34,124.07L98.58,152.84L98.83,146.08L99.07,86.43L99.32,55.93L99.56,75.76L99.81,131.66L100.05,145.03L100.3,118.31L100.54,93.37L100.78,80.28L101.03,194.05L101.76,75.54L102.01,129.4L102.25,72.97L102.74,119.1L102.99,131.95L103.23,174.22L103.48,107.72L103.72,89.79L103.96,86.41L104.21,69.68L104.45,118.18L104.94,81.5L105.19,72.94L105.43,62.91L105.68,124.56L105.92,54.92L106.41,57.92L106.66,137.93L107.63,83.11L107.88,110.75L108.12,101.89L108.37,118.76L108.61,65.87L108.86,107.65L109.35,104.9L109.59,103.6L109.84,81.06L110.08,116.3L110.57,82.38L110.81,119.07L111.06,123.55L111.3,151.74L111.55,117.94L111.79,212.36L112.04,76.11L112.53,105.14L112.77,96.33L113.26,155.98L113.5,127.5L113.75,111.39L114.24,128.63L114.48,88.49L114.73,87.77L114.97,159.39L115.95,98.07L116.2,99.35L116.44,104.39L116.68,109.78L116.93,50.99L117.66,127.59L117.91,125.71L118.15,94.99L118.89,198.64L119.13,154.13L119.38,153.26L119.62,100.14L120.6,156.77L120.84,108.41L121.33,79.66L121.58,85.67L121.82,117.07L122.07,121.28L122.31,155.71L122.8,81.03L123.05,102.02L123.29,125.63L123.53,74.34L124.02,82.57L124.27,111.44L124.51,94.82L124.76,175.71L125.49,97.81L125.74,98.36L125.98,148.9L126.96,95.95L127.2,147.09L128.43,57.31L128.67,143.43L128.92,150.47L129.16,79.75L129.41,71.34L129.65,106.56L129.89,133.87L130.14,82.58L130.38,93.84L130.63,83.48L130.87,101.61L131.12,86.11L131.36,153.18L132.1,90.01L132.34,122.49L132.59,116.87L132.83,92.51L133.07,127.63L133.32,80.17L133.56,99.58L133.81,114.38L134.05,100.38L134.3,163.51L135.52,79.44L135.77,100.16L136.01,59.68L136.25,103.84L136.5,76.49L136.74,111.39L136.99,92.59L137.23,149.29L137.48,159.42L137.72,86.14L138.21,158.41L138.46,100.41L138.7,109.04L138.95,135.49L139.43,128.02L139.68,94.26L139.92,146.1L140.41,103.81L140.66,73.74L141.15,72.77L141.39,131.02L141.64,123.61L141.88,110.25L142.13,86.4L142.37,136.42L142.86,77.05L143.1,90.41L143.35,134.93L144.08,76.19L144.33,113.61L144.57,92.83L144.82,115.47L145.06,109.15L145.31,97.84L145.55,92.31L145.79,101.53L146.04,96.96L146.28,124.95L146.53,136.33L146.77,91.89L147.26,153.6L147.51,74.22L148.49,143.12L148.73,76.55L149.46,140.55L149.71,83.39L150.69,115.09L150.93,114.15L151.18,94.03L151.42,166.51L151.91,127.19L152.16,121.74L152.4,119.73L152.64,148.62L152.89,131.86L153.13,43.43L153.38,73.54L153.62,201.43L154.85,75.39L155.09,184.34L155.82,68.74L156.07,114.24L156.56,50.89L156.8,113.2L157.05,148.17L157.29,157.59L157.54,114.4L157.78,121.97L158.03,104.52L158.27,161.34L158.52,106.89L158.76,96.02L159,119.71L159.25,108.09L159.49,78.55L160.23,209.31L160.47,142.51L160.72,127.08L161.45,79.72L161.7,123.87L161.94,166.4L162.18,130.64L162.43,71.74L162.92,68.68L163.16,128.26L163.41,100.99L163.65,63.71L164.14,91.19L164.39,192.64L164.63,110.11L165.12,138.12L165.36,130.89L165.61,49.01L165.85,158.24L166.1,83.85L166.34,122.54L166.59,30.01L167.08,56.62L167.32,179.03L167.57,90.13L167.81,133.45L168.06,191.35L168.79,55.14L169.03,124.14L169.28,148.73L169.52,98.28L169.77,175.01L170.01,122.52L170.26,119.52L170.5,85.12L170.75,141.35L170.99,105.51L171.24,115.74L171.48,60.46L171.72,206.04L171.97,89.04L172.46,93.46L172.7,105.5L172.95,166.54L173.19,74.83L173.44,66.77L174.42,110.3L174.66,109.78L174.9,68.21L175.15,70.7L175.39,116.84L175.88,172.92L176.13,125.11L176.37,110.25L176.62,113.61L176.86,142.04L177.84,80.75L178.09,124.41L178.33,114.16L178.57,70.84L179.31,129.52L179.55,124.44L179.8,86.18L180.04,121.56L180.29,115.57L180.53,77L180.78,158.33L181.27,89.7L181.51,136.04L182.24,62.65L182.49,156.67L182.98,74.46L183.47,92.36L183.71,121.49L184.2,115.09L184.45,136.71L184.69,84.3L185.67,160.2L185.91,86.25L186.16,60.31L186.4,102.6L186.65,93.73L187.63,123.89L187.87,137.26L188.85,69.85L189.09,83.47L189.34,141.79L189.58,79.39L189.83,121.35L190.07,136.06L190.56,67.62L190.81,120.07L191.05,134.24L192.27,74.39L192.52,122.9L192.76,81.4L193.25,116.51L193.5,90.44L193.74,110.9L194.23,95.13L194.47,81.46L194.96,115.17L195.45,113.6L195.7,87.81L195.94,84.8L196.19,118.83L196.43,93.05L196.68,149.75L197.17,80.07L197.41,117.35L197.65,127.52L197.9,137.89L198.14,129.78L198.39,115.06L198.88,170.6L199.12,121.72L199.37,101.49L199.61,105.45L199.86,171.47L200.83,83.18L201.08,92.39L201.32,101.33L201.57,44.23L202.06,99.3L202.55,91.17L202.79,94.3L203.53,109.61L203.77,98.7L204.26,138.05L204.5,87.46L204.75,92.04L204.99,158.04L205.73,102.14L205.97,73.32L206.46,174.3L206.71,93.05L207.44,88.95L207.68,215.9L207.93,63.64L208.42,81.47L208.66,76.81L208.91,137.17L209.15,139.16L209.4,170.15L210.13,80.22L210.38,101.49L210.62,124.43L210.86,81L211.11,175.36L212.09,91.39L212.33,121.18L212.58,127.05L212.82,122.15L213.07,91.24L213.31,154.33L213.8,145.18L214.04,105.99L214.53,148.83L214.78,80.16L215.02,123.3L215.27,118.07L215.51,66.12L215.76,141.39L216.25,116.61L216.49,134.79L216.74,118.59L216.98,40.29L217.47,130.47L217.96,102.46L218.2,58.71L219.18,119.07L219.43,93.37L219.67,92.48L219.92,138.84L220.16,129.86L220.4,147.17L220.65,91.2L220.89,166.22L221.38,112.57L221.63,97.33L221.87,99.92L222.12,85.14L223.1,250.84L223.34,234.42L223.58,121.37L223.83,141.51L224.07,72.33L224.56,200.44L224.81,102.56L225.05,123.67L225.3,111.68L225.54,183.36L226.03,88.94L226.52,112.27L226.76,117.57L227.01,124.56L227.25,61.08L227.74,136.29L227.99,111.87L228.23,90.04L228.48,103.57L228.72,60.2L229.46,146.08L229.7,50.54L230.43,148.48L230.68,103.49L230.92,31.56L231.9,123.6L232.15,112.61L232.39,65.74L232.64,121.76L232.88,110.82L233.13,149.54L233.37,101.32L233.61,147.38L233.86,164.18L234.1,153.7L234.35,68.76L235.33,165.88L235.57,121.43L235.82,120.92L236.06,88.5L236.31,54.58L236.55,60.75L236.79,106.75L237.04,84.94L237.28,191.72L237.77,148.67L238.02,83.13L238.26,95.42L238.51,58.93L238.75,111.53L239.24,107.95L239.49,100.83L239.73,142.06L239.97,78.72L240.22,100.65L240.46,126.66L240.95,103.6L241.2,142.43L241.44,46.66L241.69,112.73L241.93,244.86L242.91,74.29L243.15,115.88L243.89,84.17L244.13,94.46L244.38,122.4L244.87,149.5L245.36,81.81L245.6,83.21L246.33,167.75L246.58,123.4L247.56,65.93L247.8,146.9L248.29,93.72L248.54,122.79L248.78,130.01L249.27,146.3L249.51,110.12L249.76,62.18L250,120.62L250.25,129.07L250.49,118.9L250.74,168.28L250.98,205.01L251.23,115.75L251.47,117.15L251.72,108.92L252.69,46.35L252.94,78.23L253.43,180.94L253.67,70.22L253.92,79.51L254.16,121.12L254.65,79.26L255.14,93.09L255.39,95.73L255.63,99.29L255.87,73.44L256.12,121.78L256.36,42.87L256.61,88.67L256.85,98.76L257.1,115.02L257.34,76.66L257.83,142.15L258.08,59.14L259.3,137.59L259.54,127.3L259.79,20.31L260.28,96.62L260.52,67.46L261.26,148.28L261.5,115.14L261.75,66.17L262.72,128.78L262.97,101.09L263.46,86.12L263.95,161.63L264.19,97.75L264.44,108.55L264.68,90.09L264.93,178.8L265.42,62.45L265.66,94.65L265.9,158.78L266.64,93.6L266.88,96.91L267.13,119.69L268.11,56.94L268.35,111.03L268.84,77.09L269.08,111.13L269.33,141.96L269.57,105.67L269.82,121.2L270.06,152.46L270.55,62.75L270.8,79.95L271.04,118.04L271.53,116.64L271.78,95.68L272.02,138.18L272.26,90L272.51,99.99L272.75,123.35L273,47.28L273.24,150.37L273.49,74.93L273.73,84.34L273.98,129.74L274.22,25.97L274.96,100.49L275.2,84.44L275.44,125.27L275.93,116.11L276.18,111.14L276.42,173.16L276.67,143.12L276.91,103.5L277.4,116.6L277.65,99.14L277.89,111.87L278.14,74.21L278.62,100.29L278.87,145.45L279.85,65.35L280.09,114.11L280.83,77.51L281.07,157.35L281.56,74.34L282.05,95.95L282.29,129.21L282.78,141.5L283.03,74.1L283.27,109.16L284.25,80.04L284.5,95.62L284.74,150.9L284.98,72.41L285.23,123L285.47,68.21L285.72,121.89L286.21,78.77L286.45,103.23L286.94,79.86L287.19,101.18L287.43,102.74L287.68,111.72L287.92,123.93L288.17,116.85L288.41,107.66L288.9,76.33L289.14,163.43L289.88,75.35L290.12,115.64L290.37,145.92L290.86,124.55L291.1,100.61L291.59,86.71L291.83,107.74L292.32,116.29L292.57,48.31L292.81,106.23L293.06,115.53L293.3,90.95L293.55,78.77L293.79,109.67L294.04,89.41L294.28,122.1L294.53,119.71L295.01,107.03L295.26,28.91L295.75,130.71L295.99,113.28L296.24,79.93L296.73,57.27L296.97,73.08L297.22,91.65L297.71,93.42L297.95,58.67L298.19,101.93L298.44,70.94L298.68,108.19L298.93,123.71L299.17,56.7L299.66,97.81L299.91,107.29L300.15,78.83L300.4,118.23L300.64,82.48L300.89,90.67L301.13,71.06L301.37,133.8L302.35,75.16L302.6,133.29L303.09,104.76L303.33,107.25L303.58,203.6L304.31,65.6L304.55,88.9L304.8,99L305.04,98.24L305.29,81.2L306.27,113.48L306.51,90.06L306.76,130.92L307.25,108.94L307.49,115.12L307.73,68.05L308.22,101.71L308.47,103.22L308.71,157.49L308.96,106.47L309.2,72.8L309.69,135.34L309.94,65.42L310.18,44.55L310.43,111.41L311.65,41.65L311.89,151.35L312.38,67.19L312.63,118.5L312.87,133.47L313.85,63.11L314.1,94.34L314.34,80.79L314.58,100.35L314.83,99.14L315.07,91.61L315.32,116.82L315.56,116.64L315.81,82.15L316.05,173.63L316.54,91.93L316.79,116.99L317.76,66.08L318.01,105.49L318.25,144.62L318.5,101.52L318.74,106.07L318.99,89.22L319.23,106.02L319.48,43.62L319.97,119.08L320.21,87.88L320.46,79.74L321.19,104.21L321.43,129L321.92,141.71L322.17,46.01L322.41,118.86L322.9,57.94L323.15,134.69L323.39,239.41L323.64,53.24L323.88,91.58L324.12,152.11L324.37,131.96L324.61,82.45L324.86,91.12L325.1,67.31L325.35,83.43L325.59,64.33L325.84,68.64L326.08,142.43L326.57,165.47L326.82,87.7L327.06,105.2L327.3,49.99L327.55,190.31L328.04,181.98L328.28,68.39L328.77,97.69L329.02,165.88L329.75,77.68L330,225.31L330.24,82.98L330.73,85.87L330.97,106.16L331.22,138.14L331.46,104.54L331.71,68.93L331.95,93.92L332.2,55.81L332.44,159.87L333.42,65.58L333.66,104.26L333.91,110.27L334.15,83.54L334.64,128.01L334.89,65.58L335.13,162.17L335.62,113.65L335.87,68.25L336.6,106.1L336.84,93.94L337.33,88.89L337.58,152.9L337.82,126.66L338.07,119.99L338.31,68.51L338.8,97.57L339.05,84.37L339.78,128.78L340.03,116.19L340.27,90.72L340.51,27.03L340.76,101.89L341,106.93L341.25,116.25L341.49,163.45L342.23,59.38L342.47,141.23L342.96,110.95L343.21,139.37L343.45,48.68L343.69,108.64L344.18,105.91L344.43,50.97L344.92,186.5L345.16,120.41L345.41,91L345.65,127.16L346.14,106.76L346.39,119.39L346.63,36.41L347.12,110.64L347.36,92.69L347.85,93.61L348.1,65.25L348.34,97.83L348.59,100.26L348.83,94.71L349.08,70.32L349.32,87.2L349.57,121.63L349.81,79.97L350.05,161.06L350.3,118.96L350.54,105.02L350.79,115.73L351.03,96.23L351.28,83.69L352.01,114.39L352.26,103.39L352.75,64.17L352.99,153.93L353.97,87.87L354.21,159.86L354.7,85.14L354.95,148.41L355.19,97.17L355.44,32.51L355.68,51.1L355.93,112.31L356.17,222.33L356.66,125.63L356.9,95.74L357.15,67.51L357.39,176.64L358.37,56.38L358.62,57.27L359.11,174.55L359.59,154.09L359.84,76.35L360.08,91.61L360.33,76.08L360.57,83.6L360.82,77.75L361.31,138.29L361.55,129.75L361.8,69.5L362.53,101.11L362.77,81L363.02,131.12L363.26,116.34L363.51,48.03L364,119.73L364.49,108.56L364.73,74.11L364.98,49.28L365.22,81.52L365.47,117.27L365.71,122.03L365.95,78.23L366.2,123.66L366.69,98.32L366.93,91.95L367.18,67.24L367.42,87L367.67,114.81L367.91,88.3L368.16,164.36L368.65,55.28L368.89,75.03L369.14,93.63L369.38,119.39L369.62,74.36L369.87,107.52L370.11,79.66L370.85,144.21L371.09,48.42L371.34,98.97L371.83,80.4L372.07,72.58L372.8,131.19L373.05,72.81L373.29,59.44L373.54,78.52L373.78,142.44L374.27,60.39L374.52,93.56L374.76,97.88L375.01,119.96L375.25,88.28L375.5,97.78L375.74,69.2L375.98,72.54L376.23,87.33L376.96,161.82L377.21,69.85L377.7,99.38L378.19,91.54L378.43,74.99L379.16,57.72L379.41,135.83L379.9,62.97L380.14,157.89L380.39,69.64L380.88,71.68L381.12,95.85L381.37,64.39L381.61,83.32L381.86,101.22L382.1,110.11L382.34,47.44L382.83,127.69L383.32,115.64L383.57,124.88L383.81,61.91L384.3,109.83L384.55,149.39L385.04,53.53L385.28,112.35L385.52,108.95L385.77,146.03L386.01,85.63L386.26,97.24L386.5,144.75L386.75,81L386.99,67.33L387.24,128.62L387.73,94.07L387.97,74.32L388.22,59.33L388.46,107.09L388.7,73.4L388.95,138.44L389.19,83.12L389.44,98.14L389.68,248.87L389.93,75.06L390.17,101.64L390.42,150.96L390.91,180.89L391.15,21.33L391.4,103L391.64,56.7L392.13,104.73L392.37,59.89L392.62,81.74L392.86,65.29L393.11,82.44L393.35,120.89L393.6,131.8L393.84,83.68L394.09,121.97L394.33,104.08L394.58,44.44L395.55,179.22L395.8,84.9L396.04,143.88L396.53,91.74L396.78,84.08L397.51,125.66L397.76,88.86L398,92.41L398.25,73.28L399.47,154.25L399.71,108.78L399.96,99.79L400.2,114.93L400.45,104.91L400.69,139.34L401.18,66.42L401.43,90.52L401.67,112.52L402.16,120.64L402.4,69.77L402.65,98.49L402.89,144.65L403.14,63.6L403.38,112.42L403.63,110.16L403.87,63.84L404.36,95.14L404.61,88.24L404.85,56.23L405.09,111.44L405.34,120.54L405.58,138.29L405.83,111.43L406.07,209.5L407.05,45.52L407.3,113.1L408.03,76.05L408.27,111.08L408.52,109.09L408.76,126.46L409.01,154.45L409.25,74.07L409.5,61.82L409.74,201.32L410.23,53.68L410.48,77.17L410.72,107.11L411.21,36.28L411.45,139.88L411.7,117.02L411.94,130.4L412.19,169.92L412.68,176.59L413.17,80.79L413.41,58.91L413.66,54.49L413.9,86.2L414.15,79.18L414.39,126.88L414.63,91.96L414.88,145.25L415.12,104.11L415.37,122.27L415.86,140.7L416.59,35.47L416.84,82.87L417.08,39L417.33,44.37L417.57,153.48L418.06,67.74L418.3,85.68L418.55,119.15L419.04,138.24L419.53,31.65L419.77,102.09L420.02,87.38L420.26,137.12L421.24,67.64L421.48,115.9L421.73,126.13L421.97,34.45L423.44,134.81L423.69,78.43L423.93,47.28L424.18,84.67L424.42,124.07L424.66,127.47L424.91,94.82L425.15,105.68L425.4,78.59L425.64,67.28L425.89,81.73L426.13,110.04L427.11,60L427.36,98.03L427.84,110.41L428.09,77.03L428.33,82.76L428.58,82.25L428.82,70.58L429.07,116.32L429.56,94.17L429.8,66.83L430.05,116.53L430.54,86.68L430.78,105.96L431.02,39.09L431.27,72.87L431.51,135.73L431.76,169.35L432,101.39L432.25,45.37L432.49,113.27L432.98,68.94L433.23,94.37L433.47,54.18L433.96,86.76L434.2,60.33L434.69,113.03L434.94,108.04L435.18,97.75L435.43,100.7L435.67,66.9L436.16,111.25L436.41,74.45L436.65,63.7L436.9,66.86L437.14,153.07L437.63,54.74L437.87,160.63L438.12,56.17L438.36,48.82L438.85,140.02L439.34,103.82L439.59,81L440.32,62.5L440.56,114.48L441.05,128.87L441.3,46.12L442.03,102.29L442.28,87.87L442.52,78.98L442.77,97.37L443.01,58.71L443.5,119.36L443.74,63.08L444.23,48.8L444.97,137.08L445.21,44.93L445.7,20.9L446.19,117.55L446.44,85.43L446.68,117.38L447.17,88.28L447.41,73.69L447.9,51.92L448.15,93.59L448.39,102.57L448.64,54.15L448.88,106.32L449.37,86.53L449.62,97.81L449.86,27.57L450.35,66.75L450.59,93.24L450.84,117.22L451.08,74.36L451.33,67.23L452.06,101.71L452.31,64.64L452.55,67L452.8,26.46L453.53,144.73L453.77,51.42L454.26,117.05L454.75,114.59L455,68.16L455.49,41.67L455.73,75.25L456.22,148.47L456.47,80.4L456.95,95.41L457.2,107.49L457.69,115.88L457.93,35.01L458.18,100.96L458.42,122.31L458.91,104.99L459.16,112.22L460.13,31.32L460.38,87.13L460.87,70.39L461.11,117.62L461.36,70.71L461.6,34.05L461.85,106.42L462.09,48.18L462.34,126.9L462.58,180.46L462.83,107.14L463.07,76.68L463.31,76.69L463.56,98.02L463.8,123.97L464.05,83.06L464.29,89.2L464.54,89.47L464.78,54.78L465.27,83.05L465.52,57.77L466.49,130.27L466.74,95.12L466.98,87.15L467.23,99.29L467.47,52.1L468.45,132.32L468.7,76.6L468.94,48.35L469.19,94.45L469.43,51.09L469.67,58.57L469.92,76.33L470.16,51.47L470.41,178.78L471.14,84.36L471.39,88.42L471.63,161.62L472.37,25.09L472.61,96.24L472.85,115.39L473.1,55.32L473.59,56.23L473.83,86.96L474.32,69.49L474.81,119.3L475.06,77.57L475.3,58.02L475.79,75.4L476.04,98.04L476.28,81.67L476.52,89.74L476.77,172.37L477.01,203.6L477.26,47.77L478.24,101.78L478.48,85.91L478.97,67.35L479.22,85.52L479.7,64.14L479.95,101.1L480.44,35.08L480.68,61.77L480.93,116.98L481.66,65.54L481.91,100L482.15,103.39L482.4,90.96L483.13,78.95L483.37,55.6L484.11,160.88L484.35,89.2L484.6,107.35L484.84,70.54L485.09,106.89L485.33,63.76L485.58,67.08L485.82,87.54L486.31,51.51L486.55,175.1L486.8,53.29L487.04,113.02L487.53,77.49L487.78,50.69L488.02,22L488.27,66.71L488.51,66.3L489,97.58"/></g><g class="points"/><g class="text"/></g><g class="trace scatter trace297f79" style="stroke-miterlimit: 2; opacity: 1;"><g class="fills"/><g class="errorbars"/><g class="lines"><path class="js-line" style="vector-effect: non-scaling-stroke; fill: none; stroke: rgb(214, 39, 40); stroke-opacity: 1; stroke-width: 2px; opacity: 1;" d="M0,157.4L0.24,161.69L0.49,144.15L0.73,172.14L0.98,131.89L1.22,166.57L1.47,94.37L1.71,173.96L2.2,128.14L2.45,149.27L2.69,128.72L2.94,164.34L3.18,141.11L3.42,154.73L3.67,132.33L3.91,162.69L4.16,171.97L4.4,128.21L4.89,152.94L5.14,147.36L5.38,120.53L5.87,143.56L6.12,181.27L6.36,131.03L6.85,158.31L7.09,140.52L7.34,155.34L7.58,128.34L7.83,121.29L8.81,188.21L9.05,163.73L9.78,80.11L10.03,139.78L10.27,112.38L10.52,173.17L11.5,72.8L11.74,122.66L11.99,109.06L12.23,147.75L12.48,160.69L12.72,121.1L12.96,115.81L13.21,210.62L13.94,60.04L14.19,158.15L14.68,70.25L15.17,90.26L15.41,107.19L16.15,180.82L16.39,142.59L16.63,184.73L16.88,131.54L17.12,132.24L17.37,159.96L17.61,106.92L17.86,116.27L18.35,110.28L18.59,133.37L18.84,141.81L19.08,88.28L20.06,173.97L20.3,101.61L20.55,100.61L20.79,103.73L21.04,105.76L21.28,121.15L22.99,181.53L23.24,165.12L23.48,101.21L23.97,109.31L24.22,238.51L25.2,118.04L25.44,138.74L25.93,96.74L26.42,112.36L26.66,126.78L27.15,167.95L27.4,65.07L27.64,166.14L28.13,141.23L28.38,133.95L28.87,241.57L29.11,164.65L30.09,122.37L30.33,146.54L30.82,149.79L31.07,132.46L32.05,102.37L32.29,137.66L33.02,78.31L33.27,100.11L33.51,99.78L33.76,140.05L34,136.2L34.25,176.15L34.49,47.57L34.98,145.62L35.23,144.71L35.47,137.67L35.71,77.04L36.45,129.77L36.69,104.83L36.94,141.76L37.43,131.53L37.67,105.95L37.92,113.93L38.16,91.85L38.89,179.5L39.14,160.4L39.38,153.11L39.63,121.33L40.12,134.16L40.36,131.81L40.61,74.39L40.85,138.85L41.1,112.97L41.34,124.41L41.59,124.27L41.83,87.14L42.32,167.75L42.81,154.03L43.05,95.78L44.03,129.32L44.28,114.47L44.52,247.31L45.01,108.49L45.26,123.03L45.5,148.8L45.99,121.4L46.23,146.86L46.48,104.49L46.72,169.62L47.21,132.94L47.46,78.97L47.95,157.92L48.19,132.3L48.44,90.48L48.68,79.94L49.17,82.96L49.41,146.89L49.66,123.7L49.9,128.51L50.15,190.75L50.64,74.44L51.13,95.34L51.37,110.52L51.86,97.46L52.1,67.67L52.84,155.6L53.08,104.58L53.33,129.59L53.57,108.81L53.82,92.46L54.06,110.56L54.31,52.64L55.04,166.8L55.28,102.9L55.77,136.37L56.02,109.57L56.26,117.14L56.51,207.47L57,113.73L57.24,106.82L57.49,187.01L57.98,128.92L58.22,145.34L58.95,118.11L59.2,189.59L60.18,65.25L60.42,99.7L61.16,138.41L61.4,101.79L61.64,130.65L61.89,130.58L62.13,73.85L62.87,124.56L63.11,124.33L63.36,98.38L63.6,163.37L64.09,125.79L64.34,115.48L64.82,127.32L65.07,70.42L65.8,136.93L66.05,95.49L66.29,95.72L66.54,113.8L66.78,117.09L67.03,97.79L67.27,173.24L67.76,143.85L68.01,132.28L68.25,62.14L68.49,134.85L68.74,114.47L68.98,130.44L69.47,54.07L69.72,109.24L69.96,131.31L70.21,130.2L70.45,86.62L70.7,81.36L70.94,130.3L71.19,147.34L71.43,102.59L71.67,80.43L71.92,138.5L72.41,89.85L72.65,126.41L72.9,172.75L73.63,87.88L73.88,143.35L74.85,109.34L75.1,161.52L76.08,104.72L76.32,71.64L76.81,197.82L77.06,77.02L77.3,71.79L77.55,146.07L78.52,89.3L78.77,116.45L79.26,99.57L79.75,183.55L79.99,139.55L80.24,95.27L80.73,125.51L80.97,109.26L81.21,128.24L81.7,117.93L81.95,111.32L82.19,79.97L82.44,146.23L82.93,100.64L83.17,130.04L83.42,120.02L83.66,137.45L83.91,132.49L84.15,103.35L84.39,103.86L84.64,141.11L84.88,71.62L85.13,204.51L85.37,124.33L85.62,118.43L86.35,85.13L86.6,129.97L86.84,97.54L87.33,126.46L87.57,111.1L88.06,259.64L88.31,170.25L88.55,74.07L89.04,157.57L89.29,105.19L89.53,179.23L90.02,103.36L90.27,133.82L91,167.77L91.24,95.97L91.49,49.95L91.73,164.92L92.22,107.39L92.47,191.72L93.2,108.21L93.45,135.01L93.93,47.13L94.18,109.49L94.42,113.22L94.67,100.34L94.91,136.73L95.16,90.5L95.4,89.4L95.65,68.35L95.89,159.12L96.63,85.17L97.12,85.83L97.36,110.89L97.6,100.32L97.85,138.09L98.09,162.61L98.34,117.18L98.58,160.01L98.83,137.26L99.07,78.06L99.56,88.46L99.81,139.5L100.05,145.95L100.3,134.25L100.54,98.45L100.78,78.91L101.03,181.9L101.76,70.13L102.01,146.62L102.25,87.33L102.74,119.66L102.99,143.37L103.23,148.75L103.48,113L103.96,213.84L104.45,174.12L104.7,134.49L105.43,66.96L105.68,117.17L106.41,80.68L106.66,130.56L107.63,80.03L107.88,115.31L108.12,84.64L108.37,120.13L108.61,105.6L108.86,120.4L109.35,140.29L109.84,79.87L110.08,142.36L110.57,76.18L110.81,127.7L111.06,137L111.3,151.28L111.55,96.43L111.79,209.61L112.04,87.08L112.28,114.81L112.53,90.37L113.26,136.2L113.5,118.58L113.75,107.23L113.99,134.58L114.24,110.74L114.48,80.56L114.73,90.91L114.97,140.15L115.95,89.76L116.2,102.38L116.44,95.98L116.68,117.37L116.93,72.33L117.42,100.68L117.66,137.14L117.91,130.1L118.15,89.14L118.4,68.97L118.64,99.22L118.89,200.21L119.62,94.16L119.86,131.91L120.11,151.12L120.6,172.53L120.84,127.52L121.33,84.55L121.58,96.39L121.82,133.91L122.07,114.86L122.31,154.34L122.8,70.01L123.05,105.3L123.29,125.98L123.78,84.04L124.27,87.34L124.51,90.5L124.76,171.76L125.25,97.79L125.49,101.04L125.74,104.92L125.98,132L126.23,97.96L126.47,124.18L126.71,170.9L127.2,181.77L127.45,97.52L127.69,143.78L128.43,85.82L128.67,153.67L128.92,141.16L129.16,72.88L129.41,41.92L129.65,95.82L129.89,131L130.63,86.69L130.87,99.39L131.12,145.63L131.61,128.21L131.85,134.02L132.1,87.49L132.34,150.19L132.59,146.81L133.32,70.83L133.56,163.21L134.05,92.34L134.3,164.33L134.54,95.14L134.79,85.5L135.03,120.35L135.28,115.55L135.52,80.15L135.77,124.54L136.25,93.86L136.5,52.67L137.48,196.93L137.72,74.26L138.21,208.88L138.46,114.63L138.7,111.68L139.43,123.99L139.68,99.06L139.92,134.73L140.41,98L140.66,48.89L141.39,139.41L141.64,131.05L141.88,121.64L142.13,58.51L142.37,170.23L142.61,137.3L142.86,80.59L143.35,110.75L143.59,98.56L144.08,80.41L144.33,108.59L144.57,90.15L144.82,96.76L145.06,120.45L145.55,90.57L145.79,96.63L146.04,113.38L146.53,155.96L146.77,81.69L147.26,156.19L147.51,70.89L148.49,164.1L148.73,89.27L149.46,141.52L149.71,96.11L149.95,93.44L150.2,125.43L151.18,84.55L151.42,160.11L151.91,124.44L152.16,313.5L153.13,59.86L153.38,110.88L153.62,148.56L153.87,147.61L154.11,110.98L154.85,89.65L155.09,180.14L155.82,76.84L156.07,77.82L156.31,87.98L156.56,59.19L156.8,100.86L157.05,128.14L157.29,144.09L157.54,108.1L158.03,96.99L158.27,154.28L158.52,105.7L158.76,81.76L159,121.3L159.25,94.64L159.49,84.33L159.98,144.17L160.23,189.02L160.96,93.05L161.21,128.14L161.45,90.9L161.7,173.08L162.92,48.61L163.16,113.23L163.65,45.4L163.9,77.32L164.14,93.4L164.39,196.81L164.88,128.18L165.12,137.91L165.36,146.67L165.61,48.41L165.85,197.77L166.34,117.78L166.59,45.54L166.83,70.67L167.08,64.37L167.32,181.89L167.57,105.07L167.81,126.55L168.06,186.67L168.79,65.33L169.03,102.93L169.28,147.63L169.52,96.11L170.01,118.68L170.26,120.6L170.5,121.84L170.75,88.08L171.24,133.15L171.48,83.33L171.72,211.81L172.21,110.4L172.46,103.35L172.7,58.15L172.95,172.39L173.19,170.88L173.44,86.02L173.68,71.79L173.93,103.95L174.17,110.09L174.42,95.56L174.66,99.52L174.9,76.76L175.64,120.57L175.88,115.89L176.13,122.27L176.37,139.25L176.62,119.53L176.86,122.49L177.11,102.94L177.6,138.42L177.84,66.59L178.82,126.5L179.06,120.35L179.31,139.89L179.55,124.88L179.8,71.19L180.78,177.11L181.02,99.92L181.27,99.34L181.51,119.13L182.24,55.89L182.49,175.04L183.47,75.23L183.71,97.22L183.96,102.66L184.2,126.23L184.45,164.26L184.69,96.12L184.93,144.3L185.18,143.52L186.16,67.58L186.4,105.22L186.89,109.2L187.14,78.65L187.38,117.24L188.11,101.72L188.36,124.65L188.85,66.18L189.09,88.58L189.34,151.74L189.58,76.61L190.07,102.72L190.32,112.01L190.56,74.73L190.81,118.73L191.05,138.08L192.27,82.92L192.52,112.87L193.25,113.43L193.5,79.89L193.74,134.06L194.23,79.29L194.72,91.31L194.96,123.65L195.94,64.62L196.19,133.71L196.43,85.58L196.68,133.89L196.92,124.71L197.17,89.46L197.65,127.12L197.9,100.71L198.14,92.7L198.88,154.46L199.12,113.6L199.61,101.85L199.86,184.78L200.83,83.32L201.08,97.35L201.32,93.86L201.57,44.22L202.3,166.11L202.55,99.38L202.79,112.78L203.04,103.37L203.28,88.26L204.26,154.3L204.5,78.72L204.99,151.64L205.24,139.62L205.48,107.89L205.73,132.92L205.97,85.41L206.22,127.69L206.46,274.66L207.44,124.64L207.68,208.41L208.17,82.28L208.66,90.64L208.91,136.1L209.4,159.35L209.64,134.89L209.89,66.48L210.38,99.29L210.62,117.67L210.86,85.28L211.11,169.88L211.6,175.27L212.09,99.01L212.33,129.45L212.58,101.61L212.82,125.06L213.07,140.53L213.31,133.28L213.56,138.13L213.8,145.95L214.53,150.11L214.78,74.36L215.02,96.93L215.27,118.67L215.51,52.14L216.49,145.05L216.74,121.23L216.98,28.9L217.22,111.09L217.47,144.81L218.2,63.05L218.45,112.41L218.94,99.65L219.18,125.92L219.43,85.54L219.67,95.06L219.92,132.28L220.16,155.67L220.4,135.27L220.65,110.57L220.89,167.67L221.38,116.78L221.63,95.83L221.87,107.35L222.12,66.6L222.85,160.38L223.1,82.79L223.34,136.44L223.83,111.73L224.07,85.07L224.56,199.37L224.81,105.06L225.05,107.69L225.3,77.14L225.54,169.09L226.03,101.12L226.28,134.34L226.52,116.12L226.76,139.24L227.01,160.69L227.25,59.71L227.74,140.05L227.99,114.4L228.23,89.75L228.72,108.45L228.97,143.53L229.46,173.14L229.7,79.05L229.94,92.36L230.19,111.95L230.43,148.94L230.68,137.03L230.92,65.99L231.17,125.87L231.66,121.26L231.9,119.1L232.15,120.44L232.39,72.64L233.37,269.84L233.61,174.67L234.1,152.54L234.35,73.53L235.08,73.43L235.33,180.65L235.57,138.82L235.82,132.12L236.06,93.8L236.31,59.7L236.55,77.98L236.79,102.09L237.04,89.78L237.28,187.01L238.51,62.09L238.75,112.07L239,100.17L239.24,125.46L239.49,120.26L239.73,132.77L239.97,64.58L240.22,145.91L240.46,130.5L240.71,120.74L241.69,93.3L241.93,244.86L242.91,76.5L243.15,121.65L243.4,128.73L243.64,89.71L243.89,84.19L244.13,92.78L244.38,148.82L244.62,94.38L244.87,150.73L245.11,125.33L245.36,124.86L245.6,73.46L245.85,161.98L246.09,144.74L246.82,80.28L247.07,100.34L247.31,111.7L247.56,69.02L247.8,140.99L248.05,119.13L248.29,87.57L248.54,155.16L249.76,69.95L250,105.08L250.98,194.14L251.23,99.37L251.47,124.88L251.72,120.28L251.96,94.75L252.69,50.25L252.94,92.08L253.43,181.53L253.67,113.97L253.92,67.27L254.16,122.59L254.65,83.36L254.9,111.87L255.87,79.87L256.12,116.55L256.36,42.43L256.85,83.75L257.1,117.26L257.34,67.56L257.59,122.29L257.83,105.01L258.08,93.6L258.32,102L258.57,54.74L259.54,148.22L259.79,23.98L261.01,153.18L261.26,142L261.5,135.57L261.75,94.15L261.99,107.47L262.24,100.16L262.48,81.92L263.21,128.1L263.46,82.18L263.95,162.88L264.19,101.61L264.44,120.21L264.68,98.12L264.93,200.78L265.42,56.18L265.66,104.54L265.9,111.38L266.15,123.57L266.39,61.63L267.13,133.06L267.62,132.11L267.86,143.49L268.11,62.31L268.6,100.21L268.84,88.45L269.33,135.21L269.57,112.14L269.82,115.43L270.06,105.33L270.31,110.28L270.55,51.41L270.8,111.05L271.29,96.68L271.53,97.41L271.78,109.2L272.02,92.83L272.26,90.83L272.75,133.76L273,74.97L273.24,151.48L273.73,96.41L273.98,128.06L274.22,33.32L274.47,104.55L274.71,297.13L275.69,98.82L275.93,114.77L276.67,159.57L276.91,87.1L277.16,127.87L277.65,87.67L277.89,101.31L278.14,68.38L278.38,92.93L278.62,109.85L278.87,143.4L279.36,122.25L279.6,63.57L280.09,121.73L280.34,98.52L280.58,60.83L281.07,163.59L281.32,94.08L281.56,74.92L281.8,102.2L282.05,82.03L282.29,115.23L282.54,87.66L282.78,170.31L283.03,76.51L283.76,80.28L284.01,91.5L284.25,90.54L284.5,92.76L284.98,86.76L285.23,151.08L285.47,85.3L285.72,139.18L285.96,84.59L286.21,60.38L286.45,81.57L286.7,197.53L286.94,89.7L287.43,99.69L287.68,103.57L287.92,86.8L288.17,110.45L288.41,120.32L288.9,88.47L289.14,175.48L289.88,94.51L290.12,134.62L291.35,90.89L291.59,130.61L292.08,121.04L292.32,130.35L292.57,61.07L293.06,133.82L293.3,93.92L293.55,87.27L294.04,57.32L294.28,164.04L294.53,113.07L294.77,109.55L295.01,82.62L295.26,70.6L295.5,84.22L295.75,132.9L295.99,133.42L296.24,72.19L296.73,67.13L296.97,123.59L297.22,114.64L297.46,75.5L297.71,82.1L297.95,67.26L298.19,135.42L298.68,113.98L298.93,117.37L299.17,60.92L299.66,80.07L299.91,167.43L300.64,73.96L300.89,80.78L301.13,42.04L301.37,114.68L301.62,128.54L302.35,87.79L302.6,97.69L302.84,98.99L303.09,90.94L303.33,102.2L303.58,103.67L303.82,102.68L304.07,107.22L304.31,74.34L304.8,84.07L305.04,91.32L305.29,89.3L305.53,102.11L305.78,83.42L306.02,123.86L306.51,99.37L306.76,194.78L307.73,74.99L307.98,103.68L308.71,164.13L308.96,83.87L309.2,75.65L309.45,92.9L309.69,140.77L309.94,71.8L310.18,19.23L310.43,106.45L310.91,98.01L311.16,63.5L311.4,71.29L311.65,62.05L311.89,255.01L312.38,91.43L312.63,108.1L312.87,139.78L313.12,36.91L313.61,95.88L313.85,78.01L314.1,83.84L314.34,77.17L314.58,100.39L315.07,115.6L315.32,127.25L315.56,121.67L315.81,80.46L316.05,175.8L316.54,89.05L316.79,107.58L317.03,71.01L317.28,89.22L317.52,112.49L317.76,71.21L318.01,100.62L318.25,157.58L319.23,76.97L319.48,71.51L319.72,70.61L319.97,131.75L320.46,82.63L320.94,91.79L321.19,131.22L321.43,141.44L321.68,100.44L321.92,159.62L322.17,51.13L322.41,121.19L322.66,89.9L322.9,75.74L323.15,120.83L323.39,238.74L323.64,75.51L323.88,99.49L324.37,133.78L324.61,84.22L324.86,84.87L325.1,105.95L325.35,100.88L325.59,66.74L325.84,65.29L326.08,119.91L326.33,161.82L326.57,99.94L326.82,89.55L327.06,103.77L327.3,59.08L327.55,191.03L328.04,169.9L328.28,72.84L328.77,78.2L329.02,177.29L329.75,83.27L330,223.8L330.24,86.1L330.73,94.34L330.97,102.2L331.22,155.63L331.46,102.44L331.71,75.53L332.2,64.83L332.44,164.97L332.69,132.98L332.93,123.26L333.42,65.54L333.66,113.68L333.91,99.66L334.64,119.61L334.89,61.8L335.13,161.49L335.62,118.47L335.87,67.83L336.11,105.89L336.6,74.77L336.84,85.54L337.58,155.09L337.82,124.11L338.07,120.18L338.31,59.84L338.8,105.53L339.29,101.08L339.54,103.17L339.78,132.27L340.27,104.86L340.51,75.18L341.49,145.65L341.74,100.91L341.98,105.39L342.23,59.51L343.21,145.2L343.45,50.64L344.18,127.42L344.43,48.88L344.92,191.69L345.16,123.17L345.41,118.89L345.65,127.63L345.9,108.88L346.14,120.87L346.39,118.89L346.63,62.41L347.36,105.92L347.61,77.92L347.85,92.11L348.1,60.2L348.59,105.2L348.83,93.87L349.08,80.32L349.32,73.96L349.57,130.21L349.81,74.02L350.05,134.44L350.3,96.52L350.54,88.08L350.79,89.41L351.03,101.73L351.52,106.87L351.77,55.85L352.01,123.92L352.5,102.2L352.75,67.23L352.99,161.05L353.48,107.8L353.72,78.73L353.97,94.36L354.21,165.09L354.46,87.26L355.19,88.67L355.44,58.64L356.17,217.19L356.41,121.16L356.66,125.07L357.15,81.34L357.39,149.69L358.37,53.93L358.62,61.21L359.11,177.59L359.59,159.44L359.84,84.79L360.08,104.6L360.33,85.06L360.57,80.88L361.55,133.49L361.8,59.58L363.02,129.63L363.26,107.3L363.51,55.69L363.75,97.21L364,121.57L364.98,70.53L365.22,87.01L365.47,120.67L365.95,100.37L366.2,110.65L367.18,62.25L367.42,139.45L367.91,93.39L368.16,213.94L368.4,71.62L368.89,94.23L369.14,89.03L369.38,120.11L369.62,71.7L369.87,115.46L370.11,70.71L370.85,158.9L371.09,56.9L371.34,106.84L371.83,86.54L372.07,76.45L372.56,147.51L372.8,137.91L373.05,73.4L373.29,73.26L373.54,95L373.78,140.69L374.03,68.81L374.27,70.2L375.01,135.44L375.25,56.93L376.47,110.8L376.72,117.64L376.96,159.76L377.21,98.82L377.45,83.04L377.7,90.62L378.19,85.92L378.43,79.98L378.68,106.71L378.92,106.58L379.16,58.99L380.14,160.95L380.39,72.82L381.12,98.35L381.37,79.88L381.61,79.95L381.86,96.26L382.1,118.54L382.34,59.37L382.59,68.98L382.83,113.9L383.32,118.62L383.81,71.22L384.06,107.91L384.3,105.32L384.55,142.97L385.04,58.22L385.28,102.68L385.52,113.4L385.77,156.79L386.01,83.4L386.26,99.16L386.5,155.16L386.75,86.91L386.99,79.47L387.24,135.48L387.73,98.54L387.97,78.03L388.22,74.34L388.46,113.25L388.7,78.93L389.19,87.09L389.44,82.76L389.68,251.67L389.93,75.36L390.17,117.89L390.42,154.69L390.91,181L391.15,31.47L391.4,103.89L391.88,74.96L392.13,116.51L392.37,48.08L392.86,61.49L393.11,75.7L393.6,129.26L394.09,122.11L394.33,119.24L394.58,50.25L394.82,87.59L395.07,136.16L395.55,169.35L395.8,77.48L396.04,156.86L396.78,79.83L397.02,92.96L397.27,93.41L397.51,136.6L398,127.39L398.25,79.05L399.47,156.94L399.71,119.03L399.96,96.46L400.2,124.3L400.45,102.48L400.69,138.31L401.18,61.49L401.43,95.65L401.67,114.41L401.91,87.59L402.4,88.39L402.65,127.48L402.89,152.75L403.14,63.94L403.63,113.16L404.12,99.42L404.36,99.7L404.85,71.13L405.09,85.03L405.34,122.54L405.58,111.5L405.83,128.31L406.07,212.27L407.05,32.86L407.3,97.4L407.54,97.61L407.79,71.99L408.03,50.29L408.27,100.34L408.52,118.77L409.01,105.22L409.25,82.11L409.5,67.84L409.74,202.62L410.23,57.82L410.48,99.2L410.72,124.46L411.21,69.75L411.45,135.46L411.7,113.2L411.94,156.47L412.19,170.65L412.92,172.52L413.17,44.52L413.41,59.83L414.39,128.43L414.63,107.16L414.88,145.91L415.12,105.11L415.37,127.01L415.61,84.84L415.86,132.42L416.1,81.22L416.35,109.14L416.59,49.23L417.08,42.88L417.57,120.91L417.81,105.7L418.06,83.87L418.55,121.87L418.79,67.01L419.04,130.72L419.28,111.78L419.53,21.48L420.26,143.85L420.51,93.43L420.75,92.52L420.99,93.01L421.24,70L421.73,140.48L421.97,39.68L422.46,108.42L422.71,70.16L423.44,155.69L423.69,73.79L423.93,50.96L424.18,90.07L424.42,137.35L425.64,61.8L425.89,87.8L426.13,105.78L426.38,69.56L426.62,83.79L426.87,89.15L427.11,68L427.84,117.56L428.09,86.89L428.33,88.2L428.58,82.33L428.82,73.85L429.07,110.39L429.31,107.51L429.56,110.15L429.8,53.8L430.05,123.83L430.54,102.23L430.78,109.35L431.02,49.8L431.27,70.68L431.51,142.39L431.76,144.64L432,134.39L432.25,54L432.74,85.17L432.98,66.93L433.47,50.02L433.96,98.72L434.2,61.57L434.94,123L435.18,98.53L435.67,90.3L435.92,71.09L436.16,94.12L436.41,60.21L436.65,93.31L436.9,57.57L437.87,166.31L438.12,26.37L438.85,148.51L439.1,85.49L439.34,105.22L440.32,61.19L440.56,113.3L441.05,128.15L441.3,88.42L441.79,66.24L442.03,105.96L442.52,83.79L442.77,105.97L443.01,64.17L443.26,86.53L443.5,114.05L444.23,63.96L444.48,100.89L444.97,145.43L445.21,40.76L445.7,24.19L446.19,110.68L446.44,93.88L446.68,121.65L447.17,94.39L447.41,76.29L447.66,51.53L447.9,68.17L448.15,96.45L448.39,113.45L448.64,50.59L449.13,120.2L449.62,92.55L449.86,31.86L450.84,116.82L451.08,79.04L451.33,69.63L451.57,93.29L451.82,112L452.06,96.49L452.31,69.79L452.8,44.12L453.04,76.52L453.53,149.59L453.77,50.1L454.26,123.95L454.51,96.27L454.75,72.21L455,77.11L455.24,73.04L455.49,45.89L456.22,149.09L456.47,82.86L456.71,91.42L456.95,89.17L457.2,103.57L457.44,99.47L457.69,115.93L457.93,46.33L458.18,101.66L458.42,130.82L458.91,102.52L459.16,118.92L459.4,65.83L459.65,75.07L459.89,65.4L460.13,39.57L461.11,118.85L461.36,67.89L461.6,31.32L461.85,112.62L462.09,82.56L462.34,137.63L462.58,182.78L463.07,69.43L463.56,102.3L463.8,126.25L464.78,59.08L465.03,65.21L465.27,90.55L466.01,78.75L466.25,105.41L466.49,119.17L466.74,86.48L466.98,102.57L467.23,99.29L467.47,56.17L468.45,127.87L468.7,78.1L468.94,49.96L469.19,92.73L469.43,64.34L469.67,64.05L469.92,76.23L470.16,68.32L470.41,185.16L471.14,90.67L471.39,100.77L471.63,159.29L472.37,33.55L472.61,98.85L472.85,113.07L473.1,61.17L473.59,61.96L473.83,104.91L474.08,107.76L474.32,72.58L474.81,116.99L475.06,77.25L475.3,61.83L475.55,86.53L475.79,74.43L476.04,101.63L476.28,82.66L476.52,100.87L476.77,173.43L477.01,211.78L477.26,28.8L478.24,125.39L478.48,84.77L478.97,68.89L479.22,81.28L479.46,91.41L479.95,119.7L480.44,40.09L480.68,52.58L480.93,100.88L481.42,80.89L481.66,64.88L482.15,103.77L482.4,97.71L482.64,78.46L482.88,90.18L483.13,81.25L483.37,54.63L484.11,174.96L484.35,88.74L484.84,71.18L485.09,109.48L485.33,65.13L485.58,67.77L485.82,109.67L486.06,140.69L486.31,43.43L486.55,173.35L487.04,116.46L487.29,80.41L487.78,55.74L488.02,16.5L489,90.99"/></g><g class="points"/><g class="text"/></g></g></g><g class="overplot"/><path class="xlines-above crisp" style="fill: none;" d="M0,0"/><path class="ylines-above crisp" style="fill: none;" d="M0,0"/><g class="overlines-above"/><g class="xaxislayer-above"><g class="xtick"><text text-anchor="middle" x="0" y="403" style="font-family: TOBESTRIPPEDOpen SansTOBESTRIPPED, verdana, arial, sans-serif; font-size: 12px; fill: rgb(68, 68, 68); fill-opacity: 1; white-space: pre;" transform="translate(179.62,0)">50</text></g><g class="xtick"><text text-anchor="middle" x="0" y="403" style="font-family: TOBESTRIPPEDOpen SansTOBESTRIPPED, verdana, arial, sans-serif; font-size: 12px; fill: rgb(68, 68, 68); fill-opacity: 1; white-space: pre;" transform="translate(301.93,0)">100</text></g><g class="xtick"><text text-anchor="middle" x="0" y="403" style="font-family: TOBESTRIPPEDOpen SansTOBESTRIPPED, verdana, arial, sans-serif; font-size: 12px; fill: rgb(68, 68, 68); fill-opacity: 1; white-space: pre;" transform="translate(424.24,0)">150</text></g><g class="xtick"><text text-anchor="middle" x="0" y="403" style="font-family: TOBESTRIPPEDOpen SansTOBESTRIPPED, verdana, arial, sans-serif; font-size: 12px; fill: rgb(68, 68, 68); fill-opacity: 1; white-space: pre;" transform="translate(546.55,0)">200</text></g></g><g class="yaxislayer-above"><g class="ytick"><text text-anchor="end" x="59" y="4.199999999999999" style="font-family: TOBESTRIPPEDOpen SansTOBESTRIPPED, verdana, arial, sans-serif; font-size: 12px; fill: rgb(68, 68, 68); fill-opacity: 1; white-space: pre;" transform="translate(0,373.06)">5</text></g><g class="ytick"><text text-anchor="end" x="59" y="4.199999999999999" style="font-family: TOBESTRIPPEDOpen SansTOBESTRIPPED, verdana, arial, sans-serif; font-size: 12px; fill: rgb(68, 68, 68); fill-opacity: 1; white-space: pre;" transform="translate(0,324.28)">10</text></g><g class="ytick"><text text-anchor="end" x="59" y="4.199999999999999" style="font-family: TOBESTRIPPEDOpen SansTOBESTRIPPED, verdana, arial, sans-serif; font-size: 12px; fill: rgb(68, 68, 68); fill-opacity: 1; white-space: pre;" transform="translate(0,275.5)">15</text></g><g class="ytick"><text text-anchor="end" x="59" y="4.199999999999999" style="font-family: TOBESTRIPPEDOpen SansTOBESTRIPPED, verdana, arial, sans-serif; font-size: 12px; fill: rgb(68, 68, 68); fill-opacity: 1; white-space: pre;" transform="translate(0,226.72)">20</text></g><g class="ytick"><text text-anchor="end" x="59" y="4.199999999999999" style="font-family: TOBESTRIPPEDOpen SansTOBESTRIPPED, verdana, arial, sans-serif; font-size: 12px; fill: rgb(68, 68, 68); fill-opacity: 1; white-space: pre;" transform="translate(0,177.94)">25</text></g><g class="ytick"><text text-anchor="end" x="59" y="4.199999999999999" style="font-family: TOBESTRIPPEDOpen SansTOBESTRIPPED, verdana, arial, sans-serif; font-size: 12px; fill: rgb(68, 68, 68); fill-opacity: 1; white-space: pre;" transform="translate(0,129.16)">30</text></g><g class="ytick"><text text-anchor="end" x="59" y="4.199999999999999" style="font-family: TOBESTRIPPEDOpen SansTOBESTRIPPED, verdana, arial, sans-serif; font-size: 12px; fill: rgb(68, 68, 68); fill-opacity: 1; white-space: pre;" transform="translate(0,80.38)">35</text></g></g><g class="overaxes-above"/></g></g><g class="polarlayer"/><g class="ternarylayer"/><g class="geolayer"/><g class="pielayer"/><g class="glimages"/><defs id="topdefs-070b41"><g class="clips"/><clipPath id="legend070b41"><rect width="129" height="105" x="0" y="0"/></clipPath></defs><g class="layer-above"><g class="imagelayer"/><g class="shapelayer"/></g><g class="infolayer"><g class="legend" pointer-events="all" transform="translate(558.78, 60)"><rect class="bg" shape-rendering="crispEdges" style="stroke: rgb(68, 68, 68); stroke-opacity: 1; fill: rgb(255, 255, 255); fill-opacity: 1; stroke-width: 0px;" width="129" height="105" x="0" y="0"/><g class="scrollbox" transform="translate(0, 0)" clip-path="url(#legend070b41)"><g class="groups"><g class="traces" style="opacity: 0.5;" transform="translate(0, 14.5)"><g class="layers" style="opacity: 1;"><g class="legendfill"/><g class="legendlines"><path class="js-line" d="M5,0h30" style="fill: none; stroke: rgb(31, 119, 180); stroke-opacity: 1; stroke-width: 2px;"/></g><g class="legendsymbols"><g class="legendpoints"/></g></g><text class="legendtext user-select-none" text-anchor="start" style="font-family: TOBESTRIPPEDOpen SansTOBESTRIPPED, verdana, arial, sans-serif; font-size: 12px; fill: rgb(68, 68, 68); fill-opacity: 1; white-space: pre;" x="40" y="4.680000000000001">G1</text><rect class="legendtoggle" style="cursor: pointer; fill: rgb(0, 0, 0); fill-opacity: 0;" pointer-events="all" x="0" y="-9.5" width="169" height="19"/></g><g class="traces" style="opacity: 0.5;" transform="translate(0, 33.5)"><g class="layers" style="opacity: 1;"><g class="legendfill"/><g class="legendlines"><path class="js-line" d="M5,0h30" style="fill: none; stroke: rgb(255, 127, 14); stroke-opacity: 1; stroke-width: 2px;"/></g><g class="legendsymbols"><g class="legendpoints"/></g></g><text class="legendtext user-select-none" text-anchor="start" style="font-family: TOBESTRIPPEDOpen SansTOBESTRIPPED, verdana, arial, sans-serif; font-size: 12px; fill: rgb(68, 68, 68); fill-opacity: 1; white-space: pre;" x="40" y="4.680000000000001">G2</text><rect class="legendtoggle" style="cursor: pointer; fill: rgb(0, 0, 0); fill-opacity: 0;" pointer-events="all" x="0" y="-9.5" width="169" height="19"/></g><g class="traces" style="opacity: 1;" transform="translate(0, 52.5)"><g class="layers" style="opacity: 1;"><g class="legendfill"/><g class="legendlines"><path class="js-line" d="M5,0h30" style="fill: none; stroke: rgb(44, 160, 44); stroke-opacity: 1; stroke-width: 2px;"/></g><g class="legendsymbols"><g class="legendpoints"/></g></g><text class="legendtext user-select-none" text-anchor="start" style="font-family: TOBESTRIPPEDOpen SansTOBESTRIPPED, verdana, arial, sans-serif; font-size: 12px; fill: rgb(68, 68, 68); fill-opacity: 1; white-space: pre;" x="40" y="4.680000000000001">PSNR_clean</text><rect class="legendtoggle" style="cursor: pointer; fill: rgb(0, 0, 0); fill-opacity: 0;" pointer-events="all" x="0" y="-9.5" width="169" height="19"/></g><g class="traces" style="opacity: 1;" transform="translate(0, 71.5)"><g class="layers" style="opacity: 1;"><g class="legendfill"/><g class="legendlines"><path class="js-line" d="M5,0h30" style="fill: none; stroke: rgb(214, 39, 40); stroke-opacity: 1; stroke-width: 2px;"/></g><g class="legendsymbols"><g class="legendpoints"/></g></g><text class="legendtext user-select-none" text-anchor="start" style="font-family: TOBESTRIPPEDOpen SansTOBESTRIPPED, verdana, arial, sans-serif; font-size: 12px; fill: rgb(68, 68, 68); fill-opacity: 1; white-space: pre;" x="40" y="4.680000000000001">PSNR_n2n</text><rect class="legendtoggle" style="cursor: pointer; fill: rgb(0, 0, 0); fill-opacity: 0;" pointer-events="all" x="0" y="-9.5" width="169" height="19"/></g><g class="traces" style="opacity: 0.5;" transform="translate(0, 90.5)"><g class="layers" style="opacity: 1;"><g class="legendfill"/><g class="legendlines"><path class="js-line" d="M5,0h30" style="fill: none; stroke: rgb(148, 103, 189); stroke-opacity: 1; stroke-width: 2px;"/></g><g class="legendsymbols"><g class="legendpoints"/></g></g><text class="legendtext user-select-none" text-anchor="start" style="font-family: TOBESTRIPPEDOpen SansTOBESTRIPPED, verdana, arial, sans-serif; font-size: 12px; fill: rgb(68, 68, 68); fill-opacity: 1; white-space: pre;" x="40" y="4.680000000000001">PSNR_original</text><rect class="legendtoggle" style="cursor: pointer; fill: rgb(0, 0, 0); fill-opacity: 0;" pointer-events="all" x="0" y="-9.5" width="169" height="19"/></g></g></g><rect class="scrollbar" rx="20" ry="3" width="0" height="0" style="fill: rgb(128, 139, 164); fill-opacity: 1;" x="0" y="0"/></g><g class="g-gtitle"><text class="gtitle" style="font-family: TOBESTRIPPEDOpen SansTOBESTRIPPED, verdana, arial, sans-serif; font-size: 17px; fill: rgb(68, 68, 68); opacity: 1; font-weight: normal; white-space: pre;" x="350" y="30" text-anchor="middle">not_gan_n2n loss over time</text></g><g class="g-xtitle"><text class="xtitle" style="font-family: TOBESTRIPPEDOpen SansTOBESTRIPPED, verdana, arial, sans-serif; font-size: 14px; fill: rgb(68, 68, 68); opacity: 1; font-weight: normal; white-space: pre;" x="304.5" y="442" text-anchor="middle">epoch</text></g><g class="g-ytitle"><text class="ytitle" transform="rotate(-90,22,225)" style="font-family: TOBESTRIPPEDOpen SansTOBESTRIPPED, verdana, arial, sans-serif; font-size: 14px; fill: rgb(68, 68, 68); opacity: 1; font-weight: normal; white-space: pre;" x="22" y="225" text-anchor="middle">loss</text></g></g></svg>