<svg class="main-svg" xmlns="http://www.w3.org/2000/svg" xmlns:xlink="http://www.w3.org/1999/xlink" width="700" height="450" style="" viewBox="0 0 700 450"><rect x="0" y="0" width="700" height="450" style="fill: rgb(255, 255, 255); fill-opacity: 1;"/><defs id="defs-62e903"><g class="clips"><clipPath id="clip62e903xyplot" class="plotclip"><rect width="489" height="330"/></clipPath><clipPath class="axesclip" id="clip62e903x"><rect x="60" y="0" width="489" height="450"/></clipPath><clipPath class="axesclip" id="clip62e903y"><rect x="0" y="60" width="700" height="330"/></clipPath><clipPath class="axesclip" id="clip62e903xy"><rect x="60" y="60" width="489" height="330"/></clipPath></g><g class="gradients"/></defs><g class="bglayer"><rect class="bg" x="60" y="60" width="489" height="330" style="fill: rgb(255, 255, 255); fill-opacity: 1; stroke-width: 0;"/></g><g class="layer-below"><g class="imagelayer"/><g class="shapelayer"/></g><g class="cartesianlayer"><g class="subplot xy"><g class="layer-subplot"><g class="shapelayer"/><g class="imagelayer"/></g><g class="gridlayer"><g class="x"><path class="xgrid crisp" d="M0,60v330" transform="translate(179.62,0)" style="stroke: rgb(238, 238, 238); stroke-opacity: 1; stroke-width: 1px;"/><path class="xgrid crisp" d="M0,60v330" transform="translate(301.93,0)" style="stroke: rgb(238, 238, 238); stroke-opacity: 1; stroke-width: 1px;"/><path class="xgrid crisp" d="M0,60v330" transform="translate(424.24,0)" style="stroke: rgb(238, 238, 238); stroke-opacity: 1; stroke-width: 1px;"/><path class="xgrid crisp" d="M0,60v330" transform="translate(546.55,0)" style="stroke: rgb(238, 238, 238); stroke-opacity: 1; stroke-width: 1px;"/></g><g class="y"><path class="ygrid crisp" d="M60,0h489" transform="translate(0,352.8)" style="stroke: rgb(238, 238, 238); stroke-opacity: 1; stroke-width: 1px;"/><path class="ygrid crisp" d="M60,0h489" transform="translate(0,269.35)" style="stroke: rgb(238, 238, 238); stroke-opacity: 1; stroke-width: 1px;"/><path class="ygrid crisp" d="M60,0h489" transform="translate(0,185.9)" style="stroke: rgb(238, 238, 238); stroke-opacity: 1; stroke-width: 1px;"/><path class="ygrid crisp" d="M60,0h489" transform="translate(0,102.45)" style="stroke: rgb(238, 238, 238); stroke-opacity: 1; stroke-width: 1px;"/></g></g><g class="zerolinelayer"/><path class="xlines-below"/><path class="ylines-below"/><g class="overlines-below"/><g class="xaxislayer-below"/><g class="yaxislayer-below"/><g class="overaxes-below"/><g class="plot" transform="translate(60, 60)" clip-path="url(#clip62e903xyplot)"><g class="scatterlayer mlayer"><g class="trace scatter tracece266d" style="stroke-miterlimit: 2; opacity: 1;"><g class="fills"/><g class="errorbars"/><g class="lines"><path class="js-line" style="vector-effect: non-scaling-stroke; fill: none; stroke: rgb(44, 160, 44); stroke-opacity: 1; stroke-width: 2px; opacity: 1;" d="M0,229.1L0.24,224.72L0.49,187.51L0.73,208.76L1.22,189.68L1.47,183.55L1.71,168.16L1.96,169.52L2.2,216.29L2.45,145.73L2.94,167.55L3.18,183.13L3.67,185.76L3.91,165.88L4.16,175.23L4.65,153.42L4.89,166.1L5.14,167.76L5.38,157.43L5.63,185.5L5.87,179.4L6.12,179.8L6.36,130.53L6.6,188.6L7.09,134.95L7.34,139.91L7.83,133.82L8.07,181.61L8.32,146.64L8.56,109.48L9.05,134.57L9.3,153.27L9.54,126.01L9.78,175.81L10.03,155.26L10.27,149.33L11.25,107.01L11.5,135.17L12.72,172.94L12.96,164.14L13.21,144.82L13.45,144.01L13.7,173.3L14.19,128.06L14.68,138.37L14.92,159.86L15.17,167.92L15.41,139.06L15.9,154.88L16.15,137.76L16.63,157.9L16.88,142.05L17.12,98L18.1,191.12L18.35,134.48L18.84,162.43L19.08,153.56L19.33,110.47L20.3,152.98L20.55,130.48L20.79,105.08L21.04,183.93L21.53,104.29L22.02,135.49L22.26,107.68L22.51,175.21L22.99,108.23L23.24,94.36L24.22,144.28L24.46,128.3L24.71,141.34L24.95,122.02L25.2,131.36L25.44,97.14L25.69,160.03L26.17,147.37L26.42,114.25L26.91,110.61L27.4,135.88L27.64,137.79L28.62,103.37L28.87,125.71L29.35,126.77L29.6,124.4L29.84,166.57L30.09,108.87L30.33,133.77L30.58,158.69L31.56,127.55L31.8,151.96L32.05,164.63L32.29,121.63L33.27,99.33L33.51,110.72L33.76,77.29L34,122.77L34.25,103.25L34.49,124.06L34.74,137.43L34.98,122.8L35.23,126.06L35.47,127.03L36.45,111.65L36.69,147.42L36.94,140.47L37.18,89.96L37.92,151.4L38.16,109.62L38.89,157.67L39.14,151.45L39.38,141.78L40.61,107.44L40.85,108.9L41.1,140.12L41.34,93.93L41.83,125.3L42.08,133.61L42.32,143.74L42.56,121.13L43.05,147.19L43.3,118.59L43.54,116.28L43.79,164.01L44.52,93.61L44.77,126L45.01,100.84L45.26,140.17L45.5,89.86L45.74,125.67L45.99,115.25L46.23,142.23L46.48,88.84L46.72,132.67L46.97,125.13L47.21,92.07L47.46,150.01L47.7,120.36L47.95,138.6L48.19,100.73L48.68,128.32L48.92,106.61L49.41,138.79L49.66,129.16L49.9,129.72L50.15,170.19L50.39,100.15L50.64,116.83L50.88,65.94L51.13,128.55L51.37,116.07L51.62,173.59L52.59,113.52L52.84,113.62L53.08,139.46L53.33,96.79L53.57,115.35L53.82,114.27L54.31,117.19L54.55,69.88L54.8,134.54L55.28,133.06L55.53,112.68L55.77,99.86L56.02,154.57L56.51,128.04L56.75,135.55L57,161.88L57.98,98.02L58.22,155.62L58.46,104.84L58.95,123.64L59.2,111.14L59.44,139.92L59.69,111.18L59.93,70.92L60.42,121.56L60.91,116.21L61.16,134.4L61.4,134.55L61.64,75.96L61.89,150.3L62.38,131.37L62.62,76.71L63.11,116.37L63.36,108.13L63.6,99.11L63.85,76.22L64.09,80.7L64.34,124.22L64.58,102.57L64.82,133.94L65.07,130.79L65.56,68.72L65.8,92.48L66.05,96.06L66.29,137.99L66.78,126.32L67.03,133.28L67.76,134.18L68.01,84.77L68.25,125.19L68.74,133.56L68.98,104.02L69.23,173.84L69.96,129.41L70.21,149.17L70.45,152.94L70.7,125.65L70.94,142.18L71.19,132.91L71.43,119.53L71.67,135.47L71.92,120.51L72.16,115L72.9,99.77L73.14,102.07L73.39,117.32L74.12,140.7L74.37,134.27L74.61,86.73L75.34,110.09L75.59,100.22L75.83,90.08L76.08,108.38L76.32,116.62L76.57,140.67L76.81,125.66L77.06,97.8L77.55,132.74L78.03,131.08L78.28,97.4L78.52,92.33L78.77,97.24L79.01,132.93L79.26,69.91L79.75,115.53L79.99,112L80.24,133.43L80.48,81.58L81.7,139.86L81.95,109.5L82.68,76.01L82.93,94.31L83.17,124.2L83.66,107.12L83.91,97.81L84.15,139.08L84.39,81.99L84.64,103.31L84.88,115.32L85.13,111.45L85.37,68.51L85.62,141.17L86.11,92.45L86.35,119.78L86.6,92.34L86.84,103.45L87.09,135.2L87.33,89.24L87.57,97.65L87.82,141.04L88.31,124.15L88.55,84.15L89.29,120.5L89.53,90.6L89.78,77.72L90.02,103.97L90.27,139.2L91.24,93.19L91.49,100.54L91.73,136.87L92.22,111.17L92.47,108.29L92.71,154.71L92.96,93.78L93.2,108.44L93.45,92.68L93.93,135.56L94.18,72.71L94.91,129.05L95.16,105.54L95.4,156.18L95.65,91.68L95.89,100L96.14,94.8L96.38,120.05L96.63,92.68L96.87,110.71L97.12,138.2L97.36,85.59L97.6,99.74L97.85,168.95L99.07,89.36L99.32,174.96L100.05,88.43L100.3,89.45L100.54,79.71L101.52,120.48L101.76,113.11L102.01,91.07L102.25,141.74L102.5,98.14L102.99,111.17L103.23,114.15L103.48,137.4L103.96,124.5L104.21,99.63L104.45,102.95L104.7,76.45L105.92,173.32L106.17,102.38L106.9,144.28L107.14,97.61L107.39,115.21L107.63,63.86L108.61,129.86L108.86,104.11L109.59,73.48L109.84,122.76L110.08,126.54L110.32,107.58L110.81,149.07L111.06,124.87L111.3,144.79L111.55,61.97L112.53,147.32L112.77,89.89L113.02,71.33L113.26,146.61L113.99,76.42L114.24,142.88L114.97,104.17L115.22,117.31L115.71,121.83L116.2,96.32L116.44,115.92L116.68,124.83L116.93,118.6L117.17,87.62L117.42,87.05L117.66,92.54L117.91,70.94L118.15,82.63L118.4,140.61L119.38,84.62L119.62,108.63L119.86,84.37L120.11,102.27L120.35,122.34L120.6,116.54L120.84,87.58L121.09,129.5L121.33,73.93L121.58,95.34L121.82,99.08L122.07,68.13L122.31,133.2L123.29,71.13L123.53,117.32L123.78,122.81L124.02,121.17L124.27,105.93L124.51,119.97L124.76,111.63L125,98.96L125.49,134.45L125.74,83.94L125.98,136.75L126.23,76.09L126.47,94.38L126.71,82.97L126.96,82.58L127.2,101.9L127.45,107.24L127.69,136.05L128.92,70.5L129.16,128.26L130.14,100.31L130.38,115.01L130.63,81.67L131.12,102.23L131.36,93.97L131.85,74.12L132.1,125.37L133.32,84.4L133.56,121.21L134.3,96.71L134.54,110.05L135.03,92.36L135.28,114.05L135.52,98.97L136.01,112.12L136.25,105.84L136.5,89.13L136.74,89.35L136.99,107.74L137.23,125.89L137.72,120.19L137.97,92.85L138.46,58.84L138.7,121.45L138.95,119.87L139.19,145.43L139.92,98.64L140.17,116.55L140.41,95.18L140.66,144.9L140.9,97.79L141.39,113.83L141.64,102.64L141.88,101.51L142.13,106.56L142.37,111.96L142.61,87.39L142.86,134.34L143.1,83.03L143.35,124.67L143.59,116.1L144.08,90.94L144.33,107.2L144.57,109.01L145.06,75.67L145.31,89.85L145.55,92.02L145.79,108.71L146.04,97.34L146.28,66.57L146.77,95.83L147.02,63.46L147.51,98.68L147.75,117.65L148,118.95L148.24,72.05L148.49,70.76L148.73,112.99L148.97,67.59L149.22,102.92L149.46,127.52L149.71,129.16L149.95,93.68L150.2,122.51L150.69,112.53L150.93,115.25L151.42,63.54L151.67,104.43L152.16,78.73L152.4,86.64L152.64,95.79L152.89,79.88L153.13,105.81L153.38,101.13L153.87,92.94L154.11,124.21L154.85,76.8L155.09,98.2L155.58,76.88L155.82,94.84L156.07,90.16L156.31,73.45L156.56,104.66L156.8,119.38L157.05,123.09L157.29,99.37L157.54,131.47L158.03,119.64L158.27,75.46L159.25,140.6L159.49,71.36L159.74,84.61L159.98,149.82L160.47,76.8L160.96,96.58L161.21,109.4L161.94,148.99L162.18,141.65L162.43,68.7L162.67,122.33L163.16,105.6L163.41,103.29L163.65,100.26L163.9,112.23L164.14,122.24L164.39,97.96L164.63,99.81L164.88,53.04L165.36,150.27L165.61,114.21L165.85,103.13L166.34,93.11L166.83,129.5L167.08,95.8L167.32,128.28L167.81,104L168.06,99.58L168.3,146.86L168.54,90.5L168.79,91.59L169.03,101.07L169.28,72.5L169.52,121.07L169.77,115.17L170.01,67.75L171.24,138.21L171.48,104.72L171.72,74.17L171.97,163.86L172.46,93.89L172.7,119.28L172.95,112.59L173.19,140.27L173.44,89.73L173.68,94.2L174.9,78.91L175.15,85.53L175.64,115.03L175.88,97.54L176.13,88.99L177.35,140.59L177.6,97.75L177.84,128.93L178.09,65.08L178.33,114.28L178.57,63.02L179.06,115.05L179.55,104.01L179.8,93.09L180.04,96.25L180.29,79.41L180.53,64.05L180.78,124.81L181.02,83.29L181.75,86.33L182,94.16L182.24,120.06L182.49,85.71L182.73,85.59L182.98,73.63L183.22,114.74L183.47,94.25L183.96,105.1L184.2,112.78L184.45,79.67L184.93,110.4L185.18,88.44L185.42,59.7L185.67,120.22L185.91,115.63L186.16,69.54L186.4,136.45L186.89,94.45L187.14,109.19L187.38,79.24L187.63,106.05L187.87,127.3L188.36,62.96L188.6,74.41L188.85,112.28L189.09,116.43L189.34,77.37L190.07,119.17L190.32,108.57L190.56,82.87L190.81,93.8L191.05,70.65L191.54,114.41L191.78,91.45L192.03,70.73L192.27,140.72L192.52,64.07L192.76,122.28L193.01,63.26L194.23,135.32L194.47,100.65L194.96,98.03L195.21,103.7L195.45,136.87L196.19,78.25L196.43,91.93L196.68,96.59L196.92,59.7L197.17,85.91L197.41,102.71L197.65,115.32L197.9,100.71L198.14,73.29L198.63,117.87L198.88,108.81L199.12,100.8L199.37,56.74L199.61,105.94L199.86,118.85L200.59,77.57L200.83,105.16L201.08,79.24L201.57,91.2L201.81,94.45L202.06,91.91L202.3,106.43L202.55,148.2L202.79,79.64L203.04,65.31L203.53,127.02L203.77,79.52L204.02,64.17L204.75,121.47L205.24,104.27L205.48,116.96L205.73,117.84L205.97,78.42L206.46,113.64L206.95,102.5L207.2,102.58L207.44,98.48L207.68,117.13L207.93,88.56L208.42,90.54L208.66,131.41L209.4,92.47L209.64,106.7L209.89,66.16L210.38,92.97L210.62,91.97L210.86,99.81L211.11,99.01L211.35,65.24L211.6,57.77L211.84,102.7L212.09,114.64L212.33,64.37L212.58,146.39L213.07,93.19L213.31,113.53L213.56,106.67L213.8,78.03L214.29,70.98L214.78,110.83L215.02,96.11L215.27,62.32L215.51,91.36L215.76,108.3L216,96.37L216.25,119.27L216.49,115.58L216.74,127.31L216.98,76.56L217.71,134.11L217.96,95.34L218.2,85.83L218.45,97.8L218.69,135.71L219.18,79.7L219.43,130.7L219.67,123.23L219.92,129.13L220.16,106L220.89,57.08L221.14,86.31L221.63,80.27L221.87,117.94L222.12,73.17L222.85,91.6L223.1,121.63L223.83,72.36L224.07,90.92L224.32,124.66L224.56,69.72L225.05,85.44L225.3,90.25L225.79,114.37L226.03,64.64L226.52,130.16L227.01,128.31L227.25,62L228.23,114.4L228.48,90.16L228.72,114.36L228.97,55.57L229.46,103.59L229.94,99.92L230.19,84.5L230.43,91.22L230.68,68.45L230.92,123.7L231.41,71.85L231.66,101.24L231.9,102.47L232.15,109.96L232.39,81.91L232.88,90.03L233.13,93.39L233.37,113.94L233.61,313.5L234.59,98.55L234.84,115.6L235.08,137.3L235.33,136.19L235.57,89L235.82,140.38L236.31,110.2L236.55,89L237.28,142.53L237.53,99.37L237.77,95.67L238.02,113.22L238.51,121.48L239,77.38L239.24,74.48L239.73,73.08L240.22,122.42L240.46,98.97L240.71,69.68L240.95,119.9L241.2,128.7L241.93,85.96L242.18,92.12L242.42,96.64L242.91,122.99L243.15,119.41L243.4,98.46L243.89,119.97L244.13,96.68L244.38,92.28L244.62,68.97L244.87,132.55L245.36,87.14L245.6,89.57L245.85,115.7L246.33,114.78L246.58,63.45L247.56,109.06L247.8,103.14L248.54,61.76L248.78,78.98L249.03,97.51L249.27,46.57L249.76,93.29L250.25,90.93L250.49,90.65L250.74,70.73L250.98,74.49L251.23,108.01L251.47,103.8L251.72,110.18L251.96,89L252.45,133.64L252.69,100.25L252.94,109.74L253.18,61.97L253.43,133.95L253.67,124.79L254.16,64.2L254.65,72.44L254.9,106.98L255.39,76.71L255.63,79.77L255.87,96.29L256.36,90.83L256.61,103.51L256.85,70.48L257.34,104.14L257.59,102.12L257.83,117L258.08,65.81L259.06,111.55L259.3,101.23L259.54,62.88L259.79,116.83L260.03,122.47L260.52,81.58L260.77,84.75L261.01,99.6L261.26,99.67L261.5,74.42L261.99,95.99L262.24,81.87L262.48,77.45L262.97,98.89L263.21,77.42L263.46,87.14L263.7,74.68L263.95,99.12L264.19,88.08L264.44,137.15L265.42,80.63L265.66,80.23L265.9,116.33L266.39,90.83L266.64,87.99L266.88,118.34L267.13,101.47L267.37,59.37L267.62,113.37L268.11,108.69L268.35,102.77L268.6,115.01L268.84,59.9L269.08,85.34L269.57,79.82L269.82,60.28L270.31,129.78L270.8,118.49L271.04,101.78L271.29,66.69L271.53,114.38L271.78,111.65L272.02,76.77L272.26,151.73L273.24,94.51L273.49,82.14L273.73,80.27L273.98,110.75L274.47,78.38L274.71,99.19L274.96,101.66L275.2,77.48L275.69,86.93L275.93,95.15L276.18,110.42L276.42,74.3L276.67,58.7L276.91,78.65L277.16,98.58L277.65,110.61L278.14,70.05L278.38,83.99L278.62,115.56L278.87,79.04L279.11,74.46L279.85,113.81L280.09,84.81L280.34,93.87L280.58,70.82L281.07,62.66L281.32,89.01L281.56,93.76L281.8,63.72L282.05,102.36L282.29,63.27L282.54,89.41L282.78,82.31L283.03,72.65L283.27,100.74L283.52,107.41L283.76,76.73L284.01,134.28L284.5,103.67L284.74,95.12L284.98,119.51L285.47,100.25L285.72,96.05L286.45,69.24L286.7,110.36L287.19,121.42L287.68,59.68L287.92,80.05L288.17,115.83L288.41,78.8L288.65,96.4L288.9,63.51L289.63,110.16L289.88,100.39L290.12,108.68L290.37,104.94L290.61,65.85L291.1,64.57L291.59,103.7L291.83,95.49L292.08,98.8L292.32,89.58L292.81,92.22L293.06,74.6L293.3,106.88L293.55,107.36L293.79,81.98L294.53,99.45L294.77,98.34L295.01,66.81L295.26,92.58L295.5,82.25L295.75,55.19L296.24,115.6L296.48,106.9L296.73,88.73L296.97,112.04L297.46,89.64L297.71,91.7L297.95,118.23L298.19,84.31L298.44,41.85L298.93,104.09L299.42,95.41L299.66,64.08L299.91,97.62L300.4,66.11L300.64,82.22L300.89,64.39L301.13,106.87L301.86,73.42L302.11,99.96L302.35,102.6L302.6,87.44L303.58,62.17L303.82,80.87L304.07,82.18L304.31,89.5L304.55,89.62L304.8,107L305.04,125.18L305.29,95.4L305.53,79.6L305.78,120.38L306.27,90.17L306.51,79.08L307,63.88L307.25,119.39L307.49,74.18L307.98,107.25L308.22,84.64L308.47,76.16L308.71,104.03L309.69,68.97L309.94,74.42L310.43,117.64L310.67,85.21L310.91,55.72L311.4,131.82L311.65,90.16L311.89,69.95L312.38,105.14L312.63,86.19L312.87,85.85L313.12,54.88L313.36,100.28L313.61,85.46L313.85,111.87L314.1,35.38L314.58,93.49L314.83,81.06L315.07,53.93L315.32,95.33L315.56,74.65L315.81,108.15L316.3,72.61L316.54,109.86L316.79,114.5L317.03,76.52L317.28,111.62L317.52,70.69L317.76,96.26L318.01,68.83L318.5,95.5L318.74,43.68L318.99,110.25L319.48,80.52L319.72,97.5L319.97,54.31L320.21,93.5L320.46,102.12L320.94,55.85L321.19,80.71L321.43,94.64L321.68,132.84L321.92,113.66L322.17,46.75L323.15,110.89L323.39,86.1L323.64,92.14L323.88,87.78L324.12,83.31L324.37,77.36L324.61,93.33L324.86,96.9L325.1,128.12L325.35,81.96L325.84,110.84L326.08,106.23L326.57,76.05L327.06,81.35L327.3,102.47L327.55,68.01L328.04,80.53L328.28,114.98L329.02,53.89L329.26,118.58L330,63.92L330.24,110.53L330.73,66.51L331.22,71.25L331.46,71.03L331.71,52.22L331.95,92.63L332.2,115.03L332.44,103.72L332.69,75.58L332.93,57.9L333.42,69.37L333.66,69.2L334.15,114.01L334.4,101.51L334.64,74.36L335.62,115.61L335.87,66.58L336.11,68.33L336.36,78.61L337.09,109.87L337.33,69.29L337.58,60.49L337.82,122.56L338.07,62.07L338.56,78.36L338.8,76.93L339.05,100.87L339.29,71.68L339.54,49.1L340.27,98.87L340.51,87.17L340.76,52.89L341.25,115.71L341.49,75.44L341.74,82.41L341.98,88.11L342.23,118.35L342.47,62.61L342.96,89.29L343.21,106.38L343.45,37.79L343.69,108.15L343.94,102.34L344.18,68.41L344.67,59.43L345.16,118.71L345.41,78.18L345.9,127.99L346.14,92.03L346.39,100.24L346.63,27.73L347.12,94.58L347.36,56.52L347.61,93.22L347.85,78.7L348.1,43.49L348.34,121.4L348.83,88.56L349.08,74.76L349.32,124.92L349.81,84.3L350.05,104.63L350.3,87.66L350.79,92.82L351.03,109.39L351.52,67.67L351.77,115.53L352.01,45.56L352.5,86.96L352.75,128.1L353.97,60.28L354.21,75.58L354.7,117.2L354.95,85.2L355.19,69.05L355.44,120.36L355.93,65.42L356.17,72.99L356.41,89.14L356.66,89.61L356.9,133.43L358.13,62.28L358.37,79.1L358.62,117.7L358.86,88L359.11,74.23L359.35,96.71L359.84,95.09L360.08,80.2L360.33,104.18L360.57,43.25L361.31,110.08L361.55,71.03L361.8,79.16L362.53,122.12L362.77,108.31L363.02,74.12L363.75,120.73L364,81.49L364.24,100.41L364.49,67.41L364.73,79.53L364.98,87.14L365.22,84.57L365.47,70.68L366.69,113.4L366.93,60.67L367.91,91.39L368.16,67.82L369.14,127.41L369.38,92.59L369.62,73.04L369.87,118.35L370.85,89.45L371.09,98.63L371.34,67.66L371.58,111.79L371.83,110.64L372.07,45.11L372.32,71.15L372.56,123.57L373.05,62.98L373.29,118.12L373.54,83.57L373.78,90.49L374.03,78.66L374.27,120.69L375.01,65.03L375.25,75.87L375.5,79.61L375.74,64.29L375.98,97.88L376.23,113.63L376.47,40.24L377.45,98.21L377.7,107.78L378.43,57.72L378.92,72.11L379.16,102.79L380.14,74.23L380.39,75.66L380.63,114.61L381.12,78.7L381.37,90.47L381.61,87.86L381.86,131.71L382.1,57.78L382.59,86.21L382.83,90.88L383.08,73.42L383.32,114.08L384.06,81.93L384.3,94.84L384.79,139.91L385.04,84.32L385.28,75.48L385.52,117.42L385.77,127.43L386.01,74.45L386.26,59.46L386.5,65.08L386.75,81.62L386.99,70.35L387.24,88.92L387.48,92.88L387.73,114.05L387.97,82.89L388.22,103.45L388.46,67.7L388.7,114.83L389.19,80.51L389.44,71.81L389.68,70.24L389.93,95.28L390.42,58.29L390.66,97.19L390.91,77.5L391.64,108.36L391.88,104.57L392.13,16.5L392.62,118.16L392.86,65.77L393.11,61.54L393.6,80.01L393.84,43.91L394.33,105.97L394.82,90.92L395.07,59.39L395.31,111.08L395.8,85.42L396.04,93.93L396.78,41.29L397.02,83.1L397.27,111.09L397.51,105.25L397.76,74.98L398.73,113.08L398.98,104.48L399.22,106.9L399.47,87.63L399.71,112.62L400.2,106.78L400.45,76.6L401.18,75.24L401.43,108.85L401.67,52.81L402.4,81.9L402.65,61.46L403.14,95.99L403.38,91.1L403.63,61.36L403.87,116.85L404.36,67.8L404.61,43.63L405.58,118.21L405.83,77.97L406.07,50.69L406.32,83.28L406.56,96.22L406.81,88.72L407.05,58.8L407.3,114.53L407.79,82.25L408.03,74.66L408.52,64.06L409.01,116.59L409.25,63.25L409.74,112.49L410.23,95.34L410.48,82.88L411.45,94.82L411.7,71.64L411.94,119.19L412.43,68.69L412.68,63.95L412.92,89.61L413.41,69.83L413.66,80.27L413.9,85.03L414.15,48.3L414.39,56.17L414.63,95.63L414.88,58.54L415.37,60.71L415.61,88.66L415.86,91.81L416.1,68.12L416.59,115.44L417.08,101.54L417.33,64.76L417.81,89.76L418.06,67.85L418.3,65.12L419.28,107.54L419.53,90.53L420.02,51.17L420.51,58.09L420.75,61.85L421.24,93.73L421.48,47.84L422.46,103.23L422.71,81.46L422.95,87.59L423.2,114.26L423.44,45.1L423.93,50.02L424.18,66.86L424.42,54.96L424.66,97.93L425.15,48.42L425.64,49.73L425.89,98.72L426.38,51.38L426.62,78.87L426.87,95.64L427.84,36.09L428.09,78.66L428.33,104.43L428.58,86.53L428.82,70.31L429.07,76.19L429.31,33.3L429.56,92.96L430.05,61.35L430.29,85.41L430.54,110.03L430.78,78.69L431.02,82.38L431.27,72.66L431.51,110.89L432.25,33.41L432.49,89.47L432.74,95.47L432.98,57.14L433.23,115.36L433.72,72.85L433.96,92.81L434.2,89.79L434.45,101.75L435.18,78.9L435.43,98.05L435.92,53.58L436.41,70.24L436.65,104.22L437.63,71.28L437.87,74.47L438.12,93.83L438.36,88.86L438.61,100.33L438.85,59.75L439.34,95.05L439.59,73.04L439.83,68.43L440.32,70.66L440.56,103.33L440.81,111.39L441.05,94.59L441.3,59.74L441.54,92.07L441.79,107.98L442.52,35.53L442.77,130.67L443.26,55.57L443.5,116.86L443.74,108.24L444.48,53.74L444.72,96.17L445.21,87.93L445.46,91.61L445.7,70.83L445.95,71.04L446.19,57.48L446.44,29.55L446.68,85.81L446.92,60.67L447.66,98.08L447.9,96.58L448.15,89.25L448.39,101.78L448.88,91.27L449.13,89.12L449.37,46.6L449.86,85.52L450.11,95.02L450.35,38.86L450.59,108.97L450.84,83.78L451.08,80.04L451.33,78.99L451.57,72.55L451.82,53.62L452.06,91.25L452.31,90.82L452.8,74.2L453.04,58.46L453.29,58.87L453.53,84.5L453.77,79.09L454.02,115L454.26,48.4L454.75,89.24L455,101.64L455.49,86.39L455.73,107.06L455.98,65.3L456.47,70.16L456.71,89.85L456.95,114.48L457.2,62.84L457.44,67.99L457.69,109.92L457.93,84.26L458.42,94.14L458.67,111.93L458.91,88.47L459.4,89.09L459.65,110.5L459.89,38.02L460.38,84.69L460.62,100.57L461.6,65.55L461.85,111.66L462.09,99.64L462.34,48.16L463.07,133.45L463.31,93.54L463.56,86.6L463.8,84.15L464.05,88.25L464.29,77.35L464.54,101.87L464.78,83.98L465.03,72.37L466.01,115.96L466.25,62.06L466.98,109.9L467.23,80.78L467.47,63.27L467.96,80.2L468.21,92.97L468.45,52.98L468.7,102.33L468.94,77.3L469.19,90.99L469.43,58.35L469.92,86.21L470.16,90.78L471.39,62.79L471.63,66.24L471.88,84.73L472.37,72.18L472.61,76.9L472.85,62.2L473.1,77.21L473.34,81.64L474.08,50.49L474.32,70.91L474.57,62.67L474.81,94.56L475.06,115.67L475.3,80.39L475.55,106.52L475.79,108.1L476.04,113.65L476.28,64.72L476.52,52.28L476.77,97.1L477.01,102.24L477.26,84.35L477.5,122.52L477.75,93.61L477.99,69.87L478.48,101.15L478.73,61.21L479.95,100.33L480.19,70L480.44,91.7L480.93,85.87L481.17,84.48L482.15,52.86L482.4,60.33L482.64,49.23L482.88,102.13L483.13,115.11L483.37,78.34L483.62,88.01L483.86,61.95L484.6,114.83L484.84,62.56L485.33,106.66L485.58,87.63L485.82,63.75L486.55,101.48L486.8,88.32L487.04,75.28L487.29,77.44L487.53,74L487.78,89L488.02,116.08L488.27,70.11L488.51,73.46L488.76,62.74L489,66.22"/></g><g class="points"/><g class="text"/></g><g class="trace scatter trace95e13b" style="stroke-miterlimit: 2; opacity: 1;"><g class="fills"/><g class="errorbars"/><g class="lines"><path class="js-line" style="vector-effect: non-scaling-stroke; fill: none; stroke: rgb(214, 39, 40); stroke-opacity: 1; stroke-width: 2px; opacity: 1;" d="M0,218.56L0.24,235.05L0.49,173.29L0.98,249.75L1.47,245.89L1.71,236.84L2.2,283.7L2.69,178.26L2.94,242.52L3.18,249.63L3.42,232.46L3.91,220.33L4.16,257.37L4.4,236.53L4.65,160.53L4.89,213.62L5.14,249.7L5.38,226.84L5.87,234.39L6.12,235.34L6.6,244.33L7.09,173.2L7.34,175.6L7.58,233.33L8.07,199.84L8.32,220.93L8.56,177.92L9.05,214.37L9.3,241.57L9.78,174.92L10.03,195.08L10.27,244.81L10.76,155.14L11.25,165.13L11.5,213.3L11.74,225.17L11.99,222.06L12.23,157.65L12.96,252.67L13.21,188.48L13.45,201.13L13.7,255.49L15.17,156.24L15.41,223.17L15.66,212.62L15.9,233.49L16.15,215.19L16.39,169.65L16.63,219.35L17.12,184.05L17.37,200.13L17.61,196.58L17.86,199.51L18.1,255.28L19.33,152.31L19.57,222.11L20.55,161.59L20.79,216.07L21.04,262.36L21.28,203.89L21.53,207.22L21.77,214.13L22.02,174.04L22.26,181.44L22.51,234.2L22.99,152.6L23.24,220.4L23.48,218.39L24.22,174.23L24.46,176.12L24.71,221.94L24.95,211.25L25.2,231.66L25.44,161.91L26.42,235.58L26.66,194.96L26.91,176.96L27.15,215.84L27.4,211.91L27.64,180.1L27.89,190.48L28.13,170.33L28.38,216.57L28.62,211.56L28.87,185.62L29.84,241.34L30.09,175.89L30.58,221.01L30.82,201.93L31.07,199.58L31.31,173.64L31.8,201.5L32.05,248.99L33.02,178.08L33.27,218.63L33.76,121.86L34,221.8L34.25,177.54L34.74,213.6L34.98,188.29L35.23,217.69L35.47,197.73L35.71,178.3L35.96,195.26L36.2,161.54L36.45,166.23L36.69,209.05L36.94,186.03L37.18,159.25L37.92,223.61L38.16,202.34L38.41,220.51L38.65,182.35L39.14,208.72L39.38,235.33L40.36,198.7L40.61,204.83L40.85,151.03L41.1,217.54L41.34,201.52L41.59,183.25L42.81,246.58L43.05,213.42L43.54,148.98L43.79,251.58L44.03,164.91L44.52,182.97L44.77,207.37L45.01,166.56L45.26,226.53L45.5,186.49L45.74,225.85L46.72,182.58L46.97,201.81L47.21,201.2L47.46,233.67L48.44,128.53L48.68,198.28L48.92,193.48L49.17,231.64L49.41,228.08L49.66,198.3L49.9,197.67L50.15,249.46L50.39,152.85L50.88,179.36L51.13,177.82L51.37,194.69L51.62,161.54L51.86,172.12L53.08,229.43L53.33,205.19L53.57,185.47L53.82,207.79L54.06,224.7L54.55,196.47L54.8,245.9L55.77,179.46L56.02,236.44L56.51,170.78L56.75,216.52L57,226.19L57.49,155.14L57.73,223.29L58.22,255.31L58.71,173.19L58.95,158.1L59.69,231.51L59.93,217.4L60.18,212.58L60.42,157.41L60.91,203.01L61.16,247.89L61.64,158.01L61.89,245.43L62.62,155.19L62.87,193.34L63.11,209.17L63.36,174.76L63.6,203.21L63.85,138.56L64.34,206.19L64.58,187.22L64.82,174.91L65.31,188.73L65.56,219.31L65.8,164.25L66.29,198.12L66.54,210.52L66.78,153.28L67.27,156.32L67.52,181.42L68.49,206.16L68.74,178.49L68.98,162.73L69.23,269L69.72,178.48L69.96,202.79L70.21,216.3L70.45,253.22L70.7,159.26L71.19,242.8L71.67,225.68L71.92,186.47L72.65,215.41L72.9,182.4L73.39,155L73.63,205.48L73.88,194.22L74.37,198.33L74.61,212L74.85,212.96L75.1,163.81L75.34,228.23L75.83,195.49L76.08,200.87L76.57,228.51L76.81,220.83L77.06,182L77.55,226.64L78.03,223.35L78.28,180.87L78.52,174.35L78.77,207.87L79.01,213.75L79.26,188.1L79.75,194.82L79.99,175.85L80.24,194.33L80.48,179.97L80.73,203.26L80.97,231.68L81.21,168.29L81.7,232.78L81.95,178.93L82.19,167.98L82.44,190.61L82.68,186.24L82.93,120.35L83.17,179.98L83.42,218.05L83.91,188.73L84.15,218.76L84.39,157.01L84.88,217.54L85.13,207.83L85.37,147.9L85.86,198L86.11,162.47L86.6,155.6L87.33,224.53L87.57,197.82L88.06,245.23L88.31,187.86L88.55,176.52L88.8,189.85L89.04,179.35L89.29,204.51L89.78,157.7L90.02,191.91L90.27,222.2L90.51,202.26L90.75,226.49L91,233.33L91.49,129.56L91.73,203.91L91.98,183.21L92.47,171.87L92.71,236.43L92.96,216.59L93.2,175.93L93.93,224.96L94.18,203.02L94.42,204.91L94.67,218.35L94.91,191.81L95.16,184.6L95.4,224.55L95.65,195.8L95.89,177.14L96.14,180.36L96.38,200.67L96.63,165.28L96.87,185.35L97.12,206.98L97.85,259.96L98.09,203.61L98.34,237.51L98.58,180.81L98.83,182.15L99.07,158.53L99.32,234.07L100.05,147.91L100.3,185.79L100.54,182.65L100.78,171.93L101.03,202.05L101.27,181.96L101.52,204.2L101.76,209.54L102.01,162.97L102.25,213.88L102.5,189.62L102.74,217.13L102.99,224.89L103.23,176.86L103.96,215.59L104.21,212.79L104.45,201.96L104.94,228.12L105.19,166.11L105.92,222.68L106.17,211L106.41,207.76L106.9,231.69L107.14,204.19L107.63,179.95L107.88,209.14L108.12,213.29L108.37,187.01L108.61,226.79L109.1,198.96L109.35,180.88L110.08,211L110.32,163.13L110.81,263.33L111.06,190.71L111.3,215.85L111.55,138.43L112.53,264.03L112.77,181.66L113.02,128.27L113.26,175.46L113.5,196.95L113.75,176.05L113.99,176.54L114.24,239.24L114.73,169.98L115.22,190.62L115.46,240.31L116.2,186.95L116.44,204.63L116.68,199.44L116.93,231.22L117.17,203.03L117.42,158.86L117.91,152.13L118.4,231.74L118.64,195.63L118.89,243.46L119.13,195.67L119.38,186.25L119.62,161.88L119.86,222.12L120.11,186.15L120.6,213.82L120.84,200.98L121.09,217.88L121.33,145.48L121.58,202.91L122.07,158.26L122.31,192.47L122.56,194.01L122.8,175.12L123.78,219.4L124.02,162.45L124.27,218.42L124.76,167.85L125,175.32L125.49,232.05L125.98,231.99L126.23,202.37L126.47,135.27L126.96,190.11L127.2,188.98L127.45,193.17L127.69,181.11L127.94,172.92L128.18,180.2L128.43,242.49L128.67,187.1L129.16,203.44L129.41,219.06L129.89,199.14L130.14,156.41L131.12,224.05L131.36,185.07L131.61,197.13L131.85,137.23L132.1,194.38L132.59,165.33L132.83,172.13L133.81,222.87L134.05,215.87L134.79,167.1L135.03,187.99L135.28,209.49L135.52,182.48L135.77,211.27L136.01,212.52L136.25,214.14L136.5,208.49L137.48,183.38L137.72,197.43L137.97,210.79L138.21,210.44L138.46,147.52L138.7,257.91L138.95,145.09L139.19,252.7L139.43,196.62L140.17,253.45L140.41,184.03L140.66,215.65L140.9,153.8L141.15,215.58L141.39,163.84L141.64,166.95L141.88,191.92L142.13,196.31L142.37,156.79L142.61,165.96L142.86,221.4L143.1,173.76L143.35,227.2L143.59,225.61L144.33,186.47L144.57,204.78L144.82,156.96L145.31,195.32L145.55,179.67L145.79,234.68L146.04,145.06L146.28,202.98L146.53,184.88L146.77,221.22L147.02,168.65L147.26,197.64L147.51,215.05L147.75,225.67L148,225.65L148.24,157.86L148.49,157.89L148.73,170.47L149.46,228.88L149.71,190.53L149.95,189.11L150.2,214.45L150.44,228.08L150.69,170.84L150.93,200.07L151.42,182L151.67,188.16L151.91,165.95L152.16,206.15L152.4,192.59L152.64,235.13L153.13,200.25L153.38,230.26L154.85,141.77L155.09,180.81L155.34,176.91L155.58,180.5L155.82,197.02L156.31,169.58L156.56,175.61L156.8,192.46L157.05,239.21L157.29,197.02L157.54,179.48L158.52,207.81L158.76,159.45L159,161.95L159.25,217.41L159.49,125.52L159.74,160.27L159.98,259.96L160.47,160.75L160.96,196.49L161.21,187.31L162.18,230.98L162.43,207.04L162.67,218.09L162.92,214.97L163.16,188.76L163.41,190.24L163.65,153.27L163.9,207.76L164.39,196.78L164.63,196.91L164.88,139.97L165.12,211.87L165.36,205.24L165.61,214.71L165.85,171.42L166.83,232.9L167.08,146.89L167.32,255.58L167.81,211.68L168.06,214.74L168.3,238.68L168.54,221.43L168.79,170.17L169.03,126.17L169.28,187.77L169.52,225.65L169.77,167.1L170.26,178.87L170.5,209.64L170.75,211.8L170.99,211.18L171.24,255.66L171.97,157.49L172.21,178.11L172.46,184.11L173.19,237.36L173.44,159.23L173.68,199.13L174.17,189.86L174.42,190.15L175.39,215.03L175.64,189.94L176.37,240.73L176.62,192.94L176.86,182.9L177.11,188.1L177.35,234.61L178.57,130.79L178.82,187.91L179.06,215.99L179.31,154.05L179.55,146.96L179.8,209.19L180.04,205.75L180.29,189.04L180.53,180.93L180.78,224.11L181.02,173.58L181.51,207.78L181.75,180.5L182.24,238.71L182.49,216.53L182.73,211.14L182.98,214.76L183.22,184.34L183.47,186.17L183.71,170.82L183.96,172.73L184.2,201.31L184.45,170.95L184.69,192.22L184.93,218.6L186.16,148.64L186.4,205.54L186.89,206.58L187.38,145.77L187.63,171.38L187.87,195.3L188.11,143.01L188.85,206.51L189.09,194.65L189.34,164.13L190.32,237.57L190.56,210.31L190.81,153.46L191.29,155.53L191.54,202.7L192.03,176.86L192.27,266.81L193.01,110.32L193.25,210.23L193.5,137.66L193.99,200.22L194.23,197.34L194.47,185.38L194.72,223.88L194.96,176.75L195.45,214.33L195.7,201.99L195.94,213.8L196.19,184.7L196.68,210.49L196.92,153.62L197.41,206.18L197.65,199.18L197.9,179.45L198.14,139.36L198.39,190.28L198.63,193.44L199.12,210.04L199.37,152.88L200.1,226.3L200.35,195.16L200.59,209.36L200.83,159.69L201.08,215.54L201.32,202.13L201.57,194.16L202.3,180.4L202.55,223.89L202.79,155.47L203.28,185.79L203.53,247.06L204.5,144.75L204.75,215.52L205.24,220.96L205.48,168.94L205.97,179.64L206.22,212.42L206.46,191.67L206.71,220.2L206.95,217.66L207.2,207.52L207.44,237.32L207.93,247.58L208.17,177.26L208.42,184.66L208.66,202.82L209.64,144.95L209.89,183.96L210.38,169.18L210.62,205.11L211.11,223.91L211.35,163.83L211.6,196.24L211.84,187.1L212.09,240.01L212.33,138.61L212.82,203.06L213.07,189.31L213.31,194.46L213.56,225.92L214.29,153.89L214.53,218.98L215.02,239.52L215.27,154.33L215.51,163.65L215.76,212.01L216,184.94L216.25,209.87L216.49,216.52L216.74,227.89L216.98,196.16L217.22,212.78L217.47,199.34L217.71,185.8L218.2,191.59L218.45,173.67L218.69,220.35L219.18,171.43L219.43,190.22L219.92,167.2L220.16,218.32L220.4,209.21L220.89,209.89L221.14,208.01L221.38,208.82L221.87,210.4L222.36,170.93L222.61,190.13L222.85,171.41L223.1,219.02L223.34,191.56L223.58,202.08L223.83,228.45L224.56,155.19L224.81,174.94L225.05,210.2L225.3,200.48L225.54,234.3L226.03,172.11L226.28,219.19L226.52,249.41L227.25,155.19L227.5,175.04L227.74,198.35L227.99,176.08L228.23,177.8L228.48,213.57L228.72,146.28L229.21,189.21L229.46,203.77L229.94,169.86L230.19,190.76L230.43,185.15L230.68,159.73L230.92,217.64L231.41,164.22L231.66,194.95L231.9,192.88L232.15,210.25L232.88,144.75L233.13,185.39L233.37,182L233.61,156.96L233.86,213.02L234.35,207.88L234.59,139.5L234.84,224.73L235.33,208.13L235.57,162.07L235.82,202.66L236.31,186.65L236.55,183.31L237.04,181.25L237.28,238.42L237.53,197.39L237.77,212.35L238.02,155.23L238.51,225.4L238.75,165.84L240.22,236.44L240.46,224.93L241.44,178.92L241.69,200.99L241.93,173.14L242.18,198.01L242.42,205.66L242.67,204.01L242.91,239.93L243.64,149.58L243.89,201.99L244.13,192.33L244.62,197.55L244.87,226.44L245.6,164.99L245.85,221.01L246.58,176.48L246.82,187.97L247.07,180.81L247.31,186.97L247.56,229.9L248.54,122.53L248.78,173.63L249.03,175.79L249.27,130.01L250.49,245.73L250.74,223.72L250.98,154.4L251.47,211.21L251.72,187.92L252.21,214.58L252.45,260.3L253.18,151.8L253.43,233.41L253.67,228.32L253.92,142.45L254.41,220.78L254.65,212.69L254.9,193.24L255.14,204.35L255.39,185.28L255.63,156.53L255.87,201.96L256.36,200.45L256.61,158.97L256.85,236.03L257.34,215.13L257.59,159.4L257.83,210.23L258.32,176.94L258.57,199.26L258.81,189.8L259.06,234.11L259.54,145.71L259.79,186.73L260.03,191.34L260.28,183.92L260.52,203.07L260.77,131.73L261.01,206.19L261.26,211.92L261.5,139.08L261.99,202.37L262.24,174.93L262.72,198.57L262.97,171.65L263.21,170.12L263.46,203.34L263.7,174.41L264.19,195.62L264.44,238.18L264.93,244.39L265.42,176.81L265.66,146.39L265.9,230.43L266.39,196.38L266.64,197.24L266.88,200.78L267.13,186.92L267.37,225.65L267.86,193.35L268.11,206.46L268.6,169.47L268.84,176.4L269.08,207.66L269.33,194.63L269.57,200.59L269.82,211.41L270.55,159.96L270.8,191.8L271.04,162.81L271.29,193.33L271.53,230.78L272.02,200.16L272.26,232.06L272.51,208.83L272.75,195.01L273,191.07L273.24,168.15L273.49,180.32L273.73,240.92L274.96,156.22L275.2,169.47L276.18,217.16L276.42,213.23L276.67,153.39L276.91,177.09L277.16,222.88L278.14,170.66L278.38,189.58L278.62,221.56L278.87,191.6L279.11,141.39L279.85,214.27L280.09,164.54L280.34,146.85L280.58,190L281.32,152.7L281.56,216.21L282.54,158.1L282.78,190.86L283.03,170.14L283.27,211.19L283.52,233.01L283.76,176.67L284.25,194.12L284.5,221.74L284.98,250.06L285.47,174.04L285.72,219.66L285.96,218L286.21,223.91L286.94,172.17L287.19,205.98L287.68,165.74L287.92,231.39L288.9,121.67L289.14,181.62L289.39,216.05L289.63,173.72L289.88,163.75L290.37,217.33L290.61,202.54L290.86,170.6L291.1,135.32L291.35,198.83L291.59,182.49L291.83,210.56L292.08,188.59L292.32,177.25L292.81,229.13L293.3,220.19L293.55,171.51L294.04,181.62L294.28,129.88L294.53,173.58L294.77,188.91L295.01,182.71L295.26,157.13L296.24,213.4L296.48,173.01L296.97,196.05L297.22,180.55L297.71,174.27L297.95,215.11L298.19,201.87L298.44,158.83L298.68,165.33L298.93,161.5L299.17,206.09L299.66,178.95L299.91,222.16L300.89,147.1L301.13,216.71L301.37,217.21L301.62,164.88L302.11,155.29L302.35,190.24L302.6,185.22L302.84,172.75L303.33,200.18L303.58,151.36L303.82,159.64L304.07,195.7L304.55,203.5L304.8,176.2L305.04,186.67L305.29,205.25L305.53,181.23L305.78,204.99L306.02,161.19L306.27,173.79L306.51,227.65L307.49,178.23L307.73,213.36L307.98,216.44L308.22,190.83L308.47,182.64L308.71,228.51L309.69,161.52L309.94,176.38L310.43,201.19L310.67,184.46L310.91,173.91L311.4,265.76L311.65,184.57L311.89,152.88L312.38,233.69L312.87,211.09L313.12,184.76L313.36,158.23L313.61,186.51L313.85,220.88L314.1,150.96L314.58,219.89L314.83,165.63L315.07,210.49L315.56,170.39L315.81,199.51L316.05,160.56L316.54,185.35L316.79,173.27L317.28,238.28L317.52,183.45L317.76,175.87L318.01,187.79L318.25,191.2L318.74,182.59L318.99,205.92L319.23,157.66L320.21,222.49L320.46,212.11L320.94,150.77L321.19,208.16L321.43,184.15L321.92,251.04L322.17,174.99L322.66,209.67L322.9,161.73L323.15,228.14L323.64,212.56L323.88,197.41L324.12,211.66L324.37,176.41L325.35,229.97L325.59,215.24L326.33,171.2L326.57,192.03L326.82,216.12L327.06,199.98L327.3,174L327.55,163.43L327.79,173.36L328.04,184.53L328.53,199.47L328.77,182.37L329.26,199.35L329.51,180.99L330,187.61L330.24,215.21L330.48,145.38L330.97,175.94L331.22,165.74L331.46,157.48L331.71,199.06L331.95,182.39L332.2,238.7L332.93,175.43L333.42,182.32L333.66,197.53L333.91,233.37L334.15,218.13L334.4,166.43L334.89,226.45L335.38,206.48L335.62,161.5L335.87,197.78L336.11,132.81L336.36,189.92L336.6,175.88L337.09,249.04L337.33,189.6L337.58,156.35L338.31,262.65L338.56,204.12L338.8,209.81L339.29,205.57L339.54,185.62L339.78,181.45L340.03,203.62L340.27,213.25L340.51,160.58L340.76,162.5L341,162.06L341.25,206.42L341.49,206.72L341.74,195.75L341.98,179.45L342.23,203.17L342.47,181.21L342.72,196.72L342.96,203.19L343.21,189L343.45,168.76L343.69,213.38L344.18,177.34L344.43,210.76L344.67,196.4L345.16,227.9L345.41,164.6L345.9,214.77L346.39,209.56L346.63,144.69L347.12,219.17L347.36,132.62L347.61,210.51L348.1,164.62L348.34,197.82L348.59,222.67L348.83,182.83L349.08,193.19L349.32,242.94L349.81,216.21L350.05,202.68L350.54,183.03L350.79,192.55L351.03,194.29L351.52,172.74L351.77,228.98L352.01,161.66L352.5,168.11L352.75,226.51L352.99,227.53L353.23,206.79L354.21,144.44L354.46,204.74L354.7,204.75L354.95,206.54L355.68,172.22L355.93,182.83L356.17,186.49L356.41,181.7L356.66,171.25L356.9,245.36L357.39,213.66L357.64,206.31L357.88,168.4L358.37,180.23L358.62,205.29L359.11,179.49L359.35,185.23L359.59,206.16L359.84,197.52L360.08,201.34L360.33,209.35L360.57,192.36L360.82,206.27L361.06,220.61L361.31,224.89L361.55,170.97L361.8,167.33L362.04,193.03L362.29,163.72L362.53,232.12L363.26,179.13L363.51,197.51L363.75,233.1L364,179.09L364.24,198.97L364.49,184.01L364.73,207.34L365.22,182.6L365.47,180.17L365.95,228.33L366.2,208.11L366.44,200.74L366.69,200.98L366.93,185.5L367.18,203.42L367.42,158.01L367.67,201.45L368.16,178.83L368.4,188.84L368.65,153.74L368.89,187.5L369.14,207.5L369.38,212.66L369.62,184.75L369.87,251.86L370.6,246.54L370.85,215.65L371.09,229.85L371.34,172.54L371.83,235.03L372.07,174.65L372.32,175.6L372.56,218.7L373.05,173.07L373.29,198.18L373.54,174.72L374.03,191.69L374.27,209.33L374.52,237.64L374.76,191.42L375.01,176.76L375.5,206.04L375.74,186.62L375.98,174.84L376.23,214.71L376.72,214.03L376.96,204.86L377.21,246.56L377.45,213.64L377.7,185.25L377.94,225.76L378.19,210.76L378.43,173.05L378.68,201.12L378.92,145.23L379.16,169.8L379.9,202.76L380.14,173.98L380.88,231.83L381.12,200.27L381.37,209.49L381.61,202.63L381.86,239.87L382.1,200.08L382.83,200.16L383.08,191.88L383.32,206.1L383.57,184.26L383.81,195.22L384.06,184.46L384.3,212.79L384.79,188.87L385.04,196.16L385.28,183.06L385.52,225.45L385.77,248.51L386.01,198.37L386.26,187.24L386.5,213.17L386.75,161.29L387.24,207.17L387.48,189.04L387.73,187.54L387.97,222.48L388.46,165.42L388.7,232.28L388.95,168.97L389.44,201.09L389.68,174.19L390.66,202.72L390.91,189.75L391.15,189.52L391.4,203.98L391.88,232.66L392.13,168.19L392.62,208.97L392.86,168.44L393.11,156.38L394.33,233.62L394.58,183.71L394.82,211.6L395.07,165.43L395.31,205.64L395.55,184.21L395.8,213.64L396.29,198.25L396.53,185.85L396.78,176.07L397.02,200.18L397.27,191.94L397.51,201.31L397.76,197.23L398,198.68L398.25,219.56L398.49,199.87L398.73,175.99L398.98,225.79L399.47,211.38L399.71,207.37L399.96,197.15L400.2,219.21L400.45,181.65L400.94,214.26L401.18,225.84L401.67,166.84L401.91,180.46L402.16,185L402.4,165.46L402.65,204.51L402.89,201.1L403.38,176.03L403.63,197.91L403.87,213.65L404.12,207.04L404.36,149.82L404.61,213.33L405.09,190.18L405.34,165.54L406.07,194.51L406.32,149.43L406.56,214.64L407.05,182.14L407.3,191.54L407.54,196.11L407.79,165.75L408.27,195.61L408.52,188.39L408.76,169.01L409.01,221.02L409.5,213.32L409.74,209.55L409.99,205.45L410.23,208.25L410.48,210.08L410.72,167.02L410.97,205.66L411.21,221.14L411.7,177.75L411.94,224.5L412.92,186.38L413.17,196.09L413.41,172.42L413.9,193.26L414.15,194.86L414.39,171.84L414.63,200.26L414.88,209.94L415.12,166.47L415.61,174.64L415.86,200.08L416.1,238.06L416.35,180.33L416.59,188.56L417.08,195.44L417.33,176.55L417.57,216.44L418.3,183.25L418.55,198.22L418.79,171.9L419.28,190.84L419.53,178.85L420.02,155.81L420.26,188.21L420.51,163.08L420.75,173.62L420.99,206.36L421.24,163.65L421.48,171.63L421.73,211.9L422.22,175.78L422.46,195.47L422.71,212.3L422.95,226.32L423.2,215.4L423.44,182.14L423.93,168.8L424.18,179.35L424.42,169.44L424.91,178.72L425.15,205.23L425.64,153.97L425.89,208.22L426.62,164.57L426.87,225.93L427.84,144.13L428.09,190.17L428.58,222.75L428.82,165.2L429.8,200.4L430.05,158.94L430.54,222.74L430.78,196.37L431.02,177.23L431.51,225.33L431.76,176.55L432,175.37L432.25,182.45L433.23,228.61L433.47,179.39L433.72,172.35L433.96,179.85L434.2,179.98L434.69,223.1L434.94,173.45L435.43,199.48L435.92,196.86L436.16,166.04L436.41,152.77L436.65,190.67L436.9,185.91L437.14,207.79L437.63,214.8L437.87,154.63L438.12,202.93L438.36,168.76L438.85,171.53L439.1,201.27L439.59,199.57L440.08,210.45L440.32,200.82L440.81,224.29L441.05,141.29L441.54,183.69L442.03,180.12L442.28,181.05L442.52,150.83L442.77,234.72L443.26,168.13L443.5,197.97L443.74,218.97L444.48,164.54L444.72,216.51L445.21,181.27L445.7,184.33L445.95,211.17L446.92,173.84L447.17,232.81L447.41,160.68L447.9,211.47L448.15,198.45L448.88,183L449.13,204.57L449.62,173.05L449.86,191.97L450.11,219.88L450.35,169.65L450.84,177.03L451.08,195.68L451.33,216.19L451.57,154.05L451.82,205.04L452.31,198.95L452.55,190.25L452.8,175.93L453.04,184.27L453.29,192.31L453.53,192.55L453.77,175.3L454.02,200.18L454.26,169.75L454.51,167.07L454.75,223.13L455.24,186.16L455.49,188.49L455.73,195.13L455.98,171.49L456.22,222.64L456.71,178.46L456.95,213.32L457.2,168.44L457.69,193.38L457.93,176.68L458.67,233.15L458.91,189.8L459.16,188.33L459.4,188.38L459.65,218.72L460.13,225.62L460.38,173.79L460.62,197.23L460.87,208.6L461.11,182.43L461.36,196.28L461.6,154.75L461.85,226.65L462.34,175.73L462.58,208.84L462.83,191.06L463.07,237.6L463.31,185.7L463.8,194.92L464.05,192.61L464.29,173.92L464.54,197.45L464.78,212.14L465.03,172.85L465.52,178.91L465.76,188.32L466.01,195.8L466.25,176.84L466.98,212.88L467.23,187.92L467.47,186.71L467.72,189.99L467.96,178.42L468.21,203.36L468.45,193.94L468.7,237.76L468.94,164.95L469.43,191.01L469.67,194.74L469.92,197.66L470.16,173.82L470.65,213.28L470.9,210.18L471.14,177.04L471.88,220.19L472.12,198.15L472.37,200.86L472.85,196.35L473.34,221.4L473.59,178.88L474.32,185.83L474.57,179.78L474.81,225.13L475.3,181.7L475.55,190.05L475.79,177.55L476.04,240.89L476.28,165.65L476.77,204.76L477.01,185.06L477.26,191.9L477.5,222.67L477.75,215.68L477.99,169.92L478.97,199.15L479.22,177.29L480.19,199.84L480.44,192.66L480.93,204.15L481.17,195.24L481.42,196.09L481.66,172.77L482.15,182.8L482.4,185.01L482.88,188.78L483.13,215.39L483.86,182.96L484.11,199.55L484.35,181.65L484.6,202.94L484.84,185.11L485.09,199.01L485.33,186.03L485.58,213.68L485.82,170.34L486.31,210.42L486.55,194.25L486.8,215.64L487.04,204.88L487.29,183.45L488.02,233.2L488.27,191.02L488.51,169.34L489,181.65"/></g><g class="points"/><g class="text"/></g></g></g><g class="overplot"/><path class="xlines-above crisp" style="fill: none;" d="M0,0"/><path class="ylines-above crisp" style="fill: none;" d="M0,0"/><g class="overlines-above"/><g class="xaxislayer-above"><g class="xtick"><text text-anchor="middle" x="0" y="403" style="font-family: TOBESTRIPPEDOpen SansTOBESTRIPPED, verdana, arial, sans-serif; font-size: 12px; fill: rgb(68, 68, 68); fill-opacity: 1; white-space: pre;" transform="translate(179.62,0)">50</text></g><g class="xtick"><text text-anchor="middle" x="0" y="403" style="font-family: TOBESTRIPPEDOpen SansTOBESTRIPPED, verdana, arial, sans-serif; font-size: 12px; fill: rgb(68, 68, 68); fill-opacity: 1; white-space: pre;" transform="translate(301.93,0)">100</text></g><g class="xtick"><text text-anchor="middle" x="0" y="403" style="font-family: TOBESTRIPPEDOpen SansTOBESTRIPPED, verdana, arial, sans-serif; font-size: 12px; fill: rgb(68, 68, 68); fill-opacity: 1; white-space: pre;" transform="translate(424.24,0)">150</text></g><g class="xtick"><text text-anchor="middle" x="0" y="403" style="font-family: TOBESTRIPPEDOpen SansTOBESTRIPPED, verdana, arial, sans-serif; font-size: 12px; fill: rgb(68, 68, 68); fill-opacity: 1; white-space: pre;" transform="translate(546.55,0)">200</text></g></g><g class="yaxislayer-above"><g class="ytick"><text text-anchor="end" x="59" y="4.199999999999999" style="font-family: TOBESTRIPPEDOpen SansTOBESTRIPPED, verdana, arial, sans-serif; font-size: 12px; fill: rgb(68, 68, 68); fill-opacity: 1; white-space: pre;" transform="translate(0,352.8)">10</text></g><g class="ytick"><text text-anchor="end" x="59" y="4.199999999999999" style="font-family: TOBESTRIPPEDOpen SansTOBESTRIPPED, verdana, arial, sans-serif; font-size: 12px; fill: rgb(68, 68, 68); fill-opacity: 1; white-space: pre;" transform="translate(0,269.35)">15</text></g><g class="ytick"><text text-anchor="end" x="59" y="4.199999999999999" style="font-family: TOBESTRIPPEDOpen SansTOBESTRIPPED, verdana, arial, sans-serif; font-size: 12px; fill: rgb(68, 68, 68); fill-opacity: 1; white-space: pre;" transform="translate(0,185.9)">20</text></g><g class="ytick"><text text-anchor="end" x="59" y="4.199999999999999" style="font-family: TOBESTRIPPEDOpen SansTOBESTRIPPED, verdana, arial, sans-serif; font-size: 12px; fill: rgb(68, 68, 68); fill-opacity: 1; white-space: pre;" transform="translate(0,102.45)">25</text></g></g><g class="overaxes-above"/></g></g><g class="polarlayer"/><g class="ternarylayer"/><g class="geolayer"/><g class="pielayer"/><g class="glimages"/><defs id="topdefs-62e903"><g class="clips"/><clipPath id="legend62e903"><rect width="129" height="105" x="0" y="0"/></clipPath></defs><g class="layer-above"><g class="imagelayer"/><g class="shapelayer"/></g><g class="infolayer"><g class="legend" pointer-events="all" transform="translate(558.78, 60)"><rect class="bg" shape-rendering="crispEdges" style="stroke: rgb(68, 68, 68); stroke-opacity: 1; fill: rgb(255, 255, 255); fill-opacity: 1; stroke-width: 0px;" width="129" height="105" x="0" y="0"/><g class="scrollbox" transform="translate(0, 0)" clip-path="url(#legend62e903)"><g class="groups"><g class="traces" style="opacity: 0.5;" transform="translate(0, 14.5)"><g class="layers" style="opacity: 1;"><g class="legendfill"/><g class="legendlines"><path class="js-line" d="M5,0h30" style="fill: none; stroke: rgb(31, 119, 180); stroke-opacity: 1; stroke-width: 2px;"/></g><g class="legendsymbols"><g class="legendpoints"/></g></g><text class="legendtext user-select-none" text-anchor="start" style="font-family: TOBESTRIPPEDOpen SansTOBESTRIPPED, verdana, arial, sans-serif; font-size: 12px; fill: rgb(68, 68, 68); fill-opacity: 1; white-space: pre;" x="40" y="4.680000000000001">G1</text><rect class="legendtoggle" style="cursor: pointer; fill: rgb(0, 0, 0); fill-opacity: 0;" pointer-events="all" x="0" y="-9.5" width="169" height="19"/></g><g class="traces" style="opacity: 0.5;" transform="translate(0, 33.5)"><g class="layers" style="opacity: 1;"><g class="legendfill"/><g class="legendlines"><path class="js-line" d="M5,0h30" style="fill: none; stroke: rgb(255, 127, 14); stroke-opacity: 1; stroke-width: 2px;"/></g><g class="legendsymbols"><g class="legendpoints"/></g></g><text class="legendtext user-select-none" text-anchor="start" style="font-family: TOBESTRIPPEDOpen SansTOBESTRIPPED, verdana, arial, sans-serif; font-size: 12px; fill: rgb(68, 68, 68); fill-opacity: 1; white-space: pre;" x="40" y="4.680000000000001">G2</text><rect class="legendtoggle" style="cursor: pointer; fill: rgb(0, 0, 0); fill-opacity: 0;" pointer-events="all" x="0" y="-9.5" width="169" height="19"/></g><g class="traces" style="opacity: 1;" transform="translate(0, 52.5)"><g class="layers" style="opacity: 1;"><g class="legendfill"/><g class="legendlines"><path class="js-line" d="M5,0h30" style="fill: none; stroke: rgb(44, 160, 44); stroke-opacity: 1; stroke-width: 2px;"/></g><g class="legendsymbols"><g class="legendpoints"/></g></g><text class="legendtext user-select-none" text-anchor="start" style="font-family: TOBESTRIPPEDOpen SansTOBESTRIPPED, verdana, arial, sans-serif; font-size: 12px; fill: rgb(68, 68, 68); fill-opacity: 1; white-space: pre;" x="40" y="4.680000000000001">PSNR_clean</text><rect class="legendtoggle" style="cursor: pointer; fill: rgb(0, 0, 0); fill-opacity: 0;" pointer-events="all" x="0" y="-9.5" width="169" height="19"/></g><g class="traces" style="opacity: 1;" transform="translate(0, 71.5)"><g class="layers" style="opacity: 1;"><g class="legendfill"/><g class="legendlines"><path class="js-line" d="M5,0h30" style="fill: none; stroke: rgb(214, 39, 40); stroke-opacity: 1; stroke-width: 2px;"/></g><g class="legendsymbols"><g class="legendpoints"/></g></g><text class="legendtext user-select-none" text-anchor="start" style="font-family: TOBESTRIPPEDOpen SansTOBESTRIPPED, verdana, arial, sans-serif; font-size: 12px; fill: rgb(68, 68, 68); fill-opacity: 1; white-space: pre;" x="40" y="4.680000000000001">PSNR_n2n</text><rect class="legendtoggle" style="cursor: pointer; fill: rgb(0, 0, 0); fill-opacity: 0;" pointer-events="all" x="0" y="-9.5" width="169" height="19"/></g><g class="traces" style="opacity: 0.5;" transform="translate(0, 90.5)"><g class="layers" style="opacity: 1;"><g class="legendfill"/><g class="legendlines"><path class="js-line" d="M5,0h30" style="fill: none; stroke: rgb(148, 103, 189); stroke-opacity: 1; stroke-width: 2px;"/></g><g class="legendsymbols"><g class="legendpoints"/></g></g><text class="legendtext user-select-none" text-anchor="start" style="font-family: TOBESTRIPPEDOpen SansTOBESTRIPPED, verdana, arial, sans-serif; font-size: 12px; fill: rgb(68, 68, 68); fill-opacity: 1; white-space: pre;" x="40" y="4.680000000000001">PSNR_original</text><rect class="legendtoggle" style="cursor: pointer; fill: rgb(0, 0, 0); fill-opacity: 0;" pointer-events="all" x="0" y="-9.5" width="169" height="19"/></g></g></g><rect class="scrollbar" rx="20" ry="3" width="0" height="0" style="fill: rgb(128, 139, 164); fill-opacity: 1;" x="0" y="0"/></g><g class="g-gtitle"><text class="gtitle" style="font-family: TOBESTRIPPEDOpen SansTOBESTRIPPED, verdana, arial, sans-serif; font-size: 17px; fill: rgb(68, 68, 68); opacity: 1; font-weight: normal; white-space: pre;" x="350" y="30" text-anchor="middle">not_gan_r2r loss over time</text></g><g class="g-xtitle"><text class="xtitle" style="font-family: TOBESTRIPPEDOpen SansTOBESTRIPPED, verdana, arial, sans-serif; font-size: 14px; fill: rgb(68, 68, 68); opacity: 1; font-weight: normal; white-space: pre;" x="304.5" y="442" text-anchor="middle">epoch</text></g><g class="g-ytitle"><text class="ytitle" transform="rotate(-90,22,225)" style="font-family: TOBESTRIPPEDOpen SansTOBESTRIPPED, verdana, arial, sans-serif; font-size: 14px; fill: rgb(68, 68, 68); opacity: 1; font-weight: normal; white-space: pre;" x="22" y="225" text-anchor="middle">loss</text></g></g></svg>