<svg class="main-svg" xmlns="http://www.w3.org/2000/svg" xmlns:xlink="http://www.w3.org/1999/xlink" width="700" height="450" style="" viewBox="0 0 700 450"><rect x="0" y="0" width="700" height="450" style="fill: rgb(255, 255, 255); fill-opacity: 1;"/><defs id="defs-798d00"><g class="clips"><clipPath id="clip798d00xyplot" class="plotclip"><rect width="489" height="330"/></clipPath><clipPath class="axesclip" id="clip798d00x"><rect x="60" y="0" width="489" height="450"/></clipPath><clipPath class="axesclip" id="clip798d00y"><rect x="0" y="60" width="700" height="330"/></clipPath><clipPath class="axesclip" id="clip798d00xy"><rect x="60" y="60" width="489" height="330"/></clipPath></g><g class="gradients"/></defs><g class="bglayer"><rect class="bg" x="60" y="60" width="489" height="330" style="fill: rgb(255, 255, 255); fill-opacity: 1; stroke-width: 0;"/></g><g class="layer-below"><g class="imagelayer"/><g class="shapelayer"/></g><g class="cartesianlayer"><g class="subplot xy"><g class="layer-subplot"><g class="shapelayer"/><g class="imagelayer"/></g><g class="gridlayer"><g class="x"><path class="xgrid crisp" d="M0,60v330" transform="translate(179.62,0)" style="stroke: rgb(238, 238, 238); stroke-opacity: 1; stroke-width: 1px;"/><path class="xgrid crisp" d="M0,60v330" transform="translate(301.93,0)" style="stroke: rgb(238, 238, 238); stroke-opacity: 1; stroke-width: 1px;"/><path class="xgrid crisp" d="M0,60v330" transform="translate(424.24,0)" style="stroke: rgb(238, 238, 238); stroke-opacity: 1; stroke-width: 1px;"/><path class="xgrid crisp" d="M0,60v330" transform="translate(546.55,0)" style="stroke: rgb(238, 238, 238); stroke-opacity: 1; stroke-width: 1px;"/></g><g class="y"><path class="ygrid crisp" d="M60,0h489" transform="translate(0,361.36)" style="stroke: rgb(238, 238, 238); stroke-opacity: 1; stroke-width: 1px;"/><path class="ygrid crisp" d="M60,0h489" transform="translate(0,317.15)" style="stroke: rgb(238, 238, 238); stroke-opacity: 1; stroke-width: 1px;"/><path class="ygrid crisp" d="M60,0h489" transform="translate(0,272.94)" style="stroke: rgb(238, 238, 238); stroke-opacity: 1; stroke-width: 1px;"/><path class="ygrid crisp" d="M60,0h489" transform="translate(0,228.73)" style="stroke: rgb(238, 238, 238); stroke-opacity: 1; stroke-width: 1px;"/><path class="ygrid crisp" d="M60,0h489" transform="translate(0,184.51)" style="stroke: rgb(238, 238, 238); stroke-opacity: 1; stroke-width: 1px;"/><path class="ygrid crisp" d="M60,0h489" transform="translate(0,140.3)" style="stroke: rgb(238, 238, 238); stroke-opacity: 1; stroke-width: 1px;"/><path class="ygrid crisp" d="M60,0h489" transform="translate(0,96.09)" style="stroke: rgb(238, 238, 238); stroke-opacity: 1; stroke-width: 1px;"/></g></g><g class="zerolinelayer"/><path class="xlines-below"/><path class="ylines-below"/><g class="overlines-below"/><g class="xaxislayer-below"/><g class="yaxislayer-below"/><g class="overaxes-below"/><g class="plot" transform="translate(60, 60)" clip-path="url(#clip798d00xyplot)"><g class="scatterlayer mlayer"><g class="trace scatter trace021370" style="stroke-miterlimit: 2; opacity: 1;"><g class="fills"/><g class="errorbars"/><g class="lines"><path class="js-line" style="vector-effect: non-scaling-stroke; fill: none; stroke: rgb(44, 160, 44); stroke-opacity: 1; stroke-width: 2px; opacity: 1;" d="M0,102.88L0.49,239.97L0.73,172.9L0.98,180.95L1.22,185.94L1.47,155.14L1.96,150.76L2.2,189.89L2.45,157.17L3.18,220.08L3.42,159.95L3.67,171.67L3.91,141.33L4.65,224.35L4.89,133.1L5.63,227.83L5.87,141.41L6.12,167.83L6.36,110.51L6.6,204.63L7.09,139.16L7.34,155.66L7.58,149.71L7.83,190.5L8.07,166.29L8.32,177.67L8.56,217.39L8.81,138.57L9.3,158.48L9.54,180.44L9.78,109.72L10.27,138.07L10.52,130.27L10.76,100.32L11.01,165.13L11.25,136.46L11.5,189.38L11.74,157.54L11.99,191.54L12.23,155.2L12.48,214.49L12.72,199.88L12.96,120.08L13.21,177.66L13.45,209.84L13.7,203.41L13.94,143.59L14.92,234.81L15.17,85.98L15.41,215.05L15.9,133.47L16.15,131.31L17.12,213.04L17.37,216.76L17.61,142.87L18.1,191.92L18.35,197.92L18.59,179.62L18.84,185.35L19.08,206.92L19.57,215.96L20.06,89.41L20.3,92.74L20.55,225.95L21.53,131.4L21.77,169.47L22.02,160.9L22.26,223.38L22.51,218.71L22.75,195.74L23.24,244.58L23.48,117.59L24.46,219.86L24.71,178.81L24.95,164.33L25.2,209L25.93,128.98L26.17,207.08L26.42,207.99L26.66,229.71L26.91,133.9L27.4,139.34L27.64,213.35L27.89,178.57L28.62,180.81L28.87,209.25L29.11,152.11L29.35,187.31L29.6,220.21L29.84,232.01L30.09,228.57L30.33,142.7L31.31,265.38L31.56,185.93L31.8,186.5L32.05,127.55L32.78,218.25L33.02,193.62L33.27,141.98L34,222.29L34.25,136.64L34.74,223.37L34.98,143.47L35.23,147.63L35.47,157.18L35.71,144.89L35.96,116.6L36.2,98.06L36.45,192.28L36.69,117.28L36.94,185.96L37.18,202.82L37.43,200.31L37.67,246.2L38.16,85.2L38.65,125.91L38.89,162.88L39.14,135.87L39.38,158.61L39.63,235.51L39.87,113.53L40.36,136.29L40.61,200.29L40.85,235.73L41.1,133.47L41.59,127.48L41.83,221.31L42.08,212.48L42.32,173.25L42.56,173.56L42.81,182.03L43.05,200.88L43.3,149.1L43.54,237.06L44.03,184.34L44.28,175.14L44.52,210.79L44.77,146.94L45.01,113.34L45.74,225.63L45.99,171.26L46.23,205.46L46.48,134.29L46.72,197.11L46.97,185.07L47.7,190.87L47.95,110.07L48.92,200.32L49.17,205.13L50.39,165.82L50.64,171.4L50.88,181.82L51.13,158.42L51.62,152.89L51.86,228.89L52.1,171.56L52.59,146.74L52.84,195.19L53.08,208.24L53.33,175.35L53.82,154.23L54.06,167.41L54.31,177.23L54.8,175.23L55.28,202.32L55.53,183.13L56.02,193.7L56.26,151.66L56.51,167.77L56.75,169L57,194.7L57.24,137.63L57.49,164L57.73,212.62L57.98,136.13L58.46,148.17L58.71,196.43L58.95,93.67L59.2,205.22L59.44,174.35L59.69,217.36L59.93,173.99L60.18,218.35L60.42,215.74L60.67,210.7L61.64,122.45L61.89,166.15L62.38,112.06L62.62,203.94L62.87,120.45L63.36,181.44L63.6,146.47L63.85,110.02L64.09,170.53L64.34,213.62L64.82,240.4L65.07,147.15L65.31,167.75L65.56,152.67L66.29,208.08L66.54,145.02L67.27,199.46L67.52,195.85L67.76,200.35L68.25,228.16L68.49,174.06L68.74,174.49L68.98,145.17L69.23,156.85L69.47,240.47L70.45,165.6L70.7,206.94L70.94,95.1L71.19,212.09L71.43,159.01L71.67,230.67L72.41,127.54L72.65,186.14L73.39,161.7L73.63,164.33L73.88,199.91L74.12,143.55L74.37,202.34L74.61,223.74L74.85,99.17L75.34,178.9L75.59,194.95L76.08,146.85L76.32,203.94L76.81,102.9L77.06,153.85L77.3,228.38L77.79,247.02L78.03,131.93L78.28,160.97L78.52,162.33L79.01,194.66L79.26,183.95L79.5,123.91L79.99,184.46L80.24,168.76L80.48,107.43L80.73,114.83L80.97,172.97L81.21,171.67L81.46,191.78L81.7,193.11L81.95,148.91L82.19,204.77L82.44,190.34L82.68,121.81L83.66,214.6L83.91,212.24L84.15,221.82L84.39,213.9L84.64,187.01L85.13,162.6L85.37,173.22L85.62,205.31L85.86,148.44L86.11,218.65L86.35,185.82L86.6,187.65L86.84,209.53L87.09,91.33L87.33,219.06L87.82,169.54L88.06,142.69L88.31,204.32L88.55,116.48L88.8,128.41L89.53,207.1L89.78,151.12L90.02,124.64L90.27,186.77L90.51,167.23L90.75,212.43L91,131.73L91.49,188.84L91.73,191.51L91.98,199.44L92.22,164.94L92.71,124.33L92.96,210.61L93.45,121.83L93.69,244.21L94.18,106.28L94.42,147.44L94.67,167.61L94.91,197.99L95.16,143.34L95.4,107.03L95.89,198.27L96.14,113.87L96.38,144.23L96.63,243.23L97.12,164.79L97.36,167.44L97.6,228.65L97.85,216.22L98.09,84.41L98.83,228.25L99.07,175.77L99.32,122.61L100.3,194.08L100.54,154.48L100.78,207.38L101.27,170.62L101.52,108.94L102.25,188.5L102.5,152.84L103.23,187.88L103.72,185.71L103.96,131.42L104.45,113.68L104.7,195.51L104.94,183.8L105.19,134.78L105.68,189.24L105.92,129.92L106.17,116.12L106.41,239.5L106.66,135.23L107.14,143.64L107.39,191.92L107.63,186.86L107.88,146.15L108.61,176.35L108.86,203.98L109.1,201.24L109.35,170.86L110.08,74.99L110.32,201.78L110.57,202.41L110.81,180.69L111.3,173.11L111.55,250.22L111.79,193.7L112.04,85.24L112.53,151.84L112.77,240.93L113.75,154.86L113.99,179.97L114.24,157.12L114.73,194.23L114.97,134.67L115.22,187.67L115.46,185.16L115.71,108.41L116.2,210.33L116.44,193.97L116.68,151.42L117.42,176.36L117.66,86.51L118.4,211.3L118.64,152.65L118.89,138.05L119.13,141.07L119.38,81.02L119.62,219.39L120.11,188.73L120.35,136.66L120.6,114.95L120.84,180.79L121.09,218.24L121.33,182.93L121.58,167.64L122.07,199.4L122.31,102.83L123.05,214.33L123.29,118.98L123.78,241.94L124.02,143.47L124.27,180.79L125.25,136.39L125.49,178.11L125.74,260.95L125.98,136.73L126.23,169.51L126.47,175.21L126.71,210.6L126.96,207.96L127.2,159.41L127.69,210.13L127.94,153.04L128.18,181.66L128.43,121.3L128.92,203.65L129.16,178.18L129.41,148.17L129.65,204.52L129.89,137.55L130.14,172.66L130.38,185.19L130.87,147.87L131.12,153.79L131.36,175.08L131.61,125.56L131.85,177.08L132.1,157.14L132.34,285.79L132.59,128.49L133.07,187.63L133.32,155.45L133.81,210.39L134.05,173.46L134.3,191.35L134.79,169.97L135.03,122.68L135.28,192.77L136.01,189.43L136.25,174.32L136.5,180.53L136.74,227.32L136.99,35.84L137.48,196.06L137.72,147.26L137.97,201.52L138.46,166.63L138.7,192.65L138.95,116.47L139.43,128.73L139.68,157.49L139.92,85.06L140.41,104.62L140.66,195.85L141.64,146.51L141.88,238.68L142.37,124.55L142.61,203.56L142.86,189.38L143.35,209.28L143.59,120.07L143.84,167.35L144.33,200.62L144.57,112.08L145.31,188.99L145.55,144.81L146.53,201.53L146.77,188.12L147.02,240.75L147.26,224.35L147.51,135.3L147.75,186.85L148.24,142.34L148.49,131.49L148.97,177.48L149.46,174.13L149.71,145.25L150.2,209.87L150.44,159.02L150.69,162.12L150.93,79.26L151.18,221.04L151.67,101.29L151.91,152.5L152.16,134.12L152.4,158.72L152.64,205.18L153.13,151.34L153.38,195.42L153.62,224.21L154.11,133.3L154.36,149.6L154.6,200.87L155.09,219.22L155.58,216.18L155.82,215.36L156.31,198.44L156.56,134.78L156.8,110.47L157.05,141.85L157.29,184.1L157.54,210.86L157.78,159.97L158.03,82.17L158.76,215.78L159,147.53L159.25,174.53L159.49,170.47L159.74,138.35L160.23,209.32L160.72,195.71L160.96,144.72L161.7,209.22L161.94,154.94L162.43,179.37L162.67,133.46L163.16,220.71L163.65,212.48L163.9,131.34L164.39,171.21L164.63,87.43L164.88,183.11L165.36,107.36L165.61,98.4L166.1,67.68L166.34,169.9L166.59,166.68L166.83,200.5L167.08,100.82L167.57,140.49L167.81,169.23L168.06,177.82L168.3,111.38L169.28,229.88L169.52,225.65L169.77,117.73L170.01,114.89L170.26,127.75L170.75,213.34L170.99,172.23L171.24,149.26L171.48,226.52L171.72,155.01L171.97,117.38L172.7,187.76L172.95,134.24L173.19,214.32L173.68,177.87L173.93,176.23L174.17,214.43L174.42,170.17L174.66,170.22L174.9,100.51L175.15,181.22L175.39,126.6L175.64,202.59L176.13,95.62L176.37,164.09L176.62,149.47L176.86,121.4L177.11,181.22L177.35,198.42L177.6,171.58L177.84,145.54L178.09,114.23L178.33,142.8L178.57,163.01L178.82,158.92L179.06,202.96L179.31,149.55L179.55,165.63L179.8,222.62L181.02,79.1L181.27,159.61L181.75,118.7L182,130.6L182.24,222.33L182.73,162.92L182.98,186.45L183.22,219.72L184.2,164.77L184.45,198.21L184.69,168.5L184.93,235.61L185.91,134.89L186.16,153.45L186.4,172.83L186.65,159.67L186.89,175.56L187.14,197.28L187.38,223.24L187.63,129.28L188.11,155.01L188.36,135.08L188.6,109.65L189.09,212.34L189.58,171.98L189.83,159.35L190.07,151.14L190.32,204.43L190.81,124.12L191.05,197.98L191.29,185.21L191.78,249.68L192.03,179.31L192.27,184.95L192.52,163.99L192.76,200.09L193.01,163.11L193.25,186.11L193.5,183.06L193.74,125.26L193.99,235.71L194.23,175.82L194.47,232.88L194.96,105.33L195.45,144.08L195.7,179.5L196.68,215.57L196.92,114.49L197.17,192.84L197.41,59.44L197.65,185.39L197.9,169.73L198.14,152.61L198.39,157.42L198.63,199.5L198.88,197.26L199.12,185.91L199.61,187.97L199.86,128.4L200.1,141.3L200.35,192.64L200.83,208.67L201.32,96.86L201.57,187.75L201.81,178.5L202.06,182.31L202.3,220.68L203.04,114.75L203.28,166.38L203.77,140.26L204.02,167.24L204.5,108.33L204.75,163.72L205.24,201.16L205.48,169.62L205.73,91.78L206.46,212.93L206.71,158.44L206.95,207.23L207.2,126.45L207.44,46.83L207.93,197.78L208.42,143.3L208.66,148.61L209.64,202.09L209.89,185.72L210.13,174.18L210.38,210.28L210.86,107.32L211.11,179.2L211.35,182.97L211.6,164.4L211.84,249.39L212.09,171.42L212.33,123.68L212.58,172.75L213.07,133.29L213.31,130.01L213.8,129.71L214.29,248.62L214.53,100.49L215.51,185.5L215.76,120.53L216,222.54L216.49,125.36L216.74,184.8L218.2,114.82L218.45,187.6L218.69,215.44L218.94,142.29L219.18,153.12L219.43,213.87L219.92,109.18L220.16,217.22L221.38,118.29L221.63,146.05L222.12,91.61L222.36,141.31L222.61,203.74L223.58,123.29L223.83,142.48L224.32,170.81L224.56,106.97L224.81,201.85L225.05,220.41L225.3,139.07L226.03,195.71L226.28,159.37L226.76,145.53L227.5,222.41L227.74,143.65L228.23,123.69L228.48,175.93L228.97,132.63L229.46,148.97L229.7,179.52L230.43,145.05L230.68,164.39L230.92,210.68L231.17,173.5L231.41,128.59L232.15,217.11L232.64,201.06L232.88,119.34L233.61,225.4L233.86,133.77L234.84,192L235.08,162.65L235.57,94.89L236.06,120.53L236.31,188.6L237.04,128.83L237.28,191.32L237.53,154.65L237.77,172.33L238.02,208.32L238.26,199.39L238.51,137.22L239,203.66L239.24,125.2L239.49,215.67L239.73,166.88L239.97,110.96L240.46,218.5L240.71,176.28L240.95,189.03L241.44,203.32L241.93,122.76L242.18,186.11L242.42,186.88L242.67,147.95L242.91,231.66L243.4,202.4L243.64,167.53L243.89,194.85L244.38,184.91L244.62,116.34L244.87,218.32L245.36,192.6L245.6,66.66L245.85,187.49L246.33,182.37L246.58,177.03L246.82,183L247.07,33.66L247.56,222.71L247.8,178.71L248.05,144.95L248.29,161.07L248.78,149.4L249.03,260.48L249.76,155.33L250,161.77L250.25,170.45L250.49,171.32L250.74,155.21L250.98,153.41L251.23,193.78L251.47,203.05L251.72,155.51L251.96,213.72L252.21,199.31L252.45,149.19L253.43,194.98L253.67,176.04L253.92,139.09L254.16,172.11L254.41,202.94L255.39,119.48L255.63,156.76L256.36,63.85L256.61,177.27L256.85,107.19L257.1,165.11L257.34,183.37L257.59,131.77L257.83,214.56L258.08,162.12L258.32,142.97L258.81,126.23L259.54,226.18L259.79,204.04L260.52,121.57L260.77,212.34L261.5,91.1L261.75,142.34L261.99,147.03L262.24,69.22L263.21,206.85L263.46,82.32L263.7,169.66L264.19,141.27L264.44,162.59L264.68,147.6L264.93,182.68L265.17,108.41L265.42,191.44L265.66,162.51L265.9,135.86L266.15,140.01L266.39,227.82L267.37,72.62L267.62,136.66L268.6,187.37L268.84,140.78L269.57,190.47L269.82,123.55L270.55,166.22L270.8,109.8L271.04,88.43L271.29,177.27L271.78,157.21L272.02,206.24L272.26,77.69L272.51,235.93L272.75,215.27L273,109.95L273.73,178.73L273.98,154.8L274.22,154.1L274.47,180.48L274.71,83.04L274.96,210.78L275.44,136.77L275.69,173.71L275.93,120.63L276.18,144.36L276.42,187.45L276.67,172.05L276.91,197.26L277.16,206.27L277.4,187.12L277.65,240.26L278.14,166.08L278.38,171.42L278.62,190.08L279.36,131.49L279.6,176.86L279.85,217.22L280.09,125.23L280.58,225.29L280.83,107.37L281.32,177.64L281.56,133.48L281.8,117.73L282.54,208.69L282.78,184.83L283.03,154.63L283.27,76.46L283.52,160.69L283.76,181.83L284.01,43.4L284.5,153.2L284.74,173.46L284.98,189.76L285.23,127.56L286.21,184.06L286.45,136.55L286.7,228.03L287.19,171.14L287.43,146.72L287.68,194.28L287.92,151.85L288.17,136.86L289.14,227.77L289.39,143.37L289.63,144.95L289.88,115.72L290.12,197.25L290.61,197L290.86,155.99L291.1,189.24L291.35,108.16L292.08,183.3L292.32,91.05L293.06,175.66L293.3,164.33L293.55,181.17L293.79,133.56L294.04,116.83L294.28,212.97L295.01,189.55L295.26,90.66L295.75,200.42L295.99,108.87L296.24,74.02L297.22,196.83L297.46,183.61L297.71,118.48L297.95,123.58L298.19,223.45L298.44,144.67L298.68,148.04L298.93,227.02L299.42,140.36L299.66,145.94L299.91,205.48L300.15,230.12L300.4,144.49L300.64,145.92L300.89,193.09L301.37,148.19L301.62,96.13L301.86,171.2L302.35,162.41L302.6,64.54L303.09,197.28L303.33,180.47L303.58,139.12L303.82,136.95L304.07,103.13L304.31,222.22L304.8,117.35L305.04,126.54L305.53,93.05L305.78,213.54L306.02,162.91L306.27,192.25L306.51,223.47L306.76,165.42L307.25,181.16L307.49,216.43L307.98,161.32L308.22,175.85L308.47,213.26L308.71,198.95L308.96,82.98L309.45,160.05L309.94,149.9L310.18,157.91L310.43,213.05L310.67,127.38L310.91,195.71L311.16,124.29L311.4,231.32L311.89,129.49L312.14,124.87L312.38,123.62L312.63,171.8L313.12,126.45L313.36,193.79L313.85,89.36L314.1,155.51L314.34,212.73L315.07,165.82L315.32,210.29L315.81,95.27L316.05,227.95L316.3,150.38L316.79,177.41L317.03,169.49L317.28,178.75L317.52,112.12L318.5,181.64L318.74,162.68L318.99,95.48L319.48,137.37L319.72,168.29L319.97,166.06L320.21,207.57L320.46,119.99L320.7,156.64L320.94,225.9L321.19,140.14L321.68,157.71L321.92,154.54L322.66,216.25L322.9,192.33L323.15,195.91L323.39,125.53L323.64,191.85L323.88,202.05L324.12,188.13L324.37,125.81L324.86,203.87L325.1,141.63L325.35,92.02L325.59,121.56L325.84,144.97L326.08,108.71L326.33,151.46L326.57,183.9L326.82,198.25L327.06,172.18L327.3,81.79L327.79,179.24L328.28,178.68L328.53,222.64L328.77,132.54L329.26,186L329.51,194.18L329.75,219.53L330,191.28L330.24,123.79L330.48,238.32L330.97,126.13L331.22,102.7L331.95,166.67L332.2,160.11L332.44,151.53L332.69,191.58L332.93,184.37L333.18,125.12L333.66,116.05L334.15,213.17L334.4,157.72L334.64,108.68L334.89,180.3L335.13,156.19L335.38,171.59L336.11,101.92L336.36,158.13L336.6,171.27L336.84,147.06L337.09,131.5L337.33,207L337.58,82.76L337.82,161.32L338.07,153.07L338.31,171.22L338.56,70.94L338.8,170.45L339.29,135.31L339.54,115.26L340.03,178.19L340.27,154.81L340.51,57.24L340.76,182.38L341.25,126.09L341.49,151.5L341.74,230.67L341.98,125.94L342.23,172L342.47,173.43L342.72,122.41L342.96,222.02L343.21,130L343.45,189.16L343.69,89.38L344.18,181.69L344.43,167.05L344.92,75.4L345.41,83.15L345.65,155.73L346.14,209.12L346.39,140.73L346.87,204.64L347.12,149.43L347.36,99.72L347.61,104.74L347.85,179.35L348.1,174.3L348.34,188.36L349.08,137.89L349.57,153.72L349.81,156.54L350.05,162.51L350.3,158.23L350.54,240.9L351.28,139.5L351.52,147.94L351.77,116.82L352.01,203.07L352.26,64.68L352.5,140.04L352.75,167.06L352.99,188.33L353.23,182.38L353.48,163.36L353.72,101.35L354.21,150.28L354.46,170.62L354.7,121.6L354.95,156.35L355.19,221.39L355.93,88.29L356.17,142.47L356.41,121.75L356.66,195.21L357.15,176.75L357.39,138.93L357.64,140.1L357.88,133.64L358.13,102.05L358.37,193.58L358.86,163.62L359.11,202.64L359.35,127.76L359.84,154.35L360.08,169.4L360.57,169.55L360.82,136.69L361.06,172.87L361.55,150.44L361.8,207.19L362.04,73.87L362.53,140.85L362.77,201.49L363.26,76.34L363.51,171.8L363.75,147.47L364.24,158.17L364.49,114.76L364.73,136.42L365.47,211.99L365.71,175.88L365.95,180.48L366.2,108.24L366.93,172.05L367.18,117.86L367.42,197.3L367.91,178.24L368.16,158.25L368.65,168.75L368.89,197.54L369.87,117.05L370.11,145.09L370.36,240.72L370.6,129.47L370.85,77.78L371.83,210.6L372.07,151.57L372.32,161.29L372.56,123.35L372.8,159.4L373.05,47.08L374.03,163.45L374.27,193.11L374.76,207.49L375.01,82.29L375.5,82.49L375.74,152.51L376.23,142.62L376.72,203.48L376.96,175.6L377.45,127.35L377.94,147.38L378.19,193.41L379.16,92.43L379.41,200.76L379.9,106.07L380.14,182.74L380.39,154.5L380.63,163.71L380.88,146.57L381.12,150.55L381.37,145.6L381.61,170.36L381.86,171.95L382.1,119.17L383.08,224.08L383.32,153.2L383.57,208.26L383.81,178.29L384.06,118.51L384.3,178.14L384.55,68.23L384.79,134.85L385.04,152.3L385.52,165.32L385.77,118.35L386.01,180.34L386.5,145.34L386.75,202.83L387.24,100.96L387.48,120.14L387.73,214.46L388.22,108.6L388.46,179.13L388.7,217.66L389.19,190.13L389.44,162.64L389.93,208.44L390.17,124.09L390.42,195.54L390.66,121.03L390.91,82.68L391.15,163.73L391.64,128.17L391.88,128.74L392.13,208.28L392.62,145.99L392.86,145.58L393.11,137.56L393.35,160.35L393.6,202.55L394.09,179.76L394.33,168.67L394.58,77.89L394.82,178.83L395.07,181.91L395.31,152.05L395.55,191.28L395.8,179.05L396.04,188.5L396.29,81.34L396.78,185.7L397.02,108.9L397.51,108.53L397.76,225.67L398,160.32L398.25,159.63L398.49,136.91L399.22,183.5L399.47,182.11L399.71,198.47L399.96,161.7L400.2,244.16L400.45,110.66L400.94,113.85L401.18,161.14L401.43,161.75L401.67,157L402.16,129.36L402.4,62.7L402.89,188.32L403.14,152.26L403.38,94.54L403.63,114.33L403.87,72.32L405.09,220.68L405.34,153.35L405.58,93.36L405.83,120.83L406.07,158.41L406.81,164.83L407.05,196.71L407.3,98.4L407.54,210.9L407.79,171.2L408.03,121.55L408.76,172.92L409.01,133.81L409.5,178.58L409.74,119.6L409.99,186.38L410.23,139.74L410.48,52.41L410.72,204.17L411.21,105.81L411.45,118.67L411.7,99.53L411.94,156.01L412.68,177.9L412.92,124.56L413.17,88.54L413.41,114.2L413.66,216.38L413.9,127.1L414.39,175.22L414.63,168.48L414.88,226.48L415.37,200.97L415.61,131.82L415.86,127.12L416.1,95.07L416.84,185.52L417.08,121.58L417.33,161.91L417.57,143.36L417.81,114.75L418.79,180.94L419.04,166.26L419.77,143.48L420.02,168.41L420.26,87.03L420.51,183.64L420.75,173.1L420.99,130.64L421.24,219.1L421.73,131.37L421.97,166.7L422.46,118.63L422.95,132.11L423.2,146.81L423.44,195.49L423.69,166.5L423.93,92.33L424.18,168.38L424.66,142.58L424.91,148.94L425.15,137.06L425.4,74.91L426.13,234.11L426.38,173.52L426.62,168.29L426.87,96.29L427.36,166.61L427.6,115.77L428.09,139.53L428.33,79.99L428.58,92.73L428.82,161.38L429.07,188.02L429.31,114.07L429.56,137.86L429.8,64.72L430.29,182.31L430.78,175.73L431.02,102.82L431.76,208.71L432,185L432.25,129.33L432.49,16.5L432.74,199.24L432.98,197.84L433.47,36.22L433.72,169.88L433.96,187.71L434.45,153.17L434.69,163.16L434.94,161.17L435.43,199.96L435.67,79.64L435.92,178.32L436.16,127.7L436.65,150.68L436.9,135.78L437.38,215.93L437.63,113.72L437.87,122.08L438.12,180L438.36,121.21L438.61,205.5L438.85,150.39L439.1,178.26L439.34,176.41L439.59,161.69L439.83,169.34L440.08,123.69L440.56,200.35L440.81,77.71L441.79,178.93L442.03,117.47L442.28,150.37L442.52,148.79L442.77,86.75L443.5,205.74L443.74,105.7L444.97,229.26L445.21,140.06L445.46,74.56L445.95,128.21L446.19,167L446.44,205.23L446.68,125.17L446.92,185.98L447.41,171.19L447.66,155.29L448.15,89.87L448.64,95.08L448.88,156.72L449.86,101.54L450.11,157.86L450.35,116.54L450.59,169.96L450.84,126.64L451.08,161.99L451.82,64.09L452.06,97.31L452.31,200.95L453.29,106.33L453.53,152.78L453.77,124.15L454.02,201.19L454.51,115.99L455,142.54L455.24,157.75L455.73,130.43L455.98,172.16L456.47,80.66L456.71,121.8L456.95,157.05L457.2,193.61L457.44,72.44L458.18,184.02L458.42,145.41L458.67,155.01L458.91,157.64L459.16,104.64L460.13,197.36L460.38,105.45L460.62,218.44L461.11,153.84L461.36,168.22L461.6,114.77L462.09,137.76L462.34,193.25L463.07,88.07L463.31,124.9L463.56,149.8L463.8,93.73L464.05,189.81L464.29,167.51L464.54,178.97L464.78,168.57L465.03,125.53L465.27,111.46L465.52,147.2L465.76,87.53L466.25,107.68L466.49,127.1L466.98,182.29L467.23,122.78L467.47,205.9L467.72,108.71L467.96,75.25L469.19,204.74L469.43,150.57L469.67,129.24L469.92,153.58L470.16,136.6L470.41,162.99L470.9,148.69L471.14,167.18L471.39,163.94L471.63,141.24L471.88,152.64L472.12,112.74L472.37,184.37L472.61,109.74L472.85,164.63L473.1,143.21L473.34,122.92L473.59,191.15L474.32,117.14L474.57,186.84L474.81,168.8L475.06,89.46L475.3,175.27L475.79,170.34L476.04,165.59L476.28,167.87L476.52,113.08L476.77,118.43L477.01,155.78L477.26,74.16L477.5,184.19L477.75,157.71L477.99,112.08L478.24,108.79L478.48,232.48L479.46,82.07L479.7,209.15L480.19,49.34L480.44,206.71L480.68,143.45L480.93,96.79L481.17,177.88L481.42,112.52L481.66,109.45L481.91,173.93L482.15,166.66L482.4,46.25L482.88,180.3L483.13,118.76L483.37,138.31L483.62,136.06L483.86,139.32L484.11,137.98L484.35,151.59L484.6,220.17L485.09,166.28L485.33,94.96L485.58,189.49L486.06,142.33L486.31,118.91L486.55,113L486.8,149.5L487.04,96.03L487.29,205.18L487.53,129.93L487.78,192.87L488.51,93.94L488.76,147.46L489,132.58"/></g><g class="points"/><g class="text"/></g><g class="trace scatter tracea4dd68" style="stroke-miterlimit: 2; opacity: 1;"><g class="fills"/><g class="errorbars"/><g class="lines"><path class="js-line" style="vector-effect: non-scaling-stroke; fill: none; stroke: rgb(214, 39, 40); stroke-opacity: 1; stroke-width: 2px; opacity: 1;" d="M0,192.65L0.49,295.88L0.73,235.11L0.98,217.24L2.2,257.93L2.45,228.62L2.94,261.58L3.18,278.77L3.91,230.75L4.16,250.95L4.4,257.38L4.65,289.39L4.89,240.22L5.14,268.37L5.38,246.39L5.63,290.7L5.87,217.63L6.12,245.19L6.36,197.05L6.6,277.23L6.85,183.51L7.09,215.39L7.34,217.26L7.58,212.26L7.83,254.81L8.07,218.6L8.32,238.19L8.56,272.44L8.81,210.78L9.3,225.69L9.54,251.01L10.27,208.51L10.52,223.78L10.76,214.28L11.01,222.49L11.25,226.7L11.99,261.55L12.23,222L12.72,257.49L12.96,212.2L13.94,257.51L14.19,280.09L14.68,206.25L14.92,277.91L15.17,246.71L15.41,292.74L15.66,230.97L15.9,218.09L16.15,192.61L16.39,246.41L16.63,233.66L16.88,265.23L17.12,266.5L17.37,276.72L17.86,245.06L18.35,248.72L18.59,249.71L18.84,234.72L19.08,265.83L20.06,195.78L20.3,212.98L20.55,280.28L20.79,212.46L21.04,227.23L21.28,222.07L21.53,213.46L21.77,244.25L22.02,227.52L22.26,274.59L22.75,238.65L22.99,270.61L23.24,287.4L23.48,216.25L23.73,211.47L23.97,246.17L24.22,240.99L24.46,282.54L24.95,231.5L25.2,268.85L25.44,227.46L25.93,234.43L26.17,259.35L26.42,285.77L26.66,264.39L26.91,209.24L27.64,259.94L27.89,219.95L28.38,268.27L28.87,263.64L29.11,227.95L29.84,285L30.09,250.85L30.33,213.74L30.82,220.82L31.07,257.85L31.31,313.5L31.56,248.06L31.8,248.2L32.05,196.63L32.53,236.03L32.78,253.65L33.76,209.28L34,274.15L34.25,178.28L34.49,242.82L34.74,279.57L34.98,219.85L35.47,220.44L35.71,235L35.96,206.53L36.2,252.4L36.45,245.81L36.94,236.23L37.43,273.57L37.67,308.59L38.65,209.77L38.89,234.04L39.14,199.45L39.38,230.26L39.63,289.07L40.36,192.86L40.61,259.42L40.85,262.46L41.1,244.89L41.34,198.4L41.59,198.43L41.83,261.59L42.08,279.05L42.32,259.83L42.56,241.45L42.81,276.05L43.05,260.29L43.3,210.54L43.54,271.17L44.03,264.59L44.28,207.86L44.52,270.45L44.77,222.88L45.01,200.41L46.23,270.74L46.48,217.38L46.97,253.42L47.21,245.65L47.46,247.63L47.7,282.89L47.95,228.35L48.19,249.7L48.44,248.61L48.68,240.66L48.92,252.87L49.41,240.83L49.66,246.07L49.9,270.15L50.15,244.34L50.39,226.34L50.64,239.94L50.88,223.15L51.37,239.4L51.62,200.71L51.86,283.44L52.35,207.8L52.59,240.61L52.84,230.11L53.08,278.61L54.31,208.86L54.55,239.65L54.8,234.57L55.04,202.43L55.28,252.28L55.77,242.65L56.02,240.41L56.75,208.85L57,248.34L57.24,196.7L57.49,242.09L57.73,290L57.98,202.24L58.46,219.25L58.71,242.14L58.95,199.1L59.2,261.7L59.44,239.84L59.69,277.68L59.93,200.9L60.42,276.2L60.67,253.16L61.4,247.31L61.64,236.86L61.89,253.38L62.13,251.08L62.38,220.87L62.62,260.91L63.11,246.64L63.36,240.36L63.6,238.72L63.85,197.04L64.82,279.64L65.07,272.99L65.8,234.86L66.05,251.94L66.29,261.1L66.54,203.64L67.52,262.38L67.76,247.22L68.25,273.01L68.49,222.04L69.23,221.74L69.72,285.4L69.96,274.72L70.21,246.69L70.45,268.73L70.7,279.77L70.94,212.3L71.43,219.05L71.67,275.94L72.16,179.35L72.41,208.39L72.65,266.31L72.9,220.88L73.39,243.55L73.63,246.91L73.88,267.22L74.12,251.39L74.37,244.65L74.61,273.13L74.85,192.98L75.1,166.78L75.34,252.76L75.59,251.97L75.83,218.59L76.08,212.43L76.32,260.12L76.81,212.4L77.06,241.48L77.3,280.67L77.79,285.27L78.28,218.83L78.52,244.95L78.77,244.49L79.01,248.7L79.26,257.87L79.5,209.26L79.99,266.6L80.24,243.99L80.48,207.93L80.73,211.62L80.97,252.63L81.95,209.14L82.19,260.19L82.68,212.08L83.17,221.28L83.42,222.27L83.66,280.97L84.15,268.21L84.39,258.68L84.88,211.76L85.13,223.21L85.37,238.64L85.86,227.13L86.11,266.83L86.35,247.13L86.84,259.43L87.09,208L87.33,261.19L87.82,254.32L88.06,234.91L88.31,263.69L88.55,192.95L89.04,265.46L89.53,262.87L89.78,192.08L90.75,254.48L91,244.36L91.24,250.22L91.49,238.52L91.73,257.3L91.98,256.89L92.71,200.3L92.96,260.8L93.45,226L93.69,276.32L94.18,225.93L94.42,240.39L94.67,258.35L94.91,258.79L95.16,218.79L95.65,255.51L95.89,244.91L96.14,227.6L96.38,217.21L96.63,300.73L97.12,232.7L97.36,250.02L97.6,279.45L98.09,209.83L98.34,256.59L98.58,253.26L98.83,255.96L99.07,253.31L99.32,198.42L99.81,254.88L100.05,249.02L100.3,242.55L100.78,253.36L101.03,219.95L101.27,275.15L102.01,208.42L102.25,260.84L102.99,208.3L103.23,238.56L103.48,240.77L103.72,239.04L103.96,230.16L104.45,193.43L104.7,258.27L104.94,252.97L105.19,228.7L105.43,266.04L105.92,229.13L106.17,168.3L106.41,290.23L106.9,215.13L107.14,219.28L107.88,270.04L108.12,231.93L108.37,225.72L108.61,253.09L108.86,276.97L109.1,234.6L109.35,244.41L109.84,246.22L110.08,167.39L110.32,264.83L110.57,266.74L110.81,231.28L111.55,301.5L111.79,248.87L112.04,199.75L112.28,251.36L112.53,219.93L112.77,302.84L113.26,231.14L113.5,278.62L113.99,224.35L114.24,228.81L114.48,248.06L114.73,253.58L114.97,222.88L115.22,236L115.46,224.91L115.71,200.26L116.2,275.1L116.44,227L116.68,244.77L117.42,228.83L117.66,155.94L117.91,284.81L118.4,263.52L118.64,229.44L119.13,232.66L119.38,164.35L119.62,276.93L120.6,185.69L120.84,251.41L121.09,277.39L121.33,241.36L121.58,239.65L121.82,245.91L122.07,291.29L122.31,196.48L122.8,253.88L123.05,249.15L123.29,193.88L123.53,246.36L123.78,272.88L124.76,213.17L125,259.7L125.25,207.64L125.49,225.55L125.74,281.08L126.47,217.15L126.71,260.68L126.96,264.7L127.2,206.32L127.45,214.45L127.69,281.35L127.94,207.39L128.43,211.75L128.67,249.23L128.92,250.2L129.16,238.67L129.41,209.53L129.65,263.57L129.89,223.49L130.14,217.57L130.63,260.9L130.87,217.82L131.12,203.95L132.34,287.65L132.59,233.6L132.83,242.45L133.07,230.64L133.32,231.06L133.81,279.66L134.05,236.9L134.3,257.41L134.54,257.3L134.79,245.4L135.03,213.64L135.28,250.39L135.52,245.07L135.77,231.2L136.01,231.24L136.25,221.49L136.74,285.47L136.99,177.26L137.97,272.39L138.21,238.66L138.46,250.61L138.7,249.62L138.95,211.59L139.19,191.89L139.43,211.91L139.68,217.11L139.92,203.09L140.41,208.78L140.66,255.47L140.9,269.02L141.15,245.21L141.39,201.83L141.88,269.38L142.13,254.63L142.37,207.4L142.86,264.58L143.1,238.77L143.35,247.77L143.59,202.23L144.08,246.49L144.33,237.02L145.06,209.33L145.31,261.51L145.55,192.56L146.04,231.56L146.28,216.73L146.77,265.1L147.02,300.86L147.51,198.48L147.75,255.97L148.24,210.43L148.73,212.89L148.97,244.32L149.22,204.76L149.71,214.07L149.95,232.87L150.2,271.2L150.69,248.97L150.93,242.26L151.18,279.17L151.42,160.27L152.64,263.79L152.89,222.23L153.62,266.07L153.87,252.15L154.11,228.81L154.36,212.09L154.6,248.3L154.85,229.03L155.09,303.12L156.07,238.76L156.31,262.98L157.05,195.47L157.29,259.89L157.78,252.1L158.03,198L158.76,259.37L159,240.55L159.25,249.6L159.49,220.26L159.74,215.24L159.98,236.94L160.23,278.33L160.72,259.27L160.96,258.28L161.21,271.07L161.45,239.92L161.7,268.74L161.94,215.05L162.18,241.25L162.43,228.18L163.65,261.73L163.9,196.03L164.14,250.02L164.63,203.53L164.88,246.45L165.61,191.62L165.85,228.33L166.1,160.76L166.34,230.95L166.59,230.49L166.83,259.46L167.08,180.44L167.57,215.38L167.81,224.46L168.06,251.84L168.3,191.29L169.28,274.61L169.52,269.95L169.77,186.21L170.26,249.32L170.5,222.04L170.75,284.75L171.24,231.51L171.48,264.8L171.97,190.75L172.21,272.21L172.46,185.76L172.95,197.34L173.19,260.69L173.44,212.16L173.93,231.25L174.17,259.16L174.66,266.63L174.9,194.13L175.15,237.73L175.39,229.7L175.64,265.74L176.13,214.14L176.37,228.99L176.62,256.99L176.86,209.66L177.11,264.02L177.35,254.83L177.6,251.11L178.33,188.02L178.57,225.24L178.82,216.39L179.06,252.77L179.55,200.95L179.8,276.52L181.02,189.84L181.27,243.91L181.75,182.24L182,220.09L182.24,264.72L182.73,239.82L182.98,246.81L183.22,263.91L183.71,275.1L183.96,249.89L184.2,250.57L184.45,256.96L184.69,228.44L184.93,280.74L185.18,257.97L185.42,241.92L186.16,208.62L186.4,239.62L186.65,268.52L186.89,204.87L187.38,271.68L187.63,221.27L187.87,212.56L188.11,202.28L188.36,228.85L188.6,205.34L188.85,217.21L189.09,256.88L189.34,204.97L189.83,241.42L190.07,228.84L190.32,259.53L190.56,223.09L190.81,208.83L191.78,290.82L192.03,238.05L192.52,236.58L192.76,255.8L193.01,224.7L193.25,225.73L193.5,220.65L193.74,194.54L193.99,272.26L194.47,272.63L194.72,246.2L194.96,165.65L195.7,258.96L195.94,240.49L196.68,266.87L196.92,173.35L197.17,264.21L197.65,237.14L197.9,250.67L198.14,235.03L198.39,237.59L198.63,262.05L198.88,262.59L199.12,224.87L199.37,218.52L199.61,239.8L200.1,233.42L200.35,249.59L200.83,258.16L201.08,180.84L201.32,204.75L201.57,252.81L202.06,219.2L202.3,276.23L202.55,207.52L203.04,213.76L203.28,241.65L203.77,198.65L204.02,221.18L204.26,229.32L204.5,212.61L204.75,224.33L204.99,242.43L205.24,281.27L205.48,205.7L205.73,187.35L206.46,261.58L206.71,244.97L206.95,253.14L207.2,219.95L207.44,168.57L207.68,216.85L207.93,235.14L208.42,194.15L208.66,200.52L208.91,260.3L209.15,240.25L209.4,263.25L209.64,277.9L210.13,240.63L210.38,276.24L211.11,224.29L211.35,232.19L211.6,260.56L211.84,306L212.09,239.06L212.33,189.9L212.58,254.37L213.07,216.16L213.31,199.06L214.29,291.39L214.53,202.01L215.02,251.8L215.51,251.57L215.76,183.35L216,282.63L216.49,227.55L216.74,267.02L217.47,211.09L217.71,213.96L217.96,206.16L218.2,186.36L218.45,253.83L218.69,262.29L218.94,232.67L219.18,232.24L219.43,265.16L219.92,234.94L220.16,263.17L220.4,256.25L220.89,260.61L221.63,218.9L221.87,235.23L222.12,215.57L222.36,237.92L222.61,251.13L222.85,217L223.1,291.47L223.34,201.72L223.83,210.67L224.07,226.13L224.56,214.09L224.81,265.37L225.05,260.89L225.3,212.34L225.79,257.59L226.03,245.82L226.28,220.3L226.52,231.96L226.76,206.91L227.25,286.3L227.5,268.6L227.74,236.34L227.99,253.96L228.23,228.41L228.48,250.21L228.72,237.28L229.21,226.87L229.46,231.32L229.7,237.41L229.94,216.08L230.43,220.5L230.68,231.18L230.92,264.93L231.41,250.17L231.66,247.55L231.9,185.76L232.15,258.62L232.39,223.25L232.64,249.07L233.37,208.73L233.61,300.38L233.86,229.27L234.35,245.37L234.59,265.47L235.33,195.18L235.57,201.29L235.82,254.09L236.55,191.68L236.79,215.25L237.04,192.54L237.28,235.07L237.53,227.95L238.02,283.71L238.26,268.39L238.51,203.77L239.49,266.48L239.73,210.47L239.97,207.19L240.22,267.4L240.46,262.98L240.71,230.84L240.95,236.74L241.2,223.2L241.69,233.02L241.93,217.21L242.18,274.67L242.42,248.27L242.67,214.84L242.91,286.28L243.4,265.28L243.64,225.09L244.87,280.09L245.11,216.6L246.09,254.74L246.33,242.14L246.58,242.37L246.82,233.26L247.07,166.92L247.31,221.66L247.56,267.65L248.54,205.22L248.78,240.83L249.03,298.57L249.51,257.92L249.76,237.89L250,204.46L250.25,226.38L250.49,247.94L250.74,253.26L250.98,222.23L251.47,251.73L251.72,226.58L251.96,259.14L252.45,238.88L252.69,241.78L252.94,235.19L253.18,265.56L253.43,270.83L253.67,248.08L254.16,242.67L254.41,275.8L255.39,217.01L255.63,208.32L256.12,237.25L256.36,202.76L256.85,200.22L257.1,244.3L257.34,227.7L257.59,207.71L257.83,260.21L258.08,187.82L258.57,227.43L258.81,227.59L259.06,268.38L259.54,266.79L259.79,252.49L260.03,258.88L260.28,237.75L260.52,233.86L260.77,276.8L261.75,195.35L261.99,220.22L262.24,146.74L262.48,247.58L262.72,253.49L262.97,251.61L263.21,243.09L263.46,207.01L263.95,237.71L264.19,212.05L264.93,243.84L265.17,196.45L265.66,256.01L265.9,236.49L266.15,233.63L266.39,261.34L266.64,214.38L266.88,226.93L267.13,249.57L267.37,175.97L267.86,257.25L268.35,235.32L268.6,242.2L268.84,222.81L269.08,245.99L269.33,236.04L269.57,246.17L269.82,214.91L270.06,233.02L270.31,247.81L270.8,208.62L271.04,208.93L271.29,228.73L271.53,237.71L271.78,226L272.02,264.23L272.26,176.81L272.51,278.98L272.75,263.95L273,212.89L273.49,246.92L273.98,239.91L274.22,236.22L274.47,231.23L274.71,166.06L274.96,262.94L275.44,197.11L275.69,241.68L275.93,204.97L276.18,232.91L276.42,254.28L276.67,236.66L276.91,262.45L277.16,255.91L277.4,253.93L277.65,294.01L278.38,212.77L278.62,279.51L279.36,205.63L279.6,235.66L279.85,265.32L280.34,227.91L280.58,269.26L280.83,207.57L281.32,267.27L281.56,215.09L281.8,220.6L282.05,249.48L282.29,221.72L282.54,257.07L282.78,267.8L283.27,196.14L283.52,235.83L283.76,257.86L284.01,206.29L284.5,212.74L284.74,243.7L284.98,247L285.23,202.26L285.47,208.85L285.72,237.47L285.96,248L286.21,244.53L286.45,195.37L286.7,258.87L287.19,241.88L287.43,224.43L287.68,256.14L287.92,219.24L288.17,241.85L288.41,235.35L288.65,302.31L288.9,232.58L289.14,268.77L289.39,230.26L289.63,234.96L289.88,205.29L290.12,266.72L290.37,194.17L290.61,250.57L290.86,230.08L291.1,224.46L291.35,226.45L291.59,249.9L291.83,216.86L292.32,224.78L292.57,249.11L293.06,230.85L293.3,239.9L293.55,266.84L294.04,195.6L294.28,268.05L294.53,268.46L294.77,258.78L295.01,260.12L295.26,210.99L295.5,213.07L295.75,262.78L296.24,197.16L296.73,218.85L296.97,226.95L297.22,253.13L297.46,246.13L297.71,202.81L298.19,299.56L298.44,205.76L298.93,278.78L299.17,254.72L299.42,240.9L299.66,262.73L300.15,259.89L300.4,223.68L300.89,249.4L301.13,237.42L301.37,220.63L301.62,199.71L301.86,239.42L302.11,220.21L302.35,240.59L302.6,184.63L302.84,214.77L303.09,261.64L304.07,202.43L304.31,253.67L305.29,190.81L305.53,210.58L306.51,272.26L306.76,240.05L307.25,221.59L307.49,257.96L308.22,225.73L308.47,251.45L308.71,261.58L308.96,226.83L309.45,235.52L309.69,202.5L309.94,207.46L310.18,236.9L310.43,258.18L310.67,231.01L310.91,257.32L311.16,223.7L311.4,278.09L311.65,265.75L311.89,205.24L312.38,191.67L312.63,241.85L312.87,215.66L313.12,204.13L313.36,254.02L313.85,184.95L314.1,257.4L314.34,284.9L314.58,226.55L314.83,248.19L315.07,213.93L315.32,261.87L315.56,249.26L315.81,218.84L316.05,271.24L316.54,233.78L316.79,255.18L317.52,216.05L317.76,258.68L318.99,178.27L319.23,204.14L320.21,269.13L320.46,226.51L320.7,231.74L320.94,286.82L321.92,222.82L322.17,254.5L322.41,253.77L322.66,267.15L323.15,242.13L323.39,196.14L323.88,258.57L324.12,247.55L324.37,196.05L324.86,269.48L325.1,244.25L325.35,221.7L325.59,185.62L326.08,206.79L326.33,210.29L326.82,263.37L327.06,234.91L327.3,192.74L327.79,256.76L328.04,226.32L328.28,230.81L328.53,288.86L328.77,202.88L329.02,266.52L329.26,270.97L329.75,279.76L330.24,203.23L330.48,283.91L330.73,265.02L330.97,266.18L331.22,178.84L331.46,249.53L331.95,246.85L332.2,232.33L332.44,253.34L332.93,248.86L333.18,199.69L333.66,189.64L334.15,274.93L334.4,253.95L334.64,186.53L335.13,222.11L335.38,243.13L335.62,196.12L336.11,231.23L336.36,245.56L336.6,244.83L336.84,217.71L337.09,199.14L337.33,255.5L337.58,183.84L338.07,217.04L338.31,229.38L338.56,160.95L338.8,263.81L339.05,238.71L339.54,177.97L339.78,203.22L340.03,239.58L340.27,236.9L340.51,172.88L341,237.37L341.25,225.13L341.49,219.67L341.74,282.01L341.98,217.46L342.23,260.69L342.47,236.85L342.72,231.4L342.96,282.93L343.94,196.84L344.18,245.27L345.16,211.67L345.41,217.54L345.65,214.57L345.9,251.74L346.14,268.37L346.39,203.27L346.87,263.47L347.12,226.3L347.36,200.36L348.59,259.57L348.83,224.46L349.32,249.07L349.57,279.83L349.81,219.02L350.3,232.36L350.54,286.04L351.28,218.02L351.52,239.74L351.77,219.54L352.01,259.88L352.26,186.63L352.5,225.58L352.75,244.81L352.99,239.18L353.23,239.79L353.48,250.86L353.72,181.91L354.21,212.49L354.46,215.16L354.7,207.59L354.95,245.24L355.19,269.28L355.44,239.76L355.68,224.27L355.93,188.01L356.41,201.84L356.66,235.27L356.9,196.56L357.15,248.05L357.39,246.81L357.64,214.06L358.13,225.23L358.37,256.39L359.59,216.04L359.84,205.33L360.57,258.76L360.82,214.13L361.8,250.19L362.04,201.72L362.77,246.8L363.02,223.52L363.26,187.41L363.51,257.05L364,206.4L364.24,236.12L364.73,214.87L364.98,281.59L365.22,220.25L365.71,255.52L365.95,242.2L366.2,192.46L366.69,201.08L366.93,212.93L367.18,211.23L367.42,246.08L367.91,220.36L368.16,249.99L368.4,236.17L368.65,247.14L368.89,270.47L369.87,208.1L370.11,231.13L370.36,286.37L370.6,244.06L370.85,212.32L371.09,206.95L371.34,244.52L371.58,209.66L371.83,260.86L372.07,225.09L372.32,240.2L373.05,184.81L373.29,233.09L373.54,244.54L373.78,209.43L374.76,243.55L375.01,165.17L375.98,248.25L376.23,216.15L376.72,302.94L376.96,247.32L377.21,212.78L378.19,247.68L378.43,207.14L379.41,264.04L379.65,222.21L379.9,194.89L380.14,254.93L381.12,216.89L381.37,245.42L382.1,189.76L382.34,223.02L382.59,217.72L382.83,236.78L383.08,220.38L383.32,205.53L383.57,270.2L383.81,230.85L384.06,202.21L384.3,240.04L384.55,197.92L384.79,221.47L385.04,212.99L385.28,207.56L385.52,265.02L385.77,196.96L386.26,245.08L386.5,240.75L386.75,267.09L386.99,229.2L387.24,181.62L387.73,262.56L387.97,213.64L388.22,228.54L388.95,271.34L389.19,265.82L389.44,233.32L389.93,252.82L390.17,211.59L390.42,272.22L390.66,210.34L390.91,176.81L391.64,236.45L391.88,215.71L392.13,290.31L392.37,233.49L392.62,210.35L393.6,259.42L393.84,230.49L394.09,229.98L394.33,253.87L394.58,214.75L395.07,231.08L395.31,223.85L395.8,257.89L396.04,244.17L396.29,166.99L397.27,249.57L397.51,251.64L397.76,273.83L398,226.77L398.25,226.58L398.49,238.16L398.98,212.18L399.22,266.32L399.96,215.96L400.2,292.96L400.45,201.77L400.94,204.44L401.18,212.59L401.91,230.22L402.16,197.27L402.89,245.49L403.14,227.21L403.87,150.47L404.12,241.06L404.36,241.68L404.61,193.42L405.09,264.17L405.34,233.05L405.58,205.26L405.83,199.09L406.07,235.09L406.56,246.23L406.81,227.55L407.3,206.7L407.54,253.13L407.79,245.34L408.03,208.68L408.52,223.13L408.76,231.71L409.01,221.97L409.25,238.44L409.5,250.75L409.99,251.98L410.23,215.73L410.48,186L410.72,259.69L411.21,181.7L411.45,192.83L411.7,191.89L411.94,224.04L412.19,259.17L412.68,239.17L412.92,233.94L413.17,192.04L413.41,221.8L413.66,279.48L413.9,196.86L414.39,245.01L414.63,235.39L414.88,270.02L415.12,216.58L415.37,252.16L415.61,218.49L415.86,229.35L416.1,201.32L416.84,232.43L417.08,229.94L417.33,230.1L417.81,211.38L418.06,226.2L418.3,230.58L418.55,227.43L418.79,272.96L419.77,222.13L420.02,235.78L420.26,233.73L420.51,237.25L420.75,253.72L420.99,194.79L421.24,264.54L421.48,226.76L421.73,212.45L421.97,248.66L422.46,212.71L422.71,202.14L423.44,252.41L423.69,241.2L423.93,208.9L424.18,256.02L424.42,195.33L424.66,223.43L424.91,243.17L425.15,240.06L425.4,196.36L426.13,290.25L426.38,220.49L426.62,239.25L426.87,183.6L427.36,234.3L427.84,220.81L428.09,217.67L428.58,190.86L428.82,200.45L429.07,255.24L429.8,194.91L430.05,232.9L430.29,237.63L430.54,223.2L431.02,211.17L431.76,269.54L432,246.17L432.49,185.54L432.74,246.64L432.98,262.11L433.47,170.27L433.72,232.63L433.96,255.3L434.45,257.27L434.69,218.28L434.94,229.97L435.18,176.75L435.43,245.98L435.67,209.02L435.92,243.42L436.41,208.79L436.9,213.36L437.14,257.24L437.38,273.17L437.63,204.77L438.12,256.98L438.36,209.26L438.61,257.02L439.1,230.66L439.34,240.14L439.83,256.79L440.08,216.43L440.32,270.95L440.56,248.58L440.81,191.97L441.3,239.67L441.79,233.48L442.03,230.01L442.77,205.79L443.01,229.15L443.5,244.36L443.74,183.19L443.99,238.71L444.48,236.41L444.97,271.93L445.21,211.61L445.7,218.48L445.95,205.55L446.92,248.6L447.17,206.09L447.66,234.61L447.9,227.38L448.15,214.32L448.39,208.38L448.64,216.87L448.88,247.46L449.86,201.04L450.11,219.42L450.35,192.93L450.59,237.57L450.84,236.61L451.33,230.11L451.57,237.04L451.82,190.61L452.31,252.11L452.55,215.54L452.8,228.68L453.04,224.28L453.29,214.12L454.02,252.23L454.26,238.83L454.51,182.51L455.49,237.14L455.73,226.33L455.98,248.45L456.22,232.58L456.47,197.33L457.2,252.71L457.44,179.66L458.18,249.46L458.42,237.1L458.67,227.45L458.91,253.67L459.16,208.86L459.4,225.77L459.65,219.34L459.89,206.82L460.13,263.01L460.38,194.55L460.62,276.84L460.87,222.39L461.11,225.08L461.36,226.09L461.6,209.95L461.85,215.47L462.09,203.5L462.34,249.62L462.83,224.12L463.07,193.15L463.56,231.34L463.8,191.25L464.05,255.5L464.54,232.45L464.78,246.87L465.03,201.68L465.52,226.48L465.76,218.31L466.25,195.7L466.49,221.51L466.74,207.33L466.98,239.98L467.23,211.71L467.47,253.79L467.72,215.03L467.96,218.19L468.21,233.74L468.45,216.81L468.7,215.83L468.94,204.42L469.19,263.03L469.92,214.63L470.16,220.17L470.41,227.88L470.65,236.81L470.9,212.54L471.88,244.23L472.12,223.49L472.37,248.32L472.61,204.96L472.85,208.21L473.59,245.18L473.83,213.04L474.32,197.18L474.57,246.02L474.81,243.87L475.06,215.89L475.79,254.55L476.04,223.9L476.28,229.03L476.52,204.84L476.77,199.85L477.01,242.65L477.26,159.99L477.5,268.07L477.75,228.57L477.99,222.1L478.24,214.31L478.48,278.64L478.97,193.81L479.46,228.73L479.7,250.39L480.19,165.11L480.44,245.54L480.68,217.15L480.93,210.46L481.17,232.23L481.66,190.83L481.91,226.88L482.15,227.99L482.4,179.68L482.64,231.29L482.88,247.51L483.13,216.08L483.62,229.44L483.86,224.75L484.11,224.59L484.35,244.25L484.6,268.24L484.84,240.3L485.09,230.74L485.33,221.55L485.58,251.18L486.31,231.34L486.55,199.9L487.29,259.32L487.53,199.9L487.78,242.47L488.27,204.03L488.51,195.65L489,236.52"/></g><g class="points"/><g class="text"/></g></g></g><g class="overplot"/><path class="xlines-above crisp" style="fill: none;" d="M0,0"/><path class="ylines-above crisp" style="fill: none;" d="M0,0"/><g class="overlines-above"/><g class="xaxislayer-above"><g class="xtick"><text text-anchor="middle" x="0" y="403" style="font-family: TOBESTRIPPEDOpen SansTOBESTRIPPED, verdana, arial, sans-serif; font-size: 12px; fill: rgb(68, 68, 68); fill-opacity: 1; white-space: pre;" transform="translate(179.62,0)">50</text></g><g class="xtick"><text text-anchor="middle" x="0" y="403" style="font-family: TOBESTRIPPEDOpen SansTOBESTRIPPED, verdana, arial, sans-serif; font-size: 12px; fill: rgb(68, 68, 68); fill-opacity: 1; white-space: pre;" transform="translate(301.93,0)">100</text></g><g class="xtick"><text text-anchor="middle" x="0" y="403" style="font-family: TOBESTRIPPEDOpen SansTOBESTRIPPED, verdana, arial, sans-serif; font-size: 12px; fill: rgb(68, 68, 68); fill-opacity: 1; white-space: pre;" transform="translate(424.24,0)">150</text></g><g class="xtick"><text text-anchor="middle" x="0" y="403" style="font-family: TOBESTRIPPEDOpen SansTOBESTRIPPED, verdana, arial, sans-serif; font-size: 12px; fill: rgb(68, 68, 68); fill-opacity: 1; white-space: pre;" transform="translate(546.55,0)">200</text></g></g><g class="yaxislayer-above"><g class="ytick"><text text-anchor="end" x="59" y="4.199999999999999" style="font-family: TOBESTRIPPEDOpen SansTOBESTRIPPED, verdana, arial, sans-serif; font-size: 12px; fill: rgb(68, 68, 68); fill-opacity: 1; white-space: pre;" transform="translate(0,361.36)">12</text></g><g class="ytick"><text text-anchor="end" x="59" y="4.199999999999999" style="font-family: TOBESTRIPPEDOpen SansTOBESTRIPPED, verdana, arial, sans-serif; font-size: 12px; fill: rgb(68, 68, 68); fill-opacity: 1; white-space: pre;" transform="translate(0,317.15)">14</text></g><g class="ytick"><text text-anchor="end" x="59" y="4.199999999999999" style="font-family: TOBESTRIPPEDOpen SansTOBESTRIPPED, verdana, arial, sans-serif; font-size: 12px; fill: rgb(68, 68, 68); fill-opacity: 1; white-space: pre;" transform="translate(0,272.94)">16</text></g><g class="ytick"><text text-anchor="end" x="59" y="4.199999999999999" style="font-family: TOBESTRIPPEDOpen SansTOBESTRIPPED, verdana, arial, sans-serif; font-size: 12px; fill: rgb(68, 68, 68); fill-opacity: 1; white-space: pre;" transform="translate(0,228.73)">18</text></g><g class="ytick"><text text-anchor="end" x="59" y="4.199999999999999" style="font-family: TOBESTRIPPEDOpen SansTOBESTRIPPED, verdana, arial, sans-serif; font-size: 12px; fill: rgb(68, 68, 68); fill-opacity: 1; white-space: pre;" transform="translate(0,184.51)">20</text></g><g class="ytick"><text text-anchor="end" x="59" y="4.199999999999999" style="font-family: TOBESTRIPPEDOpen SansTOBESTRIPPED, verdana, arial, sans-serif; font-size: 12px; fill: rgb(68, 68, 68); fill-opacity: 1; white-space: pre;" transform="translate(0,140.3)">22</text></g><g class="ytick"><text text-anchor="end" x="59" y="4.199999999999999" style="font-family: TOBESTRIPPEDOpen SansTOBESTRIPPED, verdana, arial, sans-serif; font-size: 12px; fill: rgb(68, 68, 68); fill-opacity: 1; white-space: pre;" transform="translate(0,96.09)">24</text></g></g><g class="overaxes-above"/></g></g><g class="polarlayer"/><g class="ternarylayer"/><g class="geolayer"/><g class="pielayer"/><g class="glimages"/><defs id="topdefs-798d00"><g class="clips"/><clipPath id="legend798d00"><rect width="129" height="105" x="0" y="0"/></clipPath></defs><g class="layer-above"><g class="imagelayer"/><g class="shapelayer"/></g><g class="infolayer"><g class="legend" pointer-events="all" transform="translate(558.78, 60)"><rect class="bg" shape-rendering="crispEdges" style="stroke: rgb(68, 68, 68); stroke-opacity: 1; fill: rgb(255, 255, 255); fill-opacity: 1; stroke-width: 0px;" width="129" height="105" x="0" y="0"/><g class="scrollbox" transform="translate(0, 0)" clip-path="url(#legend798d00)"><g class="groups"><g class="traces" style="opacity: 0.5;" transform="translate(0, 14.5)"><g class="layers" style="opacity: 1;"><g class="legendfill"/><g class="legendlines"><path class="js-line" d="M5,0h30" style="fill: none; stroke: rgb(31, 119, 180); stroke-opacity: 1; stroke-width: 2px;"/></g><g class="legendsymbols"><g class="legendpoints"/></g></g><text class="legendtext user-select-none" text-anchor="start" style="font-family: TOBESTRIPPEDOpen SansTOBESTRIPPED, verdana, arial, sans-serif; font-size: 12px; fill: rgb(68, 68, 68); fill-opacity: 1; white-space: pre;" x="40" y="4.680000000000001">G1</text><rect class="legendtoggle" style="cursor: pointer; fill: rgb(0, 0, 0); fill-opacity: 0;" pointer-events="all" x="0" y="-9.5" width="169" height="19"/></g><g class="traces" style="opacity: 0.5;" transform="translate(0, 33.5)"><g class="layers" style="opacity: 1;"><g class="legendfill"/><g class="legendlines"><path class="js-line" d="M5,0h30" style="fill: none; stroke: rgb(255, 127, 14); stroke-opacity: 1; stroke-width: 2px;"/></g><g class="legendsymbols"><g class="legendpoints"/></g></g><text class="legendtext user-select-none" text-anchor="start" style="font-family: TOBESTRIPPEDOpen SansTOBESTRIPPED, verdana, arial, sans-serif; font-size: 12px; fill: rgb(68, 68, 68); fill-opacity: 1; white-space: pre;" x="40" y="4.680000000000001">G2</text><rect class="legendtoggle" style="cursor: pointer; fill: rgb(0, 0, 0); fill-opacity: 0;" pointer-events="all" x="0" y="-9.5" width="169" height="19"/></g><g class="traces" style="opacity: 1;" transform="translate(0, 52.5)"><g class="layers" style="opacity: 1;"><g class="legendfill"/><g class="legendlines"><path class="js-line" d="M5,0h30" style="fill: none; stroke: rgb(44, 160, 44); stroke-opacity: 1; stroke-width: 2px;"/></g><g class="legendsymbols"><g class="legendpoints"/></g></g><text class="legendtext user-select-none" text-anchor="start" style="font-family: TOBESTRIPPEDOpen SansTOBESTRIPPED, verdana, arial, sans-serif; font-size: 12px; fill: rgb(68, 68, 68); fill-opacity: 1; white-space: pre;" x="40" y="4.680000000000001">PSNR_clean</text><rect class="legendtoggle" style="cursor: pointer; fill: rgb(0, 0, 0); fill-opacity: 0;" pointer-events="all" x="0" y="-9.5" width="169" height="19"/></g><g class="traces" style="opacity: 1;" transform="translate(0, 71.5)"><g class="layers" style="opacity: 1;"><g class="legendfill"/><g class="legendlines"><path class="js-line" d="M5,0h30" style="fill: none; stroke: rgb(214, 39, 40); stroke-opacity: 1; stroke-width: 2px;"/></g><g class="legendsymbols"><g class="legendpoints"/></g></g><text class="legendtext user-select-none" text-anchor="start" style="font-family: TOBESTRIPPEDOpen SansTOBESTRIPPED, verdana, arial, sans-serif; font-size: 12px; fill: rgb(68, 68, 68); fill-opacity: 1; white-space: pre;" x="40" y="4.680000000000001">PSNR_n2n</text><rect class="legendtoggle" style="cursor: pointer; fill: rgb(0, 0, 0); fill-opacity: 0;" pointer-events="all" x="0" y="-9.5" width="169" height="19"/></g><g class="traces" style="opacity: 0.5;" transform="translate(0, 90.5)"><g class="layers" style="opacity: 1;"><g class="legendfill"/><g class="legendlines"><path class="js-line" d="M5,0h30" style="fill: none; stroke: rgb(148, 103, 189); stroke-opacity: 1; stroke-width: 2px;"/></g><g class="legendsymbols"><g class="legendpoints"/></g></g><text class="legendtext user-select-none" text-anchor="start" style="font-family: TOBESTRIPPEDOpen SansTOBESTRIPPED, verdana, arial, sans-serif; font-size: 12px; fill: rgb(68, 68, 68); fill-opacity: 1; white-space: pre;" x="40" y="4.680000000000001">PSNR_original</text><rect class="legendtoggle" style="cursor: pointer; fill: rgb(0, 0, 0); fill-opacity: 0;" pointer-events="all" x="0" y="-9.5" width="169" height="19"/></g></g></g><rect class="scrollbar" rx="20" ry="3" width="0" height="0" style="fill: rgb(128, 139, 164); fill-opacity: 1;" x="0" y="0"/></g><g class="g-gtitle"><text class="gtitle" style="font-family: TOBESTRIPPEDOpen SansTOBESTRIPPED, verdana, arial, sans-serif; font-size: 17px; fill: rgb(68, 68, 68); opacity: 1; font-weight: normal; white-space: pre;" x="350" y="30" text-anchor="middle">not_gan_t2t loss over time</text></g><g class="g-xtitle"><text class="xtitle" style="font-family: TOBESTRIPPEDOpen SansTOBESTRIPPED, verdana, arial, sans-serif; font-size: 14px; fill: rgb(68, 68, 68); opacity: 1; font-weight: normal; white-space: pre;" x="304.5" y="442" text-anchor="middle">epoch</text></g><g class="g-ytitle"><text class="ytitle" transform="rotate(-90,22,225)" style="font-family: TOBESTRIPPEDOpen SansTOBESTRIPPED, verdana, arial, sans-serif; font-size: 14px; fill: rgb(68, 68, 68); opacity: 1; font-weight: normal; white-space: pre;" x="22" y="225" text-anchor="middle">loss</text></g></g></svg>